<?xml version="1.0" encoding="UTF-8" standalone="no"?>
<!-- Created with Inkscape (http://www.inkscape.org/) -->

<svg
   xmlns:dc="http://purl.org/dc/elements/1.1/"
   xmlns:cc="http://creativecommons.org/ns#"
   xmlns:rdf="http://www.w3.org/1999/02/22-rdf-syntax-ns#"
   xmlns:svg="http://www.w3.org/2000/svg"
   xmlns="http://www.w3.org/2000/svg"
   xmlns:sodipodi="http://sodipodi.sourceforge.net/DTD/sodipodi-0.dtd"
   xmlns:inkscape="http://www.inkscape.org/namespaces/inkscape"
   version="1.1"
   id="svg2"
   xml:space="preserve"
   width="378.66666"
   height="177.52"
   viewBox="0 0 378.66666 177.52"
   sodipodi:docname="logo-35313-1.svg"
   inkscape:version="0.92.4 (5da689c313, 2019-01-14)"><metadata
     id="metadata8"><rdf:RDF><cc:Work
         rdf:about=""><dc:format>image/svg+xml</dc:format><dc:type
           rdf:resource="http://purl.org/dc/dcmitype/StillImage" /><dc:title></dc:title></cc:Work></rdf:RDF></metadata><defs
     id="defs6"><clipPath
       clipPathUnits="userSpaceOnUse"
       id="clipPath18"><path
         d="M 0,0 H 284 V 133.14 H 0 Z"
         id="path16"
         inkscape:connector-curvature="0" /></clipPath></defs><sodipodi:namedview
     pagecolor="#ffffff"
     bordercolor="#666666"
     borderopacity="1"
     objecttolerance="10"
     gridtolerance="10"
     guidetolerance="10"
     inkscape:pageopacity="0"
     inkscape:pageshadow="2"
     inkscape:window-width="1581"
     inkscape:window-height="586"
     id="namedview4"
     showgrid="false"
     inkscape:zoom="1.3294276"
     inkscape:cx="-64.535322"
     inkscape:cy="88.760002"
     inkscape:window-x="4132"
     inkscape:window-y="459"
     inkscape:window-maximized="0"
     inkscape:current-layer="g10" /><g
     id="g10"
     inkscape:groupmode="layer"
     inkscape:label="logo-35313-1"
     transform="matrix(1.3333333,0,0,-1.3333333,0,177.52)"><g
       id="g12"><g
         id="g14"
         clip-path="url(#clipPath18)"><g
           id="g20"
           transform="translate(126.3625,79.8087)"><path
             d="M 0,0 0.595,-2.214 H 3.403 L -0.099,8.805 h -3.089 l -3.85,-11.019 h 2.693 L -3.651,0 Z M -0.545,2.032 H -3.04 l 1.338,4.312 z m 7.153,1.222 c 0.099,0.645 0.561,0.959 1.404,0.959 0.776,0 1.239,-0.281 1.239,-0.744 0,-0.314 -0.182,-0.462 -0.71,-0.545 L 7.269,2.709 C 5.038,2.346 4.097,1.569 4.097,0.083 c 0,-1.504 1.173,-2.511 2.924,-2.511 0.958,0 1.503,0.198 2.296,0.842 C 9.4,-1.883 9.4,-1.933 9.499,-2.214 h 2.395 c -0.264,0.397 -0.297,0.512 -0.297,1.371 v 3.668 c 0,1.189 -0.215,1.817 -0.793,2.329 C 10.176,5.716 9.251,5.997 8.045,5.997 5.798,5.997 4.658,5.105 4.51,3.254 Z M 9.317,0.363 c -0.38,-0.677 -0.942,-1.007 -1.718,-1.007 -0.727,0 -1.189,0.314 -1.189,0.842 0,0.479 0.363,0.76 1.206,0.958 l 0.842,0.182 c 0.397,0.083 0.611,0.149 0.859,0.248 z m 6.625,8.442 H 13.596 V -2.214 h 2.346 z m 6.36,-3.139 H 20.865 V 8.194 H 18.519 V 5.666 H 17.395 V 4.014 h 1.124 V 0.38 c 0,-1.239 0.099,-1.669 0.462,-2.065 0.347,-0.38 0.859,-0.529 1.884,-0.529 h 1.437 v 1.768 h -0.843 c -0.545,0 -0.594,0.099 -0.594,1.355 v 3.105 h 1.437 z m 5.27,0.314 c -2.478,0 -4.23,-1.751 -4.23,-4.196 0,-2.478 1.752,-4.212 4.23,-4.212 2.461,0 4.245,1.734 4.245,4.146 0,2.528 -1.718,4.262 -4.245,4.262 m 0,-1.867 c 1.206,0 1.883,-0.842 1.883,-2.378 0,-1.438 -0.694,-2.297 -1.883,-2.297 -1.19,0 -1.867,0.859 -1.867,2.346 0,1.47 0.677,2.329 1.867,2.329 M 43.778,8.805 V 1.52 c 0,-0.744 -0.116,-1.074 -0.446,-1.388 -0.364,-0.314 -0.893,-0.495 -1.504,-0.495 -0.594,0 -1.123,0.181 -1.487,0.495 -0.33,0.314 -0.446,0.644 -0.446,1.388 v 7.285 h -2.478 v -7.45 c 0,-1.388 0.364,-2.264 1.19,-2.875 0.842,-0.611 1.966,-0.941 3.221,-0.941 1.272,0 2.396,0.33 3.238,0.941 0.826,0.611 1.19,1.487 1.19,2.875 v 7.45 z m 4.724,-3.04 v -7.979 h 2.346 v 4.477 c 0,0.694 0.083,1.024 0.347,1.322 0.248,0.281 0.611,0.429 1.008,0.429 0.413,0 0.76,-0.165 0.958,-0.462 0.198,-0.298 0.248,-0.611 0.248,-1.421 v -4.345 h 2.345 v 5.171 c 0,1.883 -1.057,3.04 -2.791,3.04 -0.826,0 -1.306,-0.215 -2.181,-1.008 v 0.776 z m 11.828,0 h -2.346 v -7.979 h 2.346 z m 0,3.04 H 57.984 V 6.872 h 2.346 z m 6.575,-11.019 2.71,7.979 H 67.104 L 66.294,2.709 C 66.178,2.23 65.98,1.322 65.798,0.413 65.534,1.371 65.336,2.148 65.171,2.709 l -0.892,3.056 h -2.462 l 2.858,-7.979 z M 78.519,1.09 c 0,1.058 -0.116,1.768 -0.364,2.429 -0.578,1.586 -1.866,2.461 -3.584,2.461 -2.396,0 -4.081,-1.734 -4.081,-4.212 0,-2.511 1.636,-4.196 4.097,-4.196 1.9,0 3.387,0.991 3.833,2.544 H 76.041 C 75.71,-0.38 75.281,-0.595 74.653,-0.595 73.645,-0.595 73.001,0 72.852,1.09 Z m -5.65,1.652 c 0.182,0.925 0.776,1.454 1.685,1.454 0.909,0 1.454,-0.529 1.553,-1.454 z m 7.335,3.023 v -7.979 h 2.346 v 2.247 c 0,1.553 0.082,2.296 0.313,2.825 0.265,0.595 0.926,0.958 1.735,0.958 0.165,0 0.314,-0.016 0.595,-0.049 V 5.98 C 83.491,5.997 82.897,5.633 82.434,4.345 L 82.5,5.765 Z M 93.37,3.37 c -0.198,1.685 -1.454,2.61 -3.502,2.61 -2.115,0 -3.403,-0.974 -3.403,-2.577 0,-1.272 0.677,-1.916 2.428,-2.296 l 1.454,-0.331 c 0.628,-0.148 0.892,-0.363 0.892,-0.726 0,-0.463 -0.496,-0.777 -1.223,-0.777 -0.941,0 -1.437,0.364 -1.569,1.107 H 86.25 c 0.132,-1.768 1.503,-2.808 3.717,-2.808 2.214,0 3.585,1.057 3.585,2.742 0,0.644 -0.215,1.239 -0.595,1.602 C 92.61,2.28 92.114,2.495 91.14,2.693 l -1.47,0.314 c -0.744,0.165 -0.975,0.314 -0.975,0.611 0,0.396 0.446,0.661 1.123,0.661 0.777,0 1.256,-0.314 1.355,-0.909 z m 4.031,2.395 h -2.346 v -7.979 h 2.346 z m 0,3.04 H 95.055 V 6.872 h 2.346 z m 6.525,-3.139 h -1.437 v 2.528 h -2.346 V 5.666 H 99.02 V 4.014 h 1.123 V 0.38 c 0,-1.239 0.099,-1.669 0.463,-2.065 0.347,-0.38 0.859,-0.529 1.883,-0.529 h 1.437 v 1.768 h -0.842 c -0.546,0 -0.595,0.099 -0.595,1.355 v 3.105 h 1.437 z m 6.757,0.099 -1.041,-3.601 C 109.46,1.454 109.328,0.909 109.229,0.38 l -0.099,0.314 c -0.182,0.661 -0.182,0.677 -0.413,1.421 l -1.173,3.65 h -2.511 l 2.627,-6.707 c 0.28,-0.693 0.297,-0.743 0.297,-1.024 0,-0.694 -0.38,-1.008 -1.206,-1.008 h -0.694 v -1.767 h 1.371 c 1.784,0 2.164,0.33 2.908,2.461 l 2.775,8.045 z"
             style="fill:#231f20;fill-opacity:1;fill-rule:nonzero;stroke:none"
             id="path22"
             inkscape:connector-curvature="0" /></g></g></g><g
       id="g24"
       transform="translate(89.0521,44.526)"><path
         d="M 0,0 -15.612,44.087 H -28.913 L -44.525,0 h 11.079 l 2.701,7.801 H -13.78 L -11.08,0 Z M -16.826,16.6 H -27.7 l 5.437,15.707 z"
         style="fill:#231f20;fill-opacity:1;fill-rule:nonzero;stroke:none"
         id="path26"
         inkscape:connector-curvature="0" /></g><path
       d="m 93.196,44.526 h 9.994 v 9.994 h -9.994 z"
       style="fill:#231f20;fill-opacity:1;fill-rule:nonzero;stroke:none"
       id="path28"
       inkscape:connector-curvature="0" /><g
       id="g30"
       transform="translate(103.5093,73.3386)"><path
         d="M 0,0 V 15.275 H -10.613 V 0 l 2.166,-15.274 h 5.864 z"
         style="fill:#231f20;fill-opacity:1;fill-rule:nonzero;stroke:none"
         id="path32"
         inkscape:connector-curvature="0" /></g></g></svg>