<svg width="279.93" height="78.78" xmlns="http://www.w3.org/2000/svg"><defs><clipPath clipPathUnits="userSpaceOnUse" id="a"><path d="M0 0h284v133.14H0z"/></clipPath></defs><g clip-path="url(#a)" transform="matrix(1.33333 0 0 -1.33333 -49.37 128.15)"><path d="M126.36 79.8l.6-2.2h2.8l-3.5 11.01h-3.09l-3.85-11.02h2.7l.7 2.22zm-.54 2.04h-2.5l1.34 4.31zm7.15 1.22c.1.65.56.96 1.4.96.78 0 1.24-.28 1.24-.74 0-.32-.18-.46-.7-.55l-1.28-.21c-2.23-.37-3.17-1.14-3.17-2.63 0-1.5 1.17-2.5 2.92-2.5.96 0 1.5.19 2.3.83.08-.3.08-.34.18-.63h2.4c-.27.4-.3.52-.3 1.38v3.66c0 1.2-.22 1.82-.8 2.33-.62.56-1.55.85-2.75.85-2.25 0-3.39-.9-3.54-2.75zm2.7-2.89c-.37-.68-.93-1-1.7-1-.74 0-1.2.3-1.2.84 0 .48.37.76 1.2.95l.85.19c.4.08.61.15.86.24zm6.63 8.44h-2.34V77.6h2.34zm6.36-3.14h-1.43V88h-2.35v-2.53h-1.12v-1.65h1.12V80.2c0-1.24.1-1.67.46-2.07.35-.38.86-.53 1.89-.53h1.43v1.77h-.84c-.54 0-.6.1-.6 1.36v3.1h1.44zm5.27.32a4.05 4.05 0 01-4.23-4.2 4.05 4.05 0 014.23-4.2c2.47 0 4.25 1.72 4.25 4.14a4.04 4.04 0 01-4.25 4.26m0-1.87c1.21 0 1.89-.84 1.89-2.38 0-1.43-.7-2.3-1.89-2.3s-1.86.87-1.86 2.35c0 1.47.67 2.33 1.86 2.33m16.21 4.7v-7.3c0-.74-.12-1.07-.45-1.38-.36-.31-.89-.5-1.5-.5-.6 0-1.12.19-1.49.5-.33.31-.44.64-.44 1.39v7.28h-2.48v-7.45c0-1.38.36-2.26 1.19-2.87a5.46 5.46 0 013.22-.94c1.27 0 2.4.33 3.24.94.82.61 1.19 1.49 1.19 2.87v7.45zm4.72-3.05V77.6h2.35v4.48c0 .7.08 1.03.35 1.32.25.28.6.43 1 .43.42 0 .77-.16.96-.46.2-.3.25-.61.25-1.42v-4.35h2.35v5.18c0 1.88-1.06 3.04-2.8 3.04-.82 0-1.3-.22-2.18-1.01v.77zm11.83 0h-2.34V77.6h2.34zm0 3.04h-2.34v-1.93h2.34zm6.58-11.02l2.7 7.98h-2.5l-.81-3.05c-.12-.48-.32-1.39-.5-2.3-.26.96-.46 1.74-.63 2.3l-.89 3.05h-2.46l2.86-7.98zm11.61 3.3a6.6 6.6 0 01-.36 2.44 3.6 3.6 0 01-3.59 2.46c-2.4 0-4.08-1.74-4.08-4.21 0-2.51 1.64-4.2 4.1-4.2 1.9 0 3.39 1 3.83 2.54h-2.38c-.33-.5-.76-.7-1.38-.7-1.01 0-1.66.59-1.8 1.68zm-5.65 1.66c.18.93.78 1.45 1.69 1.45.9 0 1.45-.52 1.55-1.45zm7.34 3.02V77.6h2.34v2.25c0 1.55.08 2.3.32 2.83.26.6.92.95 1.73.95.17 0 .31-.01.6-.04v2.2c-1.7.03-2.3-.34-2.76-1.63l.06 1.42zm13.16-2.4c-.2 1.7-1.45 2.62-3.5 2.62-2.11 0-3.4-.98-3.4-2.58 0-1.27.67-1.91 2.43-2.3l1.45-.33c.63-.14.9-.36.9-.72 0-.46-.5-.78-1.23-.78-.94 0-1.44.37-1.57 1.1h-2.2c.13-1.76 1.5-2.8 3.72-2.8 2.21 0 3.58 1.06 3.58 2.74 0 .65-.21 1.24-.59 1.6-.35.37-.84.58-1.82.78l-1.47.32c-.74.16-.97.31-.97.6 0 .4.44.67 1.12.67.78 0 1.26-.32 1.36-.91zm4.03 2.4h-2.34V77.6h2.34zm0 3.04h-2.34v-1.93h2.34zm6.53-3.14h-1.44V88h-2.34v-2.53h-1.13v-1.65h1.13V80.2c0-1.24.1-1.67.46-2.07.35-.38.86-.53 1.88-.53h1.44v1.77h-.84c-.55 0-.6.1-.6 1.36v3.1h1.44zm6.76.1l-1.05-3.6c-.18-.7-.3-1.25-.4-1.78l-.1.31c-.19.66-.19.68-.42 1.42l-1.17 3.65h-2.51l2.62-6.7c.28-.7.3-.75.3-1.03 0-.7-.38-1-1.2-1h-.7v-1.77h1.37c1.78 0 2.16.33 2.9 2.46l2.78 8.04z" fill="#231f20"/></g><path d="M69.37 68.78L48.55 10H30.82L10 68.78h14.77l3.6-10.4H51l3.6 10.4zM46.93 46.65h-14.5l7.25-20.94zM74.9 68.78h13.32V55.46H74.89zM88.64 30.37V10H74.5v20.37l2.89 20.36h7.82z" fill="#231f20"/></svg>
