<svg xmlns="http://www.w3.org/2000/svg" xmlns:xlink="http://www.w3.org/1999/xlink" width="892" zoomAndPan="magnify" viewBox="0 0 669 171.000002" height="228" preserveAspectRatio="xMidYMid meet" version="1.0"><defs><g/><clipPath id="1ff27b7777"><path d="M 31 21 L 183 21 L 183 149 L 31 149 Z M 31 21 " clip-rule="nonzero"/></clipPath><clipPath id="d6029e232f"><path d="M 31.730469 21.273438 L 261.316406 21.492188 L 261.195312 148.835938 L 31.609375 148.617188 Z M 31.730469 21.273438 " clip-rule="nonzero"/></clipPath><clipPath id="7cc88f75a2"><path d="M 104.578125 47.988281 C 112.375 32.324219 128.652344 21.550781 147.441406 21.566406 C 166.214844 21.585938 182.457031 32.371094 190.234375 48.023438 C 199.175781 45.0625 208.011719 45.738281 214.5625 50.753906 C 219.78125 54.742188 222.757812 60.878906 223.539062 68 C 224.695312 68.074219 225.855469 68.203125 227.019531 68.382812 C 248.804688 71.742188 261.652344 90.179688 260.867188 113.113281 C 260.339844 128.585938 246.679688 148.183594 220.957031 148.4375 L 76.34375 148.300781 C 73.460938 148.144531 50.621094 147.023438 39.648438 133.5 C 26.976562 117.890625 30.015625 90.617188 48.996094 74.34375 C 55.453125 68.804688 62.796875 65.164062 70.21875 63.410156 C 71.53125 57.640625 74.425781 52.757812 78.917969 49.480469 C 85.871094 44.410156 95.257812 44.207031 104.578125 47.988281 Z M 104.578125 47.988281 " clip-rule="evenodd"/></clipPath><clipPath id="d253d48c0e"><path d="M 54 21 L 258 21 L 258 149 L 54 149 Z M 54 21 " clip-rule="nonzero"/></clipPath><clipPath id="a62c0dc0a7"><path d="M 31.730469 21.273438 L 261.316406 21.492188 L 261.195312 148.835938 L 31.609375 148.617188 Z M 31.730469 21.273438 " clip-rule="nonzero"/></clipPath><clipPath id="6123e0b87d"><path d="M 104.578125 47.988281 C 112.375 32.324219 128.652344 21.550781 147.441406 21.566406 C 166.214844 21.585938 182.457031 32.371094 190.234375 48.023438 C 199.175781 45.0625 208.011719 45.738281 214.5625 50.753906 C 219.78125 54.742188 222.757812 60.878906 223.539062 68 C 224.695312 68.074219 225.855469 68.203125 227.019531 68.382812 C 248.804688 71.742188 261.652344 90.179688 260.867188 113.113281 C 260.339844 128.585938 246.679688 148.183594 220.957031 148.4375 L 76.34375 148.300781 C 73.460938 148.144531 50.621094 147.023438 39.648438 133.5 C 26.976562 117.890625 30.015625 90.617188 48.996094 74.34375 C 55.453125 68.804688 62.796875 65.164062 70.21875 63.410156 C 71.53125 57.640625 74.425781 52.757812 78.917969 49.480469 C 85.871094 44.410156 95.257812 44.207031 104.578125 47.988281 Z M 104.578125 47.988281 " clip-rule="evenodd"/></clipPath><clipPath id="9af204ec01"><path d="M 31 21 L 220 21 L 220 149 L 31 149 Z M 31 21 " clip-rule="nonzero"/></clipPath><clipPath id="c2a3d70244"><path d="M 31.730469 21.273438 L 261.316406 21.492188 L 261.195312 148.835938 L 31.609375 148.617188 Z M 31.730469 21.273438 " clip-rule="nonzero"/></clipPath><clipPath id="ac00391e65"><path d="M 104.578125 47.988281 C 112.375 32.324219 128.652344 21.550781 147.441406 21.566406 C 166.214844 21.585938 182.457031 32.371094 190.234375 48.023438 C 199.175781 45.0625 208.011719 45.738281 214.5625 50.753906 C 219.78125 54.742188 222.757812 60.878906 223.539062 68 C 224.695312 68.074219 225.855469 68.203125 227.019531 68.382812 C 248.804688 71.742188 261.652344 90.179688 260.867188 113.113281 C 260.339844 128.585938 246.679688 148.183594 220.957031 148.4375 L 76.34375 148.300781 C 73.460938 148.144531 50.621094 147.023438 39.648438 133.5 C 26.976562 117.890625 30.015625 90.617188 48.996094 74.34375 C 55.453125 68.804688 62.796875 65.164062 70.21875 63.410156 C 71.53125 57.640625 74.425781 52.757812 78.917969 49.480469 C 85.871094 44.410156 95.257812 44.207031 104.578125 47.988281 Z M 104.578125 47.988281 " clip-rule="evenodd"/></clipPath></defs><path fill="#ececec" d="M 104.578125 47.988281 C 112.375 32.324219 128.652344 21.550781 147.441406 21.566406 C 166.214844 21.585938 182.457031 32.371094 190.234375 48.023438 C 199.175781 45.0625 208.011719 45.738281 214.5625 50.753906 C 219.78125 54.742188 222.757812 60.878906 223.539062 68 C 224.695312 68.074219 225.855469 68.203125 227.019531 68.382812 C 248.804688 71.742188 261.652344 90.179688 260.867188 113.113281 C 260.339844 128.585938 246.679688 148.183594 220.957031 148.4375 L 76.34375 148.300781 C 73.460938 148.144531 50.621094 147.023438 39.648438 133.5 C 26.976562 117.890625 30.015625 90.617188 48.996094 74.34375 C 55.453125 68.804688 62.796875 65.164062 70.21875 63.410156 C 71.53125 57.640625 74.425781 52.757812 78.917969 49.480469 C 85.871094 44.410156 95.257812 44.207031 104.578125 47.988281 Z M 104.578125 47.988281 " fill-opacity="1" fill-rule="evenodd"/><g clip-path="url(#1ff27b7777)"><g clip-path="url(#d6029e232f)"><g clip-path="url(#7cc88f75a2)"><path fill="#2ec4b6" d="M 151.667969 -72.003906 L 182.484375 -52.957031 L 10.078125 225.917969 L -20.734375 206.867188 Z M 151.667969 -72.003906 " fill-opacity="1" fill-rule="evenodd"/></g></g></g><g clip-path="url(#d253d48c0e)"><g clip-path="url(#a62c0dc0a7)"><g clip-path="url(#6123e0b87d)"><path fill="#ff9f1c" d="M 226.480469 -25.398438 L 257.292969 -6.347656 L 84.890625 272.523438 L 54.078125 253.472656 Z M 226.480469 -25.398438 " fill-opacity="1" fill-rule="evenodd"/></g></g></g><g clip-path="url(#9af204ec01)"><g clip-path="url(#c2a3d70244)"><g clip-path="url(#ac00391e65)"><path fill="#e71d36" d="M 188.867188 -49.007812 L 219.679688 -29.960938 L 47.277344 248.914062 L 16.460938 229.863281 Z M 188.867188 -49.007812 " fill-opacity="1" fill-rule="evenodd"/></g></g></g><g fill="#ececec" fill-opacity="1"><g transform="translate(273.977359, 99.306442)"><g><path d="M 4.296875 -34.828125 C 4.296875 -41.609375 5.820312 -47.707031 8.875 -53.125 C 11.9375 -58.550781 16.109375 -62.796875 21.390625 -65.859375 C 26.679688 -68.921875 32.554688 -70.453125 39.015625 -70.453125 C 46.597656 -70.453125 53.21875 -68.617188 58.875 -64.953125 C 64.53125 -61.296875 68.65625 -56.109375 71.25 -49.390625 L 60.375 -49.390625 C 58.4375 -53.578125 55.65625 -56.800781 52.03125 -59.0625 C 48.40625 -61.332031 44.066406 -62.46875 39.015625 -62.46875 C 34.160156 -62.46875 29.800781 -61.332031 25.9375 -59.0625 C 22.082031 -56.800781 19.054688 -53.59375 16.859375 -49.4375 C 14.660156 -45.28125 13.5625 -40.410156 13.5625 -34.828125 C 13.5625 -29.304688 14.660156 -24.460938 16.859375 -20.296875 C 19.054688 -16.140625 22.082031 -12.929688 25.9375 -10.671875 C 29.800781 -8.410156 34.160156 -7.28125 39.015625 -7.28125 C 44.066406 -7.28125 48.40625 -8.394531 52.03125 -10.625 C 55.65625 -12.851562 58.4375 -16.0625 60.375 -20.25 L 71.25 -20.25 C 68.65625 -13.601562 64.53125 -8.46875 58.875 -4.84375 C 53.21875 -1.21875 46.597656 0.59375 39.015625 0.59375 C 32.554688 0.59375 26.679688 -0.914062 21.390625 -3.9375 C 16.109375 -6.96875 11.9375 -11.175781 8.875 -16.5625 C 5.820312 -21.945312 4.296875 -28.035156 4.296875 -34.828125 Z M 4.296875 -34.828125 "/></g></g></g><g fill="#ececec" fill-opacity="1"><g transform="translate(351.004301, 99.306442)"><g><path d="M 4.296875 -27.546875 C 4.296875 -33.128906 5.425781 -38.03125 7.6875 -42.25 C 9.945312 -46.476562 13.054688 -49.753906 17.015625 -52.078125 C 20.972656 -54.410156 25.378906 -55.578125 30.234375 -55.578125 C 35.023438 -55.578125 39.179688 -54.546875 42.703125 -52.484375 C 46.234375 -50.421875 48.863281 -47.828125 50.59375 -44.703125 L 50.59375 -54.6875 L 59.765625 -54.6875 L 59.765625 0 L 50.59375 0 L 50.59375 -10.171875 C 48.789062 -6.984375 46.109375 -4.34375 42.546875 -2.25 C 38.992188 -0.15625 34.859375 0.890625 30.140625 0.890625 C 25.273438 0.890625 20.878906 -0.300781 16.953125 -2.6875 C 13.035156 -5.082031 9.945312 -8.441406 7.6875 -12.765625 C 5.425781 -17.085938 4.296875 -22.015625 4.296875 -27.546875 Z M 50.59375 -27.4375 C 50.59375 -31.5625 49.757812 -35.15625 48.09375 -38.21875 C 46.425781 -41.28125 44.179688 -43.625 41.359375 -45.25 C 38.535156 -46.882812 35.425781 -47.703125 32.03125 -47.703125 C 28.632812 -47.703125 25.539062 -46.898438 22.75 -45.296875 C 19.957031 -43.703125 17.726562 -41.375 16.0625 -38.3125 C 14.394531 -35.25 13.5625 -31.660156 13.5625 -27.546875 C 13.5625 -23.347656 14.394531 -19.703125 16.0625 -16.609375 C 17.726562 -13.515625 19.957031 -11.148438 22.75 -9.515625 C 25.539062 -7.890625 28.632812 -7.078125 32.03125 -7.078125 C 35.425781 -7.078125 38.535156 -7.890625 41.359375 -9.515625 C 44.179688 -11.148438 46.425781 -13.515625 48.09375 -16.609375 C 49.757812 -19.703125 50.59375 -23.3125 50.59375 -27.4375 Z M 50.59375 -27.4375 "/></g></g></g><g fill="#ececec" fill-opacity="1"><g transform="translate(418.452762, 99.306442)"><g><path d="M 16.765625 -44.609375 C 18.554688 -47.734375 21.234375 -50.34375 24.796875 -52.4375 C 28.359375 -54.53125 32.5 -55.578125 37.21875 -55.578125 C 42.070312 -55.578125 46.476562 -54.410156 50.4375 -52.078125 C 54.394531 -49.753906 57.503906 -46.476562 59.765625 -42.25 C 62.023438 -38.03125 63.15625 -33.128906 63.15625 -27.546875 C 63.15625 -22.015625 62.023438 -17.085938 59.765625 -12.765625 C 57.503906 -8.441406 54.394531 -5.082031 50.4375 -2.6875 C 46.476562 -0.300781 42.070312 0.890625 37.21875 0.890625 C 32.5625 0.890625 28.453125 -0.15625 24.890625 -2.25 C 21.335938 -4.34375 18.628906 -6.953125 16.765625 -10.078125 L 16.765625 25.9375 L 7.6875 25.9375 L 7.6875 -54.6875 L 16.765625 -54.6875 Z M 53.875 -27.546875 C 53.875 -31.660156 53.039062 -35.25 51.375 -38.3125 C 49.71875 -41.375 47.472656 -43.703125 44.640625 -45.296875 C 41.816406 -46.898438 38.710938 -47.703125 35.328125 -47.703125 C 31.992188 -47.703125 28.914062 -46.882812 26.09375 -45.25 C 23.269531 -43.625 21.007812 -41.265625 19.3125 -38.171875 C 17.613281 -35.078125 16.765625 -31.5 16.765625 -27.4375 C 16.765625 -23.3125 17.613281 -19.703125 19.3125 -16.609375 C 21.007812 -13.515625 23.269531 -11.148438 26.09375 -9.515625 C 28.914062 -7.890625 31.992188 -7.078125 35.328125 -7.078125 C 38.710938 -7.078125 41.816406 -7.890625 44.640625 -9.515625 C 47.472656 -11.148438 49.71875 -13.515625 51.375 -16.609375 C 53.039062 -19.703125 53.875 -23.347656 53.875 -27.546875 Z M 53.875 -27.546875 "/></g></g></g><g fill="#ececec" fill-opacity="1"><g transform="translate(485.901224, 99.306442)"><g><path d="M 12.375 -63.5625 C 10.644531 -63.5625 9.179688 -64.160156 7.984375 -65.359375 C 6.785156 -66.554688 6.1875 -68.019531 6.1875 -69.75 C 6.1875 -71.476562 6.785156 -72.941406 7.984375 -74.140625 C 9.179688 -75.335938 10.644531 -75.9375 12.375 -75.9375 C 14.039062 -75.9375 15.453125 -75.335938 16.609375 -74.140625 C 17.773438 -72.941406 18.359375 -71.476562 18.359375 -69.75 C 18.359375 -68.019531 17.773438 -66.554688 16.609375 -65.359375 C 15.453125 -64.160156 14.039062 -63.5625 12.375 -63.5625 Z M 16.765625 -54.6875 L 16.765625 0 L 7.6875 0 L 7.6875 -54.6875 Z M 16.765625 -54.6875 "/></g></g></g><g fill="#ececec" fill-opacity="1"><g transform="translate(510.446072, 99.306442)"><g><path d="M 18.765625 -47.203125 L 18.765625 -14.96875 C 18.765625 -12.300781 19.328125 -10.421875 20.453125 -9.328125 C 21.585938 -8.234375 23.550781 -7.6875 26.34375 -7.6875 L 33.03125 -7.6875 L 33.03125 0 L 24.84375 0 C 19.789062 0 16 -1.160156 13.46875 -3.484375 C 10.9375 -5.816406 9.671875 -9.644531 9.671875 -14.96875 L 9.671875 -47.203125 L 2.59375 -47.203125 L 2.59375 -54.6875 L 9.671875 -54.6875 L 9.671875 -68.453125 L 18.765625 -68.453125 L 18.765625 -54.6875 L 33.03125 -54.6875 L 33.03125 -47.203125 Z M 18.765625 -47.203125 "/></g></g></g><g fill="#ececec" fill-opacity="1"><g transform="translate(546.76446, 99.306442)"><g><path d="M 31.53125 0.890625 C 26.40625 0.890625 21.765625 -0.269531 17.609375 -2.59375 C 13.453125 -4.925781 10.191406 -8.234375 7.828125 -12.515625 C 5.472656 -16.804688 4.296875 -21.78125 4.296875 -27.4375 C 4.296875 -33.03125 5.507812 -37.96875 7.9375 -42.25 C 10.363281 -46.539062 13.671875 -49.832031 17.859375 -52.125 C 22.046875 -54.425781 26.738281 -55.578125 31.9375 -55.578125 C 37.125 -55.578125 41.8125 -54.425781 46 -52.125 C 50.1875 -49.832031 53.492188 -46.554688 55.921875 -42.296875 C 58.347656 -38.046875 59.5625 -33.09375 59.5625 -27.4375 C 59.5625 -21.78125 58.3125 -16.804688 55.8125 -12.515625 C 53.320312 -8.234375 49.945312 -4.925781 45.6875 -2.59375 C 41.4375 -0.269531 36.71875 0.890625 31.53125 0.890625 Z M 31.53125 -7.078125 C 34.789062 -7.078125 37.847656 -7.84375 40.703125 -9.375 C 43.566406 -10.90625 45.878906 -13.203125 47.640625 -16.265625 C 49.410156 -19.328125 50.296875 -23.050781 50.296875 -27.4375 C 50.296875 -31.832031 49.425781 -35.554688 47.6875 -38.609375 C 45.957031 -41.671875 43.695312 -43.953125 40.90625 -45.453125 C 38.113281 -46.953125 35.085938 -47.703125 31.828125 -47.703125 C 28.503906 -47.703125 25.460938 -46.953125 22.703125 -45.453125 C 19.941406 -43.953125 17.726562 -41.671875 16.0625 -38.609375 C 14.394531 -35.554688 13.5625 -31.832031 13.5625 -27.4375 C 13.5625 -22.976562 14.375 -19.21875 16 -16.15625 C 17.632812 -13.101562 19.816406 -10.828125 22.546875 -9.328125 C 25.273438 -7.828125 28.269531 -7.078125 31.53125 -7.078125 Z M 31.53125 -7.078125 "/></g></g></g><g fill="#ececec" fill-opacity="1"><g transform="translate(610.620993, 99.306442)"><g><path d="M 16.765625 -73.84375 L 16.765625 0 L 7.6875 0 L 7.6875 -73.84375 Z M 16.765625 -73.84375 "/></g></g></g><g fill="#ececec" fill-opacity="1"><g transform="translate(283.271493, 131.407185)"><g><path d="M 21.0625 -23.90625 L 21.0625 0 L 17.9375 0 L 17.9375 -10.84375 L 5.765625 -10.84375 L 5.765625 0 L 2.640625 0 L 2.640625 -23.90625 L 5.765625 -23.90625 L 5.765625 -13.40625 L 17.9375 -13.40625 L 17.9375 -23.90625 Z M 21.0625 -23.90625 "/></g></g><g transform="translate(307.00669, 131.407185)"><g><path d="M 10.84375 0.3125 C 9.082031 0.3125 7.484375 -0.0859375 6.046875 -0.890625 C 4.617188 -1.691406 3.5 -2.828125 2.6875 -4.296875 C 1.875 -5.773438 1.46875 -7.488281 1.46875 -9.4375 C 1.46875 -11.351562 1.882812 -13.046875 2.71875 -14.515625 C 3.5625 -15.992188 4.703125 -17.128906 6.140625 -17.921875 C 7.578125 -18.710938 9.1875 -19.109375 10.96875 -19.109375 C 12.757812 -19.109375 14.375 -18.710938 15.8125 -17.921875 C 17.25 -17.128906 18.382812 -16 19.21875 -14.53125 C 20.050781 -13.070312 20.46875 -11.375 20.46875 -9.4375 C 20.46875 -7.488281 20.039062 -5.773438 19.1875 -4.296875 C 18.332031 -2.828125 17.171875 -1.691406 15.703125 -0.890625 C 14.242188 -0.0859375 12.625 0.3125 10.84375 0.3125 Z M 10.84375 -2.4375 C 11.957031 -2.4375 13.003906 -2.695312 13.984375 -3.21875 C 14.972656 -3.75 15.769531 -4.539062 16.375 -5.59375 C 16.976562 -6.644531 17.28125 -7.925781 17.28125 -9.4375 C 17.28125 -10.9375 16.984375 -12.210938 16.390625 -13.265625 C 15.796875 -14.316406 15.019531 -15.097656 14.0625 -15.609375 C 13.101562 -16.128906 12.0625 -16.390625 10.9375 -16.390625 C 9.789062 -16.390625 8.742188 -16.128906 7.796875 -15.609375 C 6.847656 -15.097656 6.085938 -14.316406 5.515625 -13.265625 C 4.953125 -12.210938 4.671875 -10.9375 4.671875 -9.4375 C 4.671875 -7.90625 4.945312 -6.613281 5.5 -5.5625 C 6.0625 -4.507812 6.8125 -3.722656 7.75 -3.203125 C 8.6875 -2.691406 9.71875 -2.4375 10.84375 -2.4375 Z M 10.84375 -2.4375 "/></g></g><g transform="translate(328.958317, 131.407185)"><g><path d="M 9.296875 0.3125 C 7.859375 0.3125 6.566406 0.0664062 5.421875 -0.421875 C 4.273438 -0.921875 3.367188 -1.609375 2.703125 -2.484375 C 2.046875 -3.367188 1.679688 -4.378906 1.609375 -5.515625 L 4.828125 -5.515625 C 4.921875 -4.578125 5.363281 -3.8125 6.15625 -3.21875 C 6.945312 -2.625 7.984375 -2.328125 9.265625 -2.328125 C 10.453125 -2.328125 11.382812 -2.585938 12.0625 -3.109375 C 12.75 -3.640625 13.09375 -4.304688 13.09375 -5.109375 C 13.09375 -5.929688 12.726562 -6.539062 12 -6.9375 C 11.269531 -7.34375 10.140625 -7.738281 8.609375 -8.125 C 7.210938 -8.488281 6.070312 -8.859375 5.1875 -9.234375 C 4.3125 -9.617188 3.554688 -10.179688 2.921875 -10.921875 C 2.296875 -11.660156 1.984375 -12.640625 1.984375 -13.859375 C 1.984375 -14.816406 2.269531 -15.695312 2.84375 -16.5 C 3.414062 -17.300781 4.226562 -17.9375 5.28125 -18.40625 C 6.332031 -18.875 7.535156 -19.109375 8.890625 -19.109375 C 10.960938 -19.109375 12.640625 -18.582031 13.921875 -17.53125 C 15.203125 -16.476562 15.890625 -15.035156 15.984375 -13.203125 L 12.859375 -13.203125 C 12.796875 -14.179688 12.398438 -14.96875 11.671875 -15.5625 C 10.953125 -16.164062 9.988281 -16.46875 8.78125 -16.46875 C 7.65625 -16.46875 6.757812 -16.222656 6.09375 -15.734375 C 5.4375 -15.253906 5.109375 -14.628906 5.109375 -13.859375 C 5.109375 -13.242188 5.304688 -12.734375 5.703125 -12.328125 C 6.109375 -11.929688 6.613281 -11.613281 7.21875 -11.375 C 7.820312 -11.132812 8.660156 -10.863281 9.734375 -10.5625 C 11.085938 -10.195312 12.1875 -9.835938 13.03125 -9.484375 C 13.875 -9.128906 14.597656 -8.597656 15.203125 -7.890625 C 15.816406 -7.179688 16.132812 -6.253906 16.15625 -5.109375 C 16.15625 -4.078125 15.867188 -3.148438 15.296875 -2.328125 C 14.722656 -1.503906 13.914062 -0.859375 12.875 -0.390625 C 11.832031 0.078125 10.640625 0.3125 9.296875 0.3125 Z M 9.296875 0.3125 "/></g></g></g><g fill="#ececec" fill-opacity="1"><g transform="translate(346.862622, 131.407185)"><g><path d="M 6.453125 -16.21875 L 6.453125 -5.140625 C 6.453125 -4.222656 6.644531 -3.578125 7.03125 -3.203125 C 7.414062 -2.828125 8.085938 -2.640625 9.046875 -2.640625 L 11.359375 -2.640625 L 11.359375 0 L 8.546875 0 C 6.804688 0 5.5 -0.398438 4.625 -1.203125 C 3.757812 -2.003906 3.328125 -3.316406 3.328125 -5.140625 L 3.328125 -16.21875 L 0.890625 -16.21875 L 0.890625 -18.796875 L 3.328125 -18.796875 L 3.328125 -23.53125 L 6.453125 -23.53125 L 6.453125 -18.796875 L 11.359375 -18.796875 L 11.359375 -16.21875 Z M 6.453125 -16.21875 "/></g></g></g><g fill="#ececec" fill-opacity="1"><g transform="translate(359.347612, 131.407185)"><g><path d="M 4.25 -21.84375 C 3.65625 -21.84375 3.148438 -22.046875 2.734375 -22.453125 C 2.328125 -22.867188 2.125 -23.375 2.125 -23.96875 C 2.125 -24.5625 2.328125 -25.0625 2.734375 -25.46875 C 3.148438 -25.882812 3.65625 -26.09375 4.25 -26.09375 C 4.820312 -26.09375 5.304688 -25.882812 5.703125 -25.46875 C 6.109375 -25.0625 6.3125 -24.5625 6.3125 -23.96875 C 6.3125 -23.375 6.109375 -22.867188 5.703125 -22.453125 C 5.304688 -22.046875 4.820312 -21.84375 4.25 -21.84375 Z M 5.765625 -18.796875 L 5.765625 0 L 2.640625 0 L 2.640625 -18.796875 Z M 5.765625 -18.796875 "/></g></g></g><g fill="#ececec" fill-opacity="1"><g transform="translate(367.785265, 131.407185)"><g><path d="M 11.796875 -19.140625 C 14.085938 -19.140625 15.941406 -18.445312 17.359375 -17.0625 C 18.773438 -15.675781 19.484375 -13.679688 19.484375 -11.078125 L 19.484375 0 L 16.390625 0 L 16.390625 -10.625 C 16.390625 -12.5 15.921875 -13.929688 14.984375 -14.921875 C 14.046875 -15.921875 12.765625 -16.421875 11.140625 -16.421875 C 9.492188 -16.421875 8.1875 -15.90625 7.21875 -14.875 C 6.25 -13.851562 5.765625 -12.359375 5.765625 -10.390625 L 5.765625 0 L 2.640625 0 L 2.640625 -18.796875 L 5.765625 -18.796875 L 5.765625 -16.125 C 6.378906 -17.082031 7.21875 -17.820312 8.28125 -18.34375 C 9.34375 -18.875 10.515625 -19.140625 11.796875 -19.140625 Z M 11.796875 -19.140625 "/></g></g></g><g fill="#ececec" fill-opacity="1"><g transform="translate(389.736894, 131.407185)"><g><path d="M 10.390625 -19.109375 C 12.015625 -19.109375 13.4375 -18.753906 14.65625 -18.046875 C 15.882812 -17.335938 16.796875 -16.441406 17.390625 -15.359375 L 17.390625 -18.796875 L 20.546875 -18.796875 L 20.546875 0.40625 C 20.546875 2.125 20.175781 3.648438 19.4375 4.984375 C 18.707031 6.328125 17.660156 7.375 16.296875 8.125 C 14.941406 8.882812 13.363281 9.265625 11.5625 9.265625 C 9.09375 9.265625 7.035156 8.679688 5.390625 7.515625 C 3.742188 6.347656 2.769531 4.757812 2.46875 2.75 L 5.5625 2.75 C 5.90625 3.882812 6.613281 4.800781 7.6875 5.5 C 8.757812 6.195312 10.050781 6.546875 11.5625 6.546875 C 13.269531 6.546875 14.664062 6.007812 15.75 4.9375 C 16.84375 3.863281 17.390625 2.351562 17.390625 0.40625 L 17.390625 -3.53125 C 16.773438 -2.4375 15.859375 -1.519531 14.640625 -0.78125 C 13.429688 -0.0507812 12.015625 0.3125 10.390625 0.3125 C 8.722656 0.3125 7.207031 -0.0976562 5.84375 -0.921875 C 4.488281 -1.742188 3.421875 -2.898438 2.640625 -4.390625 C 1.859375 -5.878906 1.46875 -7.570312 1.46875 -9.46875 C 1.46875 -11.382812 1.859375 -13.066406 2.640625 -14.515625 C 3.421875 -15.972656 4.488281 -17.101562 5.84375 -17.90625 C 7.207031 -18.707031 8.722656 -19.109375 10.390625 -19.109375 Z M 17.390625 -9.4375 C 17.390625 -10.851562 17.101562 -12.085938 16.53125 -13.140625 C 15.957031 -14.191406 15.1875 -14.992188 14.21875 -15.546875 C 13.25 -16.109375 12.179688 -16.390625 11.015625 -16.390625 C 9.847656 -16.390625 8.78125 -16.113281 7.8125 -15.5625 C 6.851562 -15.019531 6.085938 -14.222656 5.515625 -13.171875 C 4.953125 -12.117188 4.671875 -10.882812 4.671875 -9.46875 C 4.671875 -8.03125 4.953125 -6.773438 5.515625 -5.703125 C 6.085938 -4.640625 6.851562 -3.828125 7.8125 -3.265625 C 8.78125 -2.710938 9.847656 -2.4375 11.015625 -2.4375 C 12.179688 -2.4375 13.25 -2.710938 14.21875 -3.265625 C 15.1875 -3.828125 15.957031 -4.640625 16.53125 -5.703125 C 17.101562 -6.773438 17.390625 -8.019531 17.390625 -9.4375 Z M 17.390625 -9.4375 "/></g></g></g><g fill="#ececec" fill-opacity="1"><g transform="translate(451.256731, 131.407177)"><g><path d="M 10.21875 0.234375 C 8.644531 0.234375 7.234375 -0.0390625 5.984375 -0.59375 C 4.734375 -1.15625 3.753906 -1.929688 3.046875 -2.921875 C 2.335938 -3.921875 1.972656 -5.070312 1.953125 -6.375 L 5.28125 -6.375 C 5.394531 -5.257812 5.859375 -4.316406 6.671875 -3.546875 C 7.484375 -2.785156 8.664062 -2.40625 10.21875 -2.40625 C 11.707031 -2.40625 12.878906 -2.773438 13.734375 -3.515625 C 14.585938 -4.253906 15.015625 -5.207031 15.015625 -6.375 C 15.015625 -7.289062 14.765625 -8.035156 14.265625 -8.609375 C 13.765625 -9.179688 13.132812 -9.613281 12.375 -9.90625 C 11.625 -10.207031 10.609375 -10.53125 9.328125 -10.875 C 7.753906 -11.28125 6.488281 -11.6875 5.53125 -12.09375 C 4.582031 -12.507812 3.769531 -13.15625 3.09375 -14.03125 C 2.425781 -14.914062 2.09375 -16.101562 2.09375 -17.59375 C 2.09375 -18.894531 2.421875 -20.046875 3.078125 -21.046875 C 3.742188 -22.054688 4.675781 -22.835938 5.875 -23.390625 C 7.082031 -23.941406 8.460938 -24.21875 10.015625 -24.21875 C 12.253906 -24.21875 14.085938 -23.65625 15.515625 -22.53125 C 16.941406 -21.414062 17.75 -19.929688 17.9375 -18.078125 L 14.5 -18.078125 C 14.394531 -18.992188 13.914062 -19.796875 13.0625 -20.484375 C 12.21875 -21.179688 11.097656 -21.53125 9.703125 -21.53125 C 8.398438 -21.53125 7.335938 -21.191406 6.515625 -20.515625 C 5.691406 -19.847656 5.28125 -18.910156 5.28125 -17.703125 C 5.28125 -16.828125 5.523438 -16.113281 6.015625 -15.5625 C 6.503906 -15.019531 7.109375 -14.601562 7.828125 -14.3125 C 8.554688 -14.03125 9.570312 -13.707031 10.875 -13.34375 C 12.445312 -12.90625 13.710938 -12.472656 14.671875 -12.046875 C 15.640625 -11.628906 16.460938 -10.976562 17.140625 -10.09375 C 17.828125 -9.21875 18.171875 -8.023438 18.171875 -6.515625 C 18.171875 -5.347656 17.863281 -4.25 17.25 -3.21875 C 16.632812 -2.195312 15.71875 -1.363281 14.5 -0.71875 C 13.289062 -0.0820312 11.863281 0.234375 10.21875 0.234375 Z M 10.21875 0.234375 "/></g></g></g><g fill="#ececec" fill-opacity="1"><g transform="translate(471.390489, 131.407177)"><g><path d="M 10.84375 0.3125 C 9.082031 0.3125 7.484375 -0.0859375 6.046875 -0.890625 C 4.617188 -1.691406 3.5 -2.828125 2.6875 -4.296875 C 1.875 -5.773438 1.46875 -7.488281 1.46875 -9.4375 C 1.46875 -11.351562 1.882812 -13.046875 2.71875 -14.515625 C 3.5625 -15.992188 4.703125 -17.128906 6.140625 -17.921875 C 7.578125 -18.710938 9.1875 -19.109375 10.96875 -19.109375 C 12.757812 -19.109375 14.375 -18.710938 15.8125 -17.921875 C 17.25 -17.128906 18.382812 -16 19.21875 -14.53125 C 20.050781 -13.070312 20.46875 -11.375 20.46875 -9.4375 C 20.46875 -7.488281 20.039062 -5.773438 19.1875 -4.296875 C 18.332031 -2.828125 17.171875 -1.691406 15.703125 -0.890625 C 14.242188 -0.0859375 12.625 0.3125 10.84375 0.3125 Z M 10.84375 -2.4375 C 11.957031 -2.4375 13.003906 -2.695312 13.984375 -3.21875 C 14.972656 -3.75 15.769531 -4.539062 16.375 -5.59375 C 16.976562 -6.644531 17.28125 -7.925781 17.28125 -9.4375 C 17.28125 -10.9375 16.984375 -12.210938 16.390625 -13.265625 C 15.796875 -14.316406 15.019531 -15.097656 14.0625 -15.609375 C 13.101562 -16.128906 12.0625 -16.390625 10.9375 -16.390625 C 9.789062 -16.390625 8.742188 -16.128906 7.796875 -15.609375 C 6.847656 -15.097656 6.085938 -14.316406 5.515625 -13.265625 C 4.953125 -12.210938 4.671875 -10.9375 4.671875 -9.4375 C 4.671875 -7.90625 4.945312 -6.613281 5.5 -5.5625 C 6.0625 -4.507812 6.8125 -3.722656 7.75 -3.203125 C 8.6875 -2.691406 9.71875 -2.4375 10.84375 -2.4375 Z M 10.84375 -2.4375 "/></g></g></g><g fill="#ececec" fill-opacity="1"><g transform="translate(493.342118, 131.407177)"><g><path d="M 5.765625 -25.375 L 5.765625 0 L 2.640625 0 L 2.640625 -25.375 Z M 5.765625 -25.375 "/></g></g></g><g fill="#ececec" fill-opacity="1"><g transform="translate(501.77977, 131.407177)"><g><path d="M 19.3125 -18.796875 L 19.3125 0 L 16.1875 0 L 16.1875 -2.78125 C 15.59375 -1.820312 14.765625 -1.070312 13.703125 -0.53125 C 12.640625 0.0078125 11.46875 0.28125 10.1875 0.28125 C 8.71875 0.28125 7.398438 -0.0195312 6.234375 -0.625 C 5.078125 -1.238281 4.160156 -2.148438 3.484375 -3.359375 C 2.804688 -4.566406 2.46875 -6.039062 2.46875 -7.78125 L 2.46875 -18.796875 L 5.5625 -18.796875 L 5.5625 -8.203125 C 5.5625 -6.347656 6.03125 -4.921875 6.96875 -3.921875 C 7.90625 -2.929688 9.179688 -2.4375 10.796875 -2.4375 C 12.472656 -2.4375 13.789062 -2.945312 14.75 -3.96875 C 15.707031 -5 16.1875 -6.5 16.1875 -8.46875 L 16.1875 -18.796875 Z M 19.3125 -18.796875 "/></g></g></g><g fill="#ececec" fill-opacity="1"><g transform="translate(523.731399, 131.407177)"><g><path d="M 6.453125 -16.21875 L 6.453125 -5.140625 C 6.453125 -4.222656 6.644531 -3.578125 7.03125 -3.203125 C 7.414062 -2.828125 8.085938 -2.640625 9.046875 -2.640625 L 11.359375 -2.640625 L 11.359375 0 L 8.546875 0 C 6.804688 0 5.5 -0.398438 4.625 -1.203125 C 3.757812 -2.003906 3.328125 -3.316406 3.328125 -5.140625 L 3.328125 -16.21875 L 0.890625 -16.21875 L 0.890625 -18.796875 L 3.328125 -18.796875 L 3.328125 -23.53125 L 6.453125 -23.53125 L 6.453125 -18.796875 L 11.359375 -18.796875 L 11.359375 -16.21875 Z M 6.453125 -16.21875 "/></g></g></g><g fill="#ececec" fill-opacity="1"><g transform="translate(536.216389, 131.407177)"><g><path d="M 4.25 -21.84375 C 3.65625 -21.84375 3.148438 -22.046875 2.734375 -22.453125 C 2.328125 -22.867188 2.125 -23.375 2.125 -23.96875 C 2.125 -24.5625 2.328125 -25.0625 2.734375 -25.46875 C 3.148438 -25.882812 3.65625 -26.09375 4.25 -26.09375 C 4.820312 -26.09375 5.304688 -25.882812 5.703125 -25.46875 C 6.109375 -25.0625 6.3125 -24.5625 6.3125 -23.96875 C 6.3125 -23.375 6.109375 -22.867188 5.703125 -22.453125 C 5.304688 -22.046875 4.820312 -21.84375 4.25 -21.84375 Z M 5.765625 -18.796875 L 5.765625 0 L 2.640625 0 L 2.640625 -18.796875 Z M 5.765625 -18.796875 "/></g></g></g><g fill="#ececec" fill-opacity="1"><g transform="translate(544.654042, 131.407177)"><g><path d="M 10.84375 0.3125 C 9.082031 0.3125 7.484375 -0.0859375 6.046875 -0.890625 C 4.617188 -1.691406 3.5 -2.828125 2.6875 -4.296875 C 1.875 -5.773438 1.46875 -7.488281 1.46875 -9.4375 C 1.46875 -11.351562 1.882812 -13.046875 2.71875 -14.515625 C 3.5625 -15.992188 4.703125 -17.128906 6.140625 -17.921875 C 7.578125 -18.710938 9.1875 -19.109375 10.96875 -19.109375 C 12.757812 -19.109375 14.375 -18.710938 15.8125 -17.921875 C 17.25 -17.128906 18.382812 -16 19.21875 -14.53125 C 20.050781 -13.070312 20.46875 -11.375 20.46875 -9.4375 C 20.46875 -7.488281 20.039062 -5.773438 19.1875 -4.296875 C 18.332031 -2.828125 17.171875 -1.691406 15.703125 -0.890625 C 14.242188 -0.0859375 12.625 0.3125 10.84375 0.3125 Z M 10.84375 -2.4375 C 11.957031 -2.4375 13.003906 -2.695312 13.984375 -3.21875 C 14.972656 -3.75 15.769531 -4.539062 16.375 -5.59375 C 16.976562 -6.644531 17.28125 -7.925781 17.28125 -9.4375 C 17.28125 -10.9375 16.984375 -12.210938 16.390625 -13.265625 C 15.796875 -14.316406 15.019531 -15.097656 14.0625 -15.609375 C 13.101562 -16.128906 12.0625 -16.390625 10.9375 -16.390625 C 9.789062 -16.390625 8.742188 -16.128906 7.796875 -15.609375 C 6.847656 -15.097656 6.085938 -14.316406 5.515625 -13.265625 C 4.953125 -12.210938 4.671875 -10.9375 4.671875 -9.4375 C 4.671875 -7.90625 4.945312 -6.613281 5.5 -5.5625 C 6.0625 -4.507812 6.8125 -3.722656 7.75 -3.203125 C 8.6875 -2.691406 9.71875 -2.4375 10.84375 -2.4375 Z M 10.84375 -2.4375 "/></g></g></g><g fill="#ececec" fill-opacity="1"><g transform="translate(566.60567, 131.407177)"><g><path d="M 11.796875 -19.140625 C 14.085938 -19.140625 15.941406 -18.445312 17.359375 -17.0625 C 18.773438 -15.675781 19.484375 -13.679688 19.484375 -11.078125 L 19.484375 0 L 16.390625 0 L 16.390625 -10.625 C 16.390625 -12.5 15.921875 -13.929688 14.984375 -14.921875 C 14.046875 -15.921875 12.765625 -16.421875 11.140625 -16.421875 C 9.492188 -16.421875 8.1875 -15.90625 7.21875 -14.875 C 6.25 -13.851562 5.765625 -12.359375 5.765625 -10.390625 L 5.765625 0 L 2.640625 0 L 2.640625 -18.796875 L 5.765625 -18.796875 L 5.765625 -16.125 C 6.378906 -17.082031 7.21875 -17.820312 8.28125 -18.34375 C 9.34375 -18.875 10.515625 -19.140625 11.796875 -19.140625 Z M 11.796875 -19.140625 "/></g></g></g><g fill="#ececec" fill-opacity="1"><g transform="translate(588.557299, 131.407177)"><g><path d="M 9.296875 0.3125 C 7.859375 0.3125 6.566406 0.0664062 5.421875 -0.421875 C 4.273438 -0.921875 3.367188 -1.609375 2.703125 -2.484375 C 2.046875 -3.367188 1.679688 -4.378906 1.609375 -5.515625 L 4.828125 -5.515625 C 4.921875 -4.578125 5.363281 -3.8125 6.15625 -3.21875 C 6.945312 -2.625 7.984375 -2.328125 9.265625 -2.328125 C 10.453125 -2.328125 11.382812 -2.585938 12.0625 -3.109375 C 12.75 -3.640625 13.09375 -4.304688 13.09375 -5.109375 C 13.09375 -5.929688 12.726562 -6.539062 12 -6.9375 C 11.269531 -7.34375 10.140625 -7.738281 8.609375 -8.125 C 7.210938 -8.488281 6.070312 -8.859375 5.1875 -9.234375 C 4.3125 -9.617188 3.554688 -10.179688 2.921875 -10.921875 C 2.296875 -11.660156 1.984375 -12.640625 1.984375 -13.859375 C 1.984375 -14.816406 2.269531 -15.695312 2.84375 -16.5 C 3.414062 -17.300781 4.226562 -17.9375 5.28125 -18.40625 C 6.332031 -18.875 7.535156 -19.109375 8.890625 -19.109375 C 10.960938 -19.109375 12.640625 -18.582031 13.921875 -17.53125 C 15.203125 -16.476562 15.890625 -15.035156 15.984375 -13.203125 L 12.859375 -13.203125 C 12.796875 -14.179688 12.398438 -14.96875 11.671875 -15.5625 C 10.953125 -16.164062 9.988281 -16.46875 8.78125 -16.46875 C 7.65625 -16.46875 6.757812 -16.222656 6.09375 -15.734375 C 5.4375 -15.253906 5.109375 -14.628906 5.109375 -13.859375 C 5.109375 -13.242188 5.304688 -12.734375 5.703125 -12.328125 C 6.109375 -11.929688 6.613281 -11.613281 7.21875 -11.375 C 7.820312 -11.132812 8.660156 -10.863281 9.734375 -10.5625 C 11.085938 -10.195312 12.1875 -9.835938 13.03125 -9.484375 C 13.875 -9.128906 14.597656 -8.597656 15.203125 -7.890625 C 15.816406 -7.179688 16.132812 -6.253906 16.15625 -5.109375 C 16.15625 -4.078125 15.867188 -3.148438 15.296875 -2.328125 C 14.722656 -1.503906 13.914062 -0.859375 12.875 -0.390625 C 11.832031 0.078125 10.640625 0.3125 9.296875 0.3125 Z M 9.296875 0.3125 "/></g></g></g></svg>