<?xml version="1.0" encoding="utf-8"?>
<!-- Generator: Adobe Illustrator 28.1.0, SVG Export Plug-In . SVG Version: 6.00 Build 0)  -->
<svg version="1.1"
	 id="svg2996" xmlns:sodipodi="http://sodipodi.sourceforge.net/DTD/sodipodi-0.dtd" xmlns:svg="http://www.w3.org/2000/svg" xmlns:inkscape="http://www.inkscape.org/namespaces/inkscape" xmlns:cc="http://creativecommons.org/ns#" xmlns:dc="http://purl.org/dc/elements/1.1/" xmlns:rdf="http://www.w3.org/1999/02/22-rdf-syntax-ns#"
	 xmlns="http://www.w3.org/2000/svg" xmlns:xlink="http://www.w3.org/1999/xlink" x="0px" y="0px" viewBox="0 0 744.1 1052.4"
	 style="enable-background:new 0 0 744.1 1052.4;" xml:space="preserve">
<style type="text/css">
	.st0{fill:#FFFFFF;}
</style>
<sodipodi:namedview  bordercolor="#666666" borderopacity="1" gridtolerance="10" guidetolerance="10" id="namedview2998" inkscape:current-layer="g3004" inkscape:cx="369.89412" inkscape:cy="494.2628" inkscape:pageopacity="0" inkscape:pageshadow="2" inkscape:window-height="847" inkscape:window-maximized="1" inkscape:window-width="1600" inkscape:window-x="-8" inkscape:window-y="-8" inkscape:zoom="0.63429577" objecttolerance="10" pagecolor="#ffffff" showgrid="false">
	</sodipodi:namedview>
<g>
	<g>
		<path class="st0" d="M191.5,456.1c-4.1-2.9-9.8-1.9-12.7,2.2c-3.6,5-7.5,8.8-12,11.3c-0.4,0.2-0.8,0.5-1.3,0.7
			c-0.4,0.2-0.8,0.4-1.2,0.6c-4.2,1.9-8.9,3-14.2,3.1c-5.4-0.2-10.1-1.2-14.3-3.1c-5.5-2.6-10.2-6.7-14.4-12.6
			c-2.9-4.1-8.6-5.1-12.7-2.2c-4.1,2.9-5.1,8.6-2.2,12.7c6,8.5,13.3,14.7,21.6,18.6c1.6,0.8,3.3,1.4,5,2
			c-7.1,5.1-14.8,12.3-18.5,22.2c-3.8,10.2-3.8,21.3,0.1,31.2c3.7,9.5,10.7,17.2,19.5,21.7c9.9,5,22.4,5,33.5,0
			c11.7-5.3,19.3-14.9,20.4-25.8c1.1-11.5-4.4-21.7-14-26c-10-4.5-21.3-1.3-28.7,8.2c-3.1,3.9-2.4,9.7,1.5,12.8
			c3.9,3.1,9.7,2.4,12.8-1.5c2.2-2.8,4.8-3.8,7-2.8c1.9,0.9,3.8,3.3,3.4,7.6c-0.4,4.3-4.2,8.5-9.8,11c-6.1,2.7-12.9,2.9-17.8,0.4
			c-4.9-2.5-8.8-6.8-10.9-12.2c-1.6-4-2.9-10.4,0-18.1c2.2-5.8,7.6-11.2,17.1-17.1c4-2.5,8.4-4.9,12.6-7.1c4.8-2.6,9.4-5.1,13.4-7.7
			c7.2-3.9,13.4-9.7,18.7-17.1C196.6,464.7,195.6,459,191.5,456.1z M149.6,464.4c5.6,0,10.9-2.2,14.8-6.1c4-4,6.1-9.2,6.1-14.8
			c0-5.6-2.2-10.9-6.1-14.8c-4-4-9.2-6.1-14.8-6.1c-5.6,0-10.9,2.2-14.8,6.1c-4,4-6.1,9.2-6.1,14.8c0,5.6,2.2,10.9,6.1,14.8
			C138.8,462.2,144,464.4,149.6,464.4z M145.3,439c1.2-1.2,2.7-1.8,4.4-1.8c1.6,0,3.2,0.6,4.4,1.8c1.2,1.2,1.8,2.7,1.8,4.4
			c0,1.6-0.6,3.2-1.8,4.4c-1.2,1.2-2.7,1.8-4.4,1.8c-1.6,0-3.2-0.6-4.4-1.8c-1.2-1.2-1.8-2.7-1.8-4.4
			C143.5,441.7,144.1,440.2,145.3,439z M260.1,466.8c-2-0.6-4.3-0.9-5.8-0.9c-11.3,0-19.2,6.4-19.2,21.8c0,7.4,1.7,13.8,7.1,17.2
			c-3.4,2.8-7.2,7.5-7.3,10.5c-0.1,3,2.5,5.1,6.9,6.4c-4.9,3.2-8.7,7.9-8.7,13.4c0,6,3,13.2,18.6,13.2c15.4,0,22.1-9,22.1-19
			c0-9.1-6.9-12.5-14.3-13.5c-8.7-1.2-14.6-1.5-14.6-3.5c0-1.6,1.5-3.6,3-5.2c1.5,0.3,3.2,0.5,5.2,0.5c13.4,0,18.7-8,18.7-20.2
			c0-5.8-1.7-10.2-4.5-13.1c1.6,0.3,3,0.6,4.3,0.6c2,0,3.2-1.2,3.2-3.7c0-2.1-0.5-3.6-0.9-4.4H260.1z M249,523
			c0.7,0.1,1.4,0.2,2.2,0.2c10.2,0.7,13.2,2.2,13.2,7.4c0,4-3.6,8.9-11.8,8.9c-7.9,0-9.7-2.9-9.7-6.6
			C242.8,529.3,245.6,525.5,249,523z M253.6,500.5c-7.2,0-8.6-5.2-8.6-13.5c0-10.2,3.9-14.1,8.9-14.1c5.6,0,8.4,3.6,8.4,12
			C262.4,494.9,259.7,500.5,253.6,500.5z M305,465.9c-10.8,0-18.5,1.5-20.3,2.8c-0.8,0.6-1,1.7-1,3c0,0.8,0.1,4,1.3,6
			c3.6-1.6,11.1-2.7,16.3-2.7c3.6,0,6.1,1.4,6.1,6.8v9.7c-2.3-1.2-5.9-1.5-8.8-1.5c-7.4,0-15,2.9-15,19c0,17.6,8.1,18.3,16.5,18.2
			c7.5,0,13-1.9,16.1-3.8c0,0,0.7-16.4,0.7-36.7V480C316.9,469.6,312.5,465.9,305,465.9z M307,517.5c-1,1.2-3.9,1.9-6.2,1.9
			c-4.5,0-7.4-0.5-7.4-10.4c0-10.2,3.9-11.8,8.6-11.8c1.6,0,3.9,0.2,5.4,1C307.4,506.5,307,517.5,307,517.5z M365.1,487.2
			c0-16-1.5-21.3-15.5-21.3c-6.2,0-14.6,1.7-19.1,3.8v55.8c9.6,0,9.4,0,9.4-2v-47.2c2.5-1.6,6.1-2.2,8.7-2.2c6.1,0,6.8,3.5,6.8,12.6
			v38.8c9.8,0,9.7,0,9.7-2V487.2z M403.4,444.7v23.5c-2-1.4-4.6-2.3-8.2-2.3c-9.9,0-17.8,9.8-17.8,32.7c0,25.1,7.9,28.6,18.9,28.6
			c7.2,0,12.6-1.2,16.5-3.5v-83.3C405.1,440.4,403.4,440.4,403.4,444.7z M403.4,517c-1.9,1.3-4.3,1.7-6.8,1.7
			c-5.4,0-8.7-2.5-8.7-21.2c0-19,5.1-23.5,10.2-23.5c2.4,0,3.8,0.3,5.3,1.5V517z M427.8,471.9v53.6c9.5,0,9.6,0,9.6-2v-55.9
			C429.7,467.6,427.8,467.6,427.8,471.9z M433,440.8c-3.7,0-5.3,2.8-5.3,6.9c-0.1,5.4,1.7,7.2,4.7,7.3c3.5,0,5.2-2.8,5.3-7.5
			C437.7,442.6,436.5,440.8,433,440.8z M457.6,513.2c-4.2,0-6.5,3.1-6.5,6.7c0,4,1.6,6.6,6.5,6.6c4,0,6.5-3,6.5-6.6
			C464.1,515.9,462.3,513.2,457.6,513.2z M496.4,465.9c-6.2,0-14.6,1.7-19.1,3.8v55.8c9.6,0,9.4,0,9.4-2v-47.2
			c2.5-1.6,6.1-2.2,8.7-2.2c6.1,0,6.8,3.5,6.8,12.6v38.8c9.8,0,9.7,0,9.7-2v-36.3C511.9,471.2,510.4,465.9,496.4,465.9z
			 M559.2,484.9c0-12.4-5-19-14.7-19c-10.3,0-20.5,3.6-20.5,33.7c0,23.6,7.8,27.7,18.5,27.7c8.7,0,16-2.8,16-4.4
			c0-2.5-0.2-6.6-0.8-8.3c-3.9,2.2-8.6,3.6-14.1,3.6c-6.2,0-9.5-2.1-9.8-16.1c5.6,0,16.2-0.2,24.2-1.9
			C558.9,496,559.2,490.1,559.2,484.9z M549.5,493.1c-4,1.2-11.2,1.4-15.7,1.3c0.7-16.1,5-20.2,9.7-20.2c5,0,6.5,3.5,6.6,11.8
			C550.1,488.1,550,491,549.5,493.1z M589.5,519.2c-4.2,0-4.2-4.2-4.2-9.1v-34.4h10c1.9,0,1.9-0.8,1.9-8.1h-11.8v-20.8
			c-7.6,0-9.4,0-9.4,3.2v17.6h-5.9c-2,0-2.1,0.9-2.1,8.1h8V509c0,10.4,0,18.3,11,18.3c4.5,0,10-0.9,10-3.7c0-2.3-0.3-4.9-0.7-6.1
			C593.8,518.5,592.8,519.2,589.5,519.2z"/>
	</g>
</g>
</svg>
