<?xml version="1.0" encoding="UTF-8" standalone="no"?>
<!-- Generator: Adobe Illustrator 28.1.0, SVG Export Plug-In . SVG Version: 6.00 Build 0)  -->

<svg
   version="1.1"
   id="svg2996"
   x="0px"
   y="0px"
   viewBox="0 0 502.60856 156.29171"
   xml:space="preserve"
   sodipodi:docname="gandi-white.svg"
   width="502.60855"
   height="156.29172"
   inkscape:version="1.2.2 (b0a8486, 2022-12-01)"
   xmlns:inkscape="http://www.inkscape.org/namespaces/inkscape"
   xmlns:sodipodi="http://sodipodi.sourceforge.net/DTD/sodipodi-0.dtd"
   xmlns="http://www.w3.org/2000/svg"
   xmlns:svg="http://www.w3.org/2000/svg"><defs
   id="defs2942" />
<style
   type="text/css"
   id="style2932">
	.st0{fill:#FFFFFF;}
</style>
<sodipodi:namedview
   bordercolor="#666666"
   borderopacity="1"
   gridtolerance="10"
   guidetolerance="10"
   id="namedview2998"
   inkscape:current-layer="svg2996"
   inkscape:cx="59.711891"
   inkscape:cy="86.11913"
   inkscape:pageopacity="0"
   inkscape:pageshadow="2"
   inkscape:window-height="979"
   inkscape:window-maximized="0"
   inkscape:window-width="1737"
   inkscape:window-x="0"
   inkscape:window-y="25"
   inkscape:zoom="2.5371831"
   objecttolerance="10"
   pagecolor="#595959"
   showgrid="false"
   inkscape:showpageshadow="2"
   inkscape:pagecheckerboard="0"
   inkscape:deskcolor="#f9a9a9">
	</sodipodi:namedview>
<g
   id="g2939"
   transform="translate(-99.321099,-417.47621)">
	<g
   id="g2937">
		<path
   class="st0"
   d="m 191.5,456.1 c -4.1,-2.9 -9.8,-1.9 -12.7,2.2 -3.6,5 -7.5,8.8 -12,11.3 -0.4,0.2 -0.8,0.5 -1.3,0.7 -0.4,0.2 -0.8,0.4 -1.2,0.6 -4.2,1.9 -8.9,3 -14.2,3.1 -5.4,-0.2 -10.1,-1.2 -14.3,-3.1 -5.5,-2.6 -10.2,-6.7 -14.4,-12.6 -2.9,-4.1 -8.6,-5.1 -12.7,-2.2 -4.1,2.9 -5.1,8.6 -2.2,12.7 6,8.5 13.3,14.7 21.6,18.6 1.6,0.8 3.3,1.4 5,2 -7.1,5.1 -14.8,12.3 -18.5,22.2 -3.8,10.2 -3.8,21.3 0.1,31.2 3.7,9.5 10.7,17.2 19.5,21.7 9.9,5 22.4,5 33.5,0 11.7,-5.3 19.3,-14.9 20.4,-25.8 1.1,-11.5 -4.4,-21.7 -14,-26 -10,-4.5 -21.3,-1.3 -28.7,8.2 -3.1,3.9 -2.4,9.7 1.5,12.8 3.9,3.1 9.7,2.4 12.8,-1.5 2.2,-2.8 4.8,-3.8 7,-2.8 1.9,0.9 3.8,3.3 3.4,7.6 -0.4,4.3 -4.2,8.5 -9.8,11 -6.1,2.7 -12.9,2.9 -17.8,0.4 -4.9,-2.5 -8.8,-6.8 -10.9,-12.2 -1.6,-4 -2.9,-10.4 0,-18.1 2.2,-5.8 7.6,-11.2 17.1,-17.1 4,-2.5 8.4,-4.9 12.6,-7.1 4.8,-2.6 9.4,-5.1 13.4,-7.7 7.2,-3.9 13.4,-9.7 18.7,-17.1 3.2,-4.4 2.2,-10.1 -1.9,-13 z m -41.9,8.3 c 5.6,0 10.9,-2.2 14.8,-6.1 4,-4 6.1,-9.2 6.1,-14.8 0,-5.6 -2.2,-10.9 -6.1,-14.8 -4,-4 -9.2,-6.1 -14.8,-6.1 -5.6,0 -10.9,2.2 -14.8,6.1 -4,4 -6.1,9.2 -6.1,14.8 0,5.6 2.2,10.9 6.1,14.8 4,3.9 9.2,6.1 14.8,6.1 z M 145.3,439 c 1.2,-1.2 2.7,-1.8 4.4,-1.8 1.6,0 3.2,0.6 4.4,1.8 1.2,1.2 1.8,2.7 1.8,4.4 0,1.6 -0.6,3.2 -1.8,4.4 -1.2,1.2 -2.7,1.8 -4.4,1.8 -1.6,0 -3.2,-0.6 -4.4,-1.8 -1.2,-1.2 -1.8,-2.7 -1.8,-4.4 0,-1.7 0.6,-3.2 1.8,-4.4 z m 114.8,27.8 c -2,-0.6 -4.3,-0.9 -5.8,-0.9 -11.3,0 -19.2,6.4 -19.2,21.8 0,7.4 1.7,13.8 7.1,17.2 -3.4,2.8 -7.2,7.5 -7.3,10.5 -0.1,3 2.5,5.1 6.9,6.4 -4.9,3.2 -8.7,7.9 -8.7,13.4 0,6 3,13.2 18.6,13.2 15.4,0 22.1,-9 22.1,-19 0,-9.1 -6.9,-12.5 -14.3,-13.5 -8.7,-1.2 -14.6,-1.5 -14.6,-3.5 0,-1.6 1.5,-3.6 3,-5.2 1.5,0.3 3.2,0.5 5.2,0.5 13.4,0 18.7,-8 18.7,-20.2 0,-5.8 -1.7,-10.2 -4.5,-13.1 1.6,0.3 3,0.6 4.3,0.6 2,0 3.2,-1.2 3.2,-3.7 0,-2.1 -0.5,-3.6 -0.9,-4.4 H 260.1 Z M 249,523 c 0.7,0.1 1.4,0.2 2.2,0.2 10.2,0.7 13.2,2.2 13.2,7.4 0,4 -3.6,8.9 -11.8,8.9 -7.9,0 -9.7,-2.9 -9.7,-6.6 -0.1,-3.6 2.7,-7.4 6.1,-9.9 z m 4.6,-22.5 c -7.2,0 -8.6,-5.2 -8.6,-13.5 0,-10.2 3.9,-14.1 8.9,-14.1 5.6,0 8.4,3.6 8.4,12 0.1,10 -2.6,15.6 -8.7,15.6 z M 305,465.9 c -10.8,0 -18.5,1.5 -20.3,2.8 -0.8,0.6 -1,1.7 -1,3 0,0.8 0.1,4 1.3,6 3.6,-1.6 11.1,-2.7 16.3,-2.7 3.6,0 6.1,1.4 6.1,6.8 v 9.7 c -2.3,-1.2 -5.9,-1.5 -8.8,-1.5 -7.4,0 -15,2.9 -15,19 0,17.6 8.1,18.3 16.5,18.2 7.5,0 13,-1.9 16.1,-3.8 0,0 0.7,-16.4 0.7,-36.7 V 480 c 0,-10.4 -4.4,-14.1 -11.9,-14.1 z m 2,51.6 c -1,1.2 -3.9,1.9 -6.2,1.9 -4.5,0 -7.4,-0.5 -7.4,-10.4 0,-10.2 3.9,-11.8 8.6,-11.8 1.6,0 3.9,0.2 5.4,1 0,8.3 -0.4,19.3 -0.4,19.3 z m 58.1,-30.3 c 0,-16 -1.5,-21.3 -15.5,-21.3 -6.2,0 -14.6,1.7 -19.1,3.8 v 55.8 c 9.6,0 9.4,0 9.4,-2 v -47.2 c 2.5,-1.6 6.1,-2.2 8.7,-2.2 6.1,0 6.8,3.5 6.8,12.6 v 38.8 c 9.8,0 9.7,0 9.7,-2 z m 38.3,-42.5 v 23.5 c -2,-1.4 -4.6,-2.3 -8.2,-2.3 -9.9,0 -17.8,9.8 -17.8,32.7 0,25.1 7.9,28.6 18.9,28.6 7.2,0 12.6,-1.2 16.5,-3.5 v -83.3 c -7.7,0 -9.4,0 -9.4,4.3 z m 0,72.3 c -1.9,1.3 -4.3,1.7 -6.8,1.7 -5.4,0 -8.7,-2.5 -8.7,-21.2 0,-19 5.1,-23.5 10.2,-23.5 2.4,0 3.8,0.3 5.3,1.5 z m 24.4,-45.1 v 53.6 c 9.5,0 9.6,0 9.6,-2 v -55.9 c -7.7,0 -9.6,0 -9.6,4.3 z m 5.2,-31.1 c -3.7,0 -5.3,2.8 -5.3,6.9 -0.1,5.4 1.7,7.2 4.7,7.3 3.5,0 5.2,-2.8 5.3,-7.5 0,-4.9 -1.2,-6.7 -4.7,-6.7 z m 24.6,72.4 c -4.2,0 -6.5,3.1 -6.5,6.7 0,4 1.6,6.6 6.5,6.6 4,0 6.5,-3 6.5,-6.6 0,-4 -1.8,-6.7 -6.5,-6.7 z m 38.8,-47.3 c -6.2,0 -14.6,1.7 -19.1,3.8 v 55.8 c 9.6,0 9.4,0 9.4,-2 v -47.2 c 2.5,-1.6 6.1,-2.2 8.7,-2.2 6.1,0 6.8,3.5 6.8,12.6 v 38.8 c 9.8,0 9.7,0 9.7,-2 v -36.3 c 0,-16 -1.5,-21.3 -15.5,-21.3 z m 62.8,19 c 0,-12.4 -5,-19 -14.7,-19 -10.3,0 -20.5,3.6 -20.5,33.7 0,23.6 7.8,27.7 18.5,27.7 8.7,0 16,-2.8 16,-4.4 0,-2.5 -0.2,-6.6 -0.8,-8.3 -3.9,2.2 -8.6,3.6 -14.1,3.6 -6.2,0 -9.5,-2.1 -9.8,-16.1 5.6,0 16.2,-0.2 24.2,-1.9 0.9,-4.2 1.2,-10.1 1.2,-15.3 z m -9.7,8.2 c -4,1.2 -11.2,1.4 -15.7,1.3 0.7,-16.1 5,-20.2 9.7,-20.2 5,0 6.5,3.5 6.6,11.8 0,2.1 -0.1,5 -0.6,7.1 z m 40,26.1 c -4.2,0 -4.2,-4.2 -4.2,-9.1 v -34.4 h 10 c 1.9,0 1.9,-0.8 1.9,-8.1 h -11.8 v -20.8 c -7.6,0 -9.4,0 -9.4,3.2 v 17.6 h -5.9 c -2,0 -2.1,0.9 -2.1,8.1 h 8 V 509 c 0,10.4 0,18.3 11,18.3 4.5,0 10,-0.9 10,-3.7 0,-2.3 -0.3,-4.9 -0.7,-6.1 -2.5,1 -3.5,1.7 -6.8,1.7 z"
   id="path2935" />
	</g>
</g>
</svg>
