<?xml version="1.0" encoding="UTF-8" standalone="no"?>
<svg
   sodipodi:docname="liberaween.svg"
   inkscape:version="1.3.2 (091e20e, 2023-11-25)"
   inkscape:export-ydpi="96"
   inkscape:export-xdpi="96"
   inkscape:export-filename="liberaween.png"
   id="svg1653"
   version="1.1"
   viewBox="0 0 158.62892 133.48887"
   height="504.52487"
   width="599.54236"
   xmlns:inkscape="http://www.inkscape.org/namespaces/inkscape"
   xmlns:sodipodi="http://sodipodi.sourceforge.net/DTD/sodipodi-0.dtd"
   xmlns:xlink="http://www.w3.org/1999/xlink"
   xmlns="http://www.w3.org/2000/svg"
   xmlns:svg="http://www.w3.org/2000/svg"
   xmlns:rdf="http://www.w3.org/1999/02/22-rdf-syntax-ns#"
   xmlns:cc="http://creativecommons.org/ns#"
   xmlns:dc="http://purl.org/dc/elements/1.1/">
  <defs
     id="defs1647">
    <linearGradient
       id="linearGradient104"
       inkscape:collect="always">
      <stop
         style="stop-color:#f2f2f2;stop-opacity:1;"
         offset="0"
         id="stop104" />
      <stop
         style="stop-color:#d9cfcc;stop-opacity:0.95749438;"
         offset="1"
         id="stop105" />
    </linearGradient>
    <filter
       inkscape:collect="always"
       style="color-interpolation-filters:sRGB"
       id="filter31"
       x="-0.13854983"
       y="-0.32030491"
       width="1.2770997"
       height="1.6406098">
      <feGaussianBlur
         inkscape:collect="always"
         stdDeviation="0.36670707"
         id="feGaussianBlur31" />
    </filter>
    <filter
       inkscape:collect="always"
       style="color-interpolation-filters:sRGB"
       id="filter32"
       x="-0.033854922"
       y="-0.36236853"
       width="1.0677098"
       height="1.7247371">
      <feGaussianBlur
         inkscape:collect="always"
         stdDeviation="0.36670707"
         id="feGaussianBlur32" />
    </filter>
    <filter
       inkscape:collect="always"
       style="color-interpolation-filters:sRGB"
       id="filter33"
       x="-0.16570483"
       y="-0.36949861"
       width="1.3314097"
       height="1.7389972">
      <feGaussianBlur
         inkscape:collect="always"
         stdDeviation="0.36670707"
         id="feGaussianBlur33" />
    </filter>
    <linearGradient
       inkscape:collect="always"
       xlink:href="#linearGradient104"
       id="linearGradient105"
       x1="141.87959"
       y1="94.88279"
       x2="141.88072"
       y2="93.957024"
       gradientUnits="userSpaceOnUse"
       spreadMethod="reflect" />
    <radialGradient
       inkscape:collect="always"
       xlink:href="#linearGradient104"
       id="radialGradient107"
       cx="156.33791"
       cy="-76.685722"
       fx="156.33791"
       fy="-76.685722"
       r="1.8518465"
       gradientTransform="matrix(1.1815604,0.6204809,-0.3469449,0.78458725,-54.990491,-113.36589)"
       gradientUnits="userSpaceOnUse" />
    <radialGradient
       inkscape:collect="always"
       xlink:href="#linearGradient104"
       id="radialGradient108"
       cx="156.28644"
       cy="-76.408699"
       fx="156.28644"
       fy="-76.408699"
       r="1.5578071"
       gradientTransform="matrix(0.52458193,0.50278158,-0.71889066,0.8867086,19.290591,-87.416852)"
       gradientUnits="userSpaceOnUse" />
  </defs>
  <sodipodi:namedview
     inkscape:window-maximized="0"
     inkscape:window-y="25"
     inkscape:window-x="65"
     inkscape:window-height="1027"
     inkscape:window-width="1648"
     units="px"
     showgrid="false"
     inkscape:document-rotation="0"
     inkscape:current-layer="g201"
     inkscape:document-units="mm"
     inkscape:cy="378.65567"
     inkscape:cx="272.41288"
     inkscape:zoom="2.8284272"
     inkscape:pageshadow="2"
     inkscape:pageopacity="0.0"
     borderopacity="1.0"
     bordercolor="#666666"
     pagecolor="#ffffff"
     id="base"
     inkscape:showpageshadow="2"
     inkscape:pagecheckerboard="0"
     inkscape:deskcolor="#d1d1d1"
     showguides="true" />
  <metadata
     id="metadata1650">
    <rdf:RDF>
      <cc:Work
         rdf:about="">
        <dc:format>image/svg+xml</dc:format>
        <dc:type
           rdf:resource="http://purl.org/dc/dcmitype/StillImage" />
      </cc:Work>
    </rdf:RDF>
  </metadata>
  <g
     id="layer1"
     inkscape:groupmode="layer"
     inkscape:label="Layer 1"
     transform="translate(-0.29232455,0.17124014)">
    <path
       d="m 126.28928,75.920239 -21.58214,12.31036 2.59054,4.152718 31.29835,-11.400338 0.004,-0.170015 c 0.002,-0.07046 0.003,-0.140893 0.005,-0.211357 -0.0648,0.004 -0.12981,0.0054 -0.19482,0.0041 -0.34023,-0.03437 -0.5696,-0.263678 -0.86197,-0.432014 -0.40159,0.499664 -0.84876,0.723765 -1.54822,0.654739 -0.44212,-0.04489 -0.97342,-0.220501 -1.2945,-0.49816 -0.41168,0.406455 -0.85761,0.44511 -1.48053,0.383956 -0.69717,-0.07024 -1.09341,-0.330001 -1.38906,-0.896586 -0.32118,0.108451 -0.66575,0.147326 -1.00769,0.113689 -1.20891,-0.1209 -2.24688,-1.153649 -2.18643,-2.279449 -0.15812,0.02009 -0.31813,0.02252 -0.47697,0.0072 -0.95538,-0.09523 -1.72662,-0.810559 -1.87483,-1.738912 z"
       style="fill:#ff1fcf;fill-opacity:1;stroke:none;stroke-width:5.25092;stroke-linecap:square;paint-order:markers fill stroke"
       id="path1"
       sodipodi:nodetypes="ccccccccccccccccc" />
    <g
       id="g99"
       transform="rotate(-25.233894,97.848961,96.835144)">
      <ellipse
         style="opacity:1;fill:#e3dedb;fill-opacity:1;stroke:none;stroke-width:0.0876666;stroke-linecap:round;stroke-linejoin:round;stroke-miterlimit:0;stroke-dasharray:none"
         id="ellipse96"
         cx="134.05338"
         cy="78.530937"
         transform="matrix(0.99170854,0.12850751,-0.21590782,0.97641375,0,0)"
         rx="1.5578071"
         ry="1.2112083" />
      <ellipse
         style="opacity:1;fill:#e3dedb;fill-opacity:1;stroke:none;stroke-width:0.102166;stroke-linecap:round;stroke-linejoin:round;stroke-miterlimit:0;stroke-dasharray:none"
         id="ellipse97"
         cx="134.77415"
         cy="80.302551"
         rx="1.8518465"
         ry="1.5302151"
         transform="matrix(0.99170854,0.12850751,-0.21590782,0.97641375,0,0)" />
      <rect
         style="opacity:1;fill:url(#linearGradient105);fill-opacity:1;stroke:none;stroke-width:0.0940882;stroke-linecap:round;stroke-linejoin:round;stroke-miterlimit:0;stroke-dasharray:none"
         id="rect97"
         width="23.139032"
         height="2.1456194"
         x="120.94163"
         y="93.933777"
         transform="matrix(0.99999996,2.9401637e-4,-0.05442687,0.99851776,0,0)" />
      <ellipse
         style="opacity:1;fill:url(#radialGradient108);fill-opacity:1;stroke:none;stroke-width:0.0876666;stroke-linecap:round;stroke-linejoin:round;stroke-miterlimit:0;stroke-dasharray:none"
         id="ellipse98"
         cx="157.11819"
         cy="-77.548347"
         transform="matrix(0.99170854,0.12850751,0.21590782,-0.97641375,0,0)"
         rx="1.5578071"
         ry="1.2112083" />
      <ellipse
         style="opacity:1;fill:url(#radialGradient107);fill-opacity:1;stroke:none;stroke-width:0.102166;stroke-linecap:round;stroke-linejoin:round;stroke-miterlimit:0;stroke-dasharray:none"
         id="ellipse99"
         cx="157.83897"
         cy="-75.776726"
         rx="1.8518465"
         ry="1.5302151"
         transform="matrix(0.99170854,0.12850751,0.21590782,-0.97641375,0,0)" />
    </g>
    <path
       id="path1605"
       style="fill:#5555ff;fill-opacity:1;stroke:none;stroke-width:5.25092;stroke-linecap:square;paint-order:markers fill stroke"
       d="m 90.551931,21.973145 -6.201171,47.549035 5.019848,-5.874577 0.996839,1.597836 11.134203,-40.087476 c -0.0911,-0.0364 -0.18209,-0.07212 -0.27337,-0.108004 -0.10336,-0.0405 -0.20699,-0.08103 -0.31057,-0.120922 -0.10369,-0.04 -0.20718,-0.07942 -0.3111,-0.118856 -0.10402,-0.0395 -0.20838,-0.07896 -0.31264,-0.117823 -0.10402,-0.0388 -0.20839,-0.07705 -0.31264,-0.115238 -0.10437,-0.0383 -0.208579,-0.07647 -0.313159,-0.114205 -0.10471,-0.0378 -0.20978,-0.07497 -0.31471,-0.112138 -0.104699,-0.037 -0.209282,-0.0741 -0.314192,-0.110587 -0.10504,-0.0365 -0.209977,-0.07259 -0.315227,-0.108521 -0.105209,-0.0358 -0.210839,-0.0712 -0.316259,-0.106453 -0.10537,-0.0354 -0.21068,-0.07062 -0.31626,-0.10542 -0.10572,-0.0348 -0.211383,-0.06911 -0.317293,-0.103353 -0.10571,-0.0341 -0.211901,-0.06823 -0.31781,-0.101803 -0.10604,-0.0337 -0.212087,-0.06673 -0.318327,-0.09973 -0.10622,-0.0329 -0.212444,-0.06537 -0.318844,-0.09767 -0.10638,-0.0323 -0.21279,-0.06442 -0.31936,-0.09612 -0.10656,-0.0318 -0.213147,-0.06388 -0.319877,-0.09508 -0.10672,-0.0311 -0.213504,-0.062 -0.320394,-0.0925 -0.1069,-0.0306 -0.213851,-0.06095 -0.320911,-0.09095 -0.10723,-0.0299 -0.214544,-0.05958 -0.321944,-0.08888 -0.10722,-0.0294 -0.214554,-0.05905 -0.321944,-0.08785 -0.10739,-0.0287 -0.214911,-0.05717 -0.322461,-0.08527 -0.10756,-0.0282 -0.215258,-0.05612 -0.322978,-0.08372 -0.1079,-0.0275 -0.215961,-0.05485 -0.324011,-0.08165 -0.1079,-0.027 -0.215961,-0.0538 -0.324011,-0.0801 -0.10806,-0.0265 -0.216318,-0.05275 -0.324528,-0.07855 -0.10822,-0.0256 -0.216158,-0.05106 -0.324528,-0.07597 -0.10822,-0.0253 -0.216685,-0.05023 -0.325045,-0.07493 -0.10857,-0.0246 -0.217378,-0.04896 -0.326078,-0.07286 -0.10873,-0.0239 -0.217219,-0.0475 -0.326079,-0.0708 -0.108719,-0.0234 -0.217745,-0.04655 -0.326595,-0.06925 -0.1089,-0.0229 -0.217575,-0.0454 -0.326595,-0.0677 -0.10906,-0.0222 -0.218448,-0.04403 -0.327628,-0.06563 -0.10905,-0.0215 -0.217942,-0.04266 -0.327112,-0.06356 z m -22.645646,0.06305 -0.0186,0.0031 c -0.109202,0.0214 -0.21855,0.04311 -0.327629,0.06511 -0.109029,0.0219 -0.217693,0.04468 -0.326595,0.06718 -0.109023,0.0226 -0.218219,0.04553 -0.327112,0.06873 -0.108845,0.0231 -0.217367,0.0471 -0.326078,0.0708 -0.108671,0.0236 -0.217543,0.04763 -0.326078,0.07183 -0.108492,0.0243 -0.216694,0.049 -0.325045,0.0739 -0.108482,0.025 -0.216708,0.05088 -0.325045,0.07648 -0.108308,0.0255 -0.216885,0.05131 -0.325044,0.07751 -0.108133,0.0262 -0.216032,0.0532 -0.324012,0.0801 -0.107955,0.0267 -0.215693,0.05373 -0.323494,0.08113 -0.107776,0.0274 -0.215878,0.0551 -0.323495,0.0832 -0.107598,0.0279 -0.215024,0.05667 -0.322461,0.08527 -0.107596,0.0285 -0.215029,0.0572 -0.322461,0.0863 -0.107242,0.0293 -0.214354,0.05898 -0.321427,0.08888 -0.10724,0.0297 -0.214359,0.05962 -0.321427,0.08992 -0.10706,0.0305 -0.214026,0.06098 -0.320911,0.09198 -0.106715,0.031 -0.213341,0.06245 -0.319877,0.09405 -0.106706,0.0317 -0.213352,0.06392 -0.319877,0.09612 -0.106356,0.0321 -0.212673,0.06445 -0.318844,0.09715 -0.106353,0.0328 -0.21268,0.06582 -0.318843,0.09922 -0.106002,0.0333 -0.212001,0.06683 -0.31781,0.100769 -0.106001,0.034 -0.21149,0.06819 -0.317294,0.102836 -0.105649,0.0346 -0.211325,0.06928 -0.316776,0.104387 -0.105469,0.0353 -0.210994,0.0712 -0.31626,0.10697 -0.105295,0.0357 -0.210652,0.07168 -0.315743,0.108004 -0.105118,0.0362 -0.209801,0.07269 -0.31471,0.109554 -0.104938,0.037 -0.209982,0.0741 -0.314709,0.111621 -0.104591,0.0375 -0.208783,0.07562 -0.313159,0.113688 -0.104585,0.0382 -0.20931,0.0765 -0.313676,0.115239 -0.104234,0.0387 -0.208113,0.07761 -0.312126,0.116788 -0.10389,0.0392 -0.207945,0.07862 -0.311609,0.118339 -0.103881,0.0399 -0.20744,0.08002 -0.311092,0.120406 -0.103532,0.0405 -0.207274,0.08093 -0.310575,0.121957 -0.103355,0.041 -0.206422,0.08244 -0.309542,0.124023 -0.06401,0.0259 -0.127807,0.05183 -0.19172,0.07803 5.681402,18.81312 11.362322,37.626242 17.043405,56.439449 l 0.711067,-0.831991 1.909444,-2.234489 z m 53.066015,15.747359 -24.059,37.954273 2.738334,4.389396 29.117086,-32.978349 c -0.0534,-0.07991 -0.1069,-0.159609 -0.16071,-0.239262 -0.0619,-0.09142 -0.12411,-0.182813 -0.18656,-0.273885 -0.0624,-0.09124 -0.12514,-0.182477 -0.1881,-0.273368 -0.0629,-0.09072 -0.12619,-0.180936 -0.18965,-0.271302 -0.0634,-0.09037 -0.12722,-0.18077 -0.1912,-0.270784 -0.064,-0.09019 -0.12826,-0.179917 -0.19276,-0.269751 -0.0645,-0.08968 -0.12929,-0.179407 -0.1943,-0.268718 -0.065,-0.08932 -0.13033,-0.178208 -0.19585,-0.267167 -0.0655,-0.08897 -0.13085,-0.178045 -0.19689,-0.26665 -0.066,-0.08863 -0.13241,-0.176847 -0.19895,-0.2651 -0.0666,-0.08827 -0.13347,-0.176684 -0.20051,-0.264584 -0.0671,-0.08776 -0.13449,-0.175139 -0.20205,-0.262516 -0.0676,-0.08758 -0.13554,-0.174804 -0.20361,-0.261999 -0.0679,-0.08706 -0.13571,-0.174291 -0.20412,-0.260966 -0.0686,-0.0867 -0.13761,-0.173096 -0.20671,-0.259416 -0.069,-0.08636 -0.1383,-0.172413 -0.20774,-0.258382 -0.0695,-0.086 -0.13882,-0.17173 -0.20877,-0.257349 -0.0702,-0.08565 -0.14072,-0.171053 -0.21136,-0.256315 -0.0705,-0.08513 -0.14142,-0.170024 -0.21239,-0.254765 -0.0709,-0.08478 -0.14159,-0.169341 -0.2129,-0.253731 -0.0715,-0.08444 -0.1435,-0.168663 -0.21549,-0.252698 -0.0721,-0.08391 -0.14404,-0.167635 -0.21653,-0.251147 -0.0724,-0.08357 -0.14523,-0.166953 -0.21807,-0.250114 -0.0729,-0.08322 -0.14576,-0.166272 -0.21911,-0.249081 -0.0734,-0.0827 -0.14731,-0.165246 -0.22118,-0.24753 -0.0737,-0.08252 -0.14749,-0.164905 -0.22169,-0.247013 -0.0742,-0.08182 -0.14852,-0.163535 -0.22324,-0.244946 -0.0747,-0.08165 -0.15009,-0.1632 -0.22531,-0.24443 -0.0753,-0.08114 -0.1506,-0.161652 -0.22634,-0.242362 -0.0758,-0.0806 -0.15165,-0.161149 -0.22789,-0.241329 -0.0761,-0.0802 -0.15287,-0.160456 -0.22945,-0.240296 -0.0765,-0.0798 -0.15303,-0.159265 -0.22996,-0.238745 -0.0771,-0.0793 -0.15443,-0.158761 -0.23202,-0.237711 -0.0775,-0.079 -0.15513,-0.158069 -0.23307,-0.236678 -0.078,-0.0785 -0.15666,-0.156532 -0.23512,-0.234611 -0.0784,-0.0781 -0.15686,-0.156365 -0.23565,-0.234095 -0.0736,-0.0725 -0.14713,-0.144414 -0.22117,-0.216524 z M 37.139688,38.43984 c -0.06436,0.0646 -0.128692,0.129423 -0.192753,0.194303 -0.07771,0.079 -0.155283,0.157775 -0.232544,0.237195 -0.07719,0.0792 -0.154255,0.158638 -0.230994,0.238228 -0.07684,0.0798 -0.153571,0.160036 -0.22996,0.240296 -0.07632,0.0802 -0.152028,0.160729 -0.227893,0.241329 -0.07581,0.0805 -0.151513,0.160903 -0.22686,0.241845 -0.07545,0.08108 -0.150837,0.162463 -0.225826,0.243913 -0.07494,0.08137 -0.149288,0.163163 -0.223759,0.244946 -0.07459,0.08189 -0.149122,0.163677 -0.223242,0.24598 -0.0739,0.08223 -0.14775,0.164893 -0.221175,0.24753 -0.07355,0.08257 -0.146547,0.165069 -0.219625,0.248047 -0.07303,0.08308 -0.146041,0.166625 -0.218591,0.250114 -0.07268,0.08343 -0.144839,0.166804 -0.217041,0.250631 -0.07216,0.08394 -0.144331,0.168359 -0.216008,0.252698 -0.07163,0.08428 -0.142784,0.168538 -0.21394,0.253214 -0.07112,0.08462 -0.142268,0.169234 -0.212907,0.254248 -0.07076,0.08513 -0.141076,0.170789 -0.211356,0.256315 -0.07008,0.08547 -0.140217,0.17097 -0.209807,0.256832 -0.06974,0.08581 -0.139015,0.171665 -0.208256,0.257866 -0.06921,0.08615 -0.13799,0.172876 -0.206706,0.259415 -0.06869,0.08666 -0.137477,0.173401 -0.205672,0.260449 -0.06834,0.08701 -0.136277,0.174093 -0.204122,0.261483 -0.06765,0.08734 -0.134902,0.174793 -0.202054,0.262516 -0.0673,0.0877 -0.134737,0.176002 -0.201539,0.264067 -0.06661,0.08821 -0.132846,0.176528 -0.198954,0.2651 -0.06626,0.08854 -0.132165,0.177221 -0.197921,0.266134 -0.06574,0.08889 -0.131135,0.177917 -0.19637,0.267167 -0.06523,0.08922 -0.130108,0.178613 -0.19482,0.268201 -0.0647,0.08957 -0.129595,0.179309 -0.193787,0.269234 -0.06418,0.08991 -0.128049,0.180007 -0.191719,0.270268 -0.06366,0.09025 -0.127021,0.180699 -0.19017,0.271301 -0.06314,0.09076 -0.125994,0.181741 -0.188619,0.272851 -0.06263,0.09093 -0.124963,0.182092 -0.187068,0.273369 -0.0621,0.09144 -0.123937,0.18313 -0.185519,0.274918 -0.06159,0.09161 -0.122906,0.182967 -0.183968,0.274919 l -0.01137,0.01757 32.529281,35.550285 2.461348,-3.203939 0.114205,0.04909 z M 21.220763,68.357393 c -0.02113,0.106964 -0.04149,0.213832 -0.06201,0.320911 -0.02062,0.108166 -0.04097,0.216248 -0.06098,0.324528 -0.01992,0.108332 -0.03962,0.21712 -0.05891,0.325562 -0.01942,0.108328 -0.03855,0.21661 -0.05736,0.325044 -0.01872,0.108494 -0.03718,0.216965 -0.05529,0.325562 -0.01821,0.108663 -0.03615,0.217314 -0.05374,0.326078 -0.01751,0.108656 -0.03479,0.217327 -0.05168,0.326079 -0.01681,0.108823 -0.03342,0.217679 -0.04961,0.326595 -0.01631,0.10899 -0.03237,0.218029 -0.04806,0.327111 -0.01561,0.108985 -0.03048,0.218041 -0.04547,0.327112 -0.01511,0.108981 -0.02995,0.218048 -0.04444,0.327112 -0.01441,0.109148 -0.02859,0.218403 -0.04237,0.327629 -0.01371,0.109314 -0.02722,0.218755 -0.04031,0.328145 -0.01321,0.109311 -0.02617,0.218763 -0.03876,0.328145 -0.01251,0.109304 -0.0248,0.218257 -0.03669,0.327629 -0.0118,0.109471 -0.02344,0.219127 -0.03462,0.328662 -0.0113,0.109466 -0.02188,0.219135 -0.03256,0.328662 -0.01077,0.109636 -0.02137,0.218968 -0.03152,0.328662 -0.0099,0.109627 -0.01963,0.219499 -0.02894,0.329179 -0.0094,0.109623 -0.0186,0.218989 -0.02739,0.328662 -0.0089,0.109793 -0.01756,0.219858 -0.02584,0.329696 -0.0081,0.109785 -0.01584,0.219352 -0.02325,0.329179 -0.0077,0.10978 -0.01465,0.219874 -0.0217,0.329695 -0.0068,0.109947 -0.01346,0.219714 -0.01964,0.329696 -0.0063,0.109941 -0.01241,0.220238 -0.01809,0.330212 -0.0056,0.109936 -0.01052,0.219731 -0.0155,0.329696 -0.0051,0.109931 -0.01,0.219739 -0.01447,0.329696 -0.0044,0.109926 -0.0086,0.219747 -0.0124,0.329695 -0.0037,0.110091 -0.0073,0.22062 -0.01033,0.330729 -0.0032,0.109914 -0.0062,0.219765 -0.0088,0.329696 -0.0025,0.110082 -0.0043,0.220119 -0.0062,0.330212 -0.0018,0.110075 -0.0035,0.22013 -0.0047,0.330213 -0.0014,0.110073 -0.0023,0.220134 -0.0031,0.330212 -7.57e-4,0.110067 -0.0014,0.220144 -0.0016,0.330213 6.6e-5,0.07917 6.4e-4,0.158015 0.001,0.237195 l 34.664034,13.040547 2.69906,-3.512447 z m 104.605497,7.810893 -21.11912,12.062313 2.59054,4.152718 31.29835,-11.400338 0.004,-0.170015 c 0.002,-0.07046 0.003,-0.140893 0.005,-0.211357 -0.0648,0.004 -0.12981,0.0054 -0.19482,0.0041 -0.34023,-0.03437 -0.66882,-0.139655 -0.96119,-0.307991 -0.40159,0.499664 -1.08027,0.765107 -1.77973,0.696081 -0.44212,-0.04489 -0.85766,-0.220501 -1.17874,-0.49816 -0.41168,0.406455 -1.02298,0.610474 -1.6459,0.54932 -0.69717,-0.07024 -1.30838,-0.462293 -1.60403,-1.028878 -0.32118,0.108451 -0.66575,0.147326 -1.00769,0.113689 -1.20891,-0.1209 -2.11459,-1.104039 -2.05414,-2.229839 -0.15812,0.02009 -0.31813,0.02252 -0.47697,0.0072 -0.95538,-0.09523 -1.72662,-0.810559 -1.87483,-1.738912 z M 47.371105,102.4597 24.914077,102.56926 c 0.03833,0.0885 0.07698,0.17679 0.115756,0.2651 0.04443,0.10106 0.08935,0.20202 0.134358,0.30282 0.04478,0.10071 0.09005,0.20133 0.135393,0.30179 0.04547,0.10036 0.09091,0.20066 0.136942,0.30076 0.04598,0.10035 0.09246,0.20066 0.13901,0.30076 0.04666,0.0998 0.09333,0.19912 0.14056,0.29869 0.04718,0.0998 0.09488,0.19964 0.142627,0.2992 0.04769,0.0993 0.0954,0.19862 0.14366,0.29766 0.04838,0.0991 0.09729,0.19829 0.146244,0.29714 0.04889,0.0989 0.09782,0.19743 0.147278,0.2961 0.04941,0.0986 0.09937,0.19727 0.149345,0.29559 0.04992,0.0984 0.09989,0.19642 0.150379,0.29456 0.05061,0.0981 0.101794,0.19625 0.152962,0.29404 0.05113,0.0977 0.102317,0.19506 0.153996,0.29249 0.05165,0.0975 0.103864,0.19524 0.156062,0.29249 0.05215,0.0972 0.104392,0.19403 0.157097,0.29093 0.05285,0.0969 0.105768,0.19389 0.159163,0.29043 0.05335,0.0967 0.107325,0.19302 0.161231,0.28938 0.05387,0.0963 0.107847,0.19235 0.162264,0.28836 0.05438,0.096 0.108886,0.19166 0.163814,0.28732 0.05507,0.0956 0.110781,0.19149 0.166398,0.2868 0.05541,0.0954 0.110961,0.19064 0.166915,0.28577 0.0561,0.0951 0.112342,0.18996 0.168982,0.28474 0.05661,0.0947 0.113381,0.18928 0.170532,0.2837 0.05713,0.0946 0.114414,0.18894 0.172083,0.28319 0.05764,0.094 0.115975,0.18792 0.174149,0.28164 0.05832,0.0939 0.116838,0.18758 0.1757,0.28112 0.05867,0.0935 0.117533,0.18689 0.176733,0.28008 0.05936,0.0932 0.118914,0.18623 0.178801,0.27906 0.05969,0.0928 0.119609,0.18554 0.179834,0.27802 0.06038,0.0925 0.120993,0.18485 0.181901,0.27698 0.0609,0.0921 0.122027,0.18366 0.183451,0.27544 0.06141,0.0918 0.12307,0.18349 0.185002,0.27492 0.06193,0.0914 0.124108,0.1828 0.186552,0.27388 0.06243,0.0912 0.125144,0.18196 0.188102,0.27285 0.06295,0.0907 0.126186,0.18145 0.189653,0.27182 0.06347,0.0904 0.127222,0.18078 0.191202,0.27078 l 0.01395,0.0191 10.179224,-2.25826 0.202571,-0.26562 -0.241845,0.002 z m 66.477595,0.42427 4.90409,8.1442 9.1457,2.06448 c 0.0227,-0.032 0.0455,-0.0641 0.0682,-0.0961 0.0637,-0.0904 0.12702,-0.18105 0.19017,-0.27182 0.0632,-0.0906 0.12599,-0.18139 0.18862,-0.27233 0.0628,-0.0909 0.12531,-0.18209 0.18759,-0.27337 0.0621,-0.0914 0.12393,-0.18313 0.18551,-0.27492 0.0616,-0.0918 0.1229,-0.18332 0.18397,-0.27544 0.0611,-0.092 0.12188,-0.18417 0.18242,-0.27646 0.0606,-0.0925 0.12086,-0.18522 0.18087,-0.27802 0.0601,-0.0926 0.11982,-0.18557 0.17931,-0.27854 0.0596,-0.0931 0.1188,-0.1861 0.17777,-0.27957 0.0589,-0.0933 0.11777,-0.18696 0.17622,-0.2806 0.0583,-0.0936 0.11639,-0.18767 0.17415,-0.28164 0.0579,-0.0942 0.11571,-0.18818 0.17311,-0.28267 0.0574,-0.0943 0.11416,-0.18904 0.17105,-0.2837 0.0567,-0.0947 0.11331,-0.18923 0.1695,-0.28422 0.0564,-0.095 0.11262,-0.19044 0.16847,-0.28577 0.0557,-0.0952 0.11123,-0.19028 0.16639,-0.28577 0.0552,-0.0957 0.11022,-0.19184 0.16485,-0.28784 0.0546,-0.0959 0.10867,-0.19168 0.16278,-0.28784 0.0541,-0.0962 0.10816,-0.19289 0.16175,-0.28939 0.0534,-0.0965 0.10678,-0.19306 0.15968,-0.2899 0.0531,-0.0969 0.10559,-0.19376 0.15813,-0.29094 0.0524,-0.097 0.10473,-0.19411 0.15658,-0.29146 0.0519,-0.0974 0.1037,-0.19532 0.15503,-0.293 0.0514,-0.0977 0.10215,-0.19551 0.15296,-0.29352 0.0507,-0.0979 0.10129,-0.19586 0.15141,-0.29404 0.0503,-0.0982 0.1001,-0.19656 0.14987,-0.29508 0.0496,-0.0986 0.0992,-0.19725 0.14831,-0.2961 0.049,-0.0988 0.0973,-0.1976 0.14572,-0.29662 0.0486,-0.0991 0.0973,-0.1983 0.14522,-0.29766 0.0479,-0.0994 0.0953,-0.199 0.14262,-0.29869 0.0474,-0.0996 0.0947,-0.19935 0.1416,-0.29921 0.0469,-0.0999 0.0932,-0.20004 0.13952,-0.30024 0.0464,-0.1001 0.0927,-0.20039 0.13849,-0.30075 0.0457,-0.10028 0.0908,-0.20075 0.13591,-0.30128 l 0.002,-0.003 z"
       sodipodi:nodetypes="cccccccsccsccccccccscccccccccccccscccccccccccccccscsccccccccccssccccccsccccccccccccccccccccsscccccccccsccccsccccccccccccccccccscccccccccsscccsccccccscsssccccccccccccccccccccccccccccccccccccccccccccccccccccccccccccccccccccccccccccsccscsccsccccscccccccsssccscccccccccccccscccsscscccccsscccscccccccccccccc" />
    <g
       id="g80">
      <path
         style="opacity:1;fill:none;fill-opacity:1;stroke:#cccccc;stroke-width:0.1;stroke-linecap:round;stroke-linejoin:round;stroke-miterlimit:0;stroke-dasharray:none"
         d="m 101.55893,64.818684 c 0,0 -2.151515,-1.028985 1.30962,-10.476965 3.46115,-9.447977 -1.41451,-29.180157 -1.41451,-29.180157 0.51401,0.599676 -0.32223,15.367115 -1.11119,16.317812 -0.14751,0.177758 3.8821,1.824115 3.69501,6.501332"
         id="path60"
         sodipodi:nodetypes="cscsc" />
      <path
         style="opacity:1;fill:none;fill-opacity:1;stroke:#cccccc;stroke-width:0.1;stroke-linecap:round;stroke-linejoin:round;stroke-miterlimit:0;stroke-dasharray:none"
         d="m 100.36624,41.526148 c 0,0 -2.958335,-1.099146 -2.981715,-2.525698"
         id="path61"
         sodipodi:nodetypes="cc" />
      <path
         style="opacity:1;fill:none;fill-opacity:1;stroke:#cccccc;stroke-width:0.1;stroke-linecap:round;stroke-linejoin:round;stroke-miterlimit:0;stroke-dasharray:none"
         d="m 102.98549,33.083771 c 0,0 -0.25725,3.040189 -1.75396,2.291836 0,0 0,7.296458 0.58465,7.2263 0,0 1.61589,0.491509 2.0112,-1.73057 0.078,-0.438685 0.11434,-1.244863 0.0149,-1.733604 -1.21742,-3.86e-4 -1.59681,-3.259537 -1.535,-3.902442 -0.0662,3.01381 -0.48352,3.8207 -0.98222,4.11595 0.3983,1.365039 0.86704,2.608419 1.94105,2.80633 0.19002,-0.834008 0.36314,-1.803263 0.4911,-3.133735 0,0 -1.47332,1.707184 -1.09914,2.829716 0,0 1.23946,4.045793 0.44433,6.267471"
         id="path62"
         sodipodi:nodetypes="cccsccccc" />
    </g>
    <g
       id="g79">
      <path
         style="opacity:1;fill:none;fill-opacity:1;stroke:#cccccc;stroke-width:0.1;stroke-linecap:round;stroke-linejoin:round;stroke-miterlimit:0;stroke-dasharray:none"
         d="m 29.899107,47.396054 c 0,0 -5.44351,16.516701 -8.717562,21.006831 L 41.63892,60.305172"
         id="path33"
         sodipodi:nodetypes="cc" />
      <path
         style="opacity:1;fill:none;fill-opacity:1;stroke:#cccccc;stroke-width:0.1;stroke-linecap:round;stroke-linejoin:round;stroke-miterlimit:0;stroke-dasharray:none"
         d="m 34.161047,52.07327 -6.363852,1.403165"
         id="path34"
         sodipodi:nodetypes="cc" />
      <path
         style="opacity:1;fill:none;fill-opacity:1;stroke:#cccccc;stroke-width:0.1;stroke-linecap:round;stroke-linejoin:round;stroke-miterlimit:0;stroke-dasharray:none"
         d="m 25.18681,60.199934 4.384891,4.969542"
         id="path35"
         sodipodi:nodetypes="cc" />
      <path
         style="opacity:1;fill:none;fill-opacity:1;stroke:#cccccc;stroke-width:0.1;stroke-linecap:round;stroke-linejoin:round;stroke-miterlimit:0;stroke-dasharray:none"
         d="m 25.210196,60.176548 12.68695,-3.940556 -1.730571,6.220698 -8.380241,-8.955206"
         id="path36"
         sodipodi:nodetypes="cccc" />
      <path
         style="opacity:1;fill:none;fill-opacity:1;stroke:#cccccc;stroke-width:0.1;stroke-linecap:round;stroke-linejoin:round;stroke-miterlimit:0;stroke-dasharray:none"
         d="m 29.571701,65.169476 4.5369,-13.002662"
         id="path37" />
      <path
         style="opacity:1;fill:none;fill-opacity:1;stroke:#cccccc;stroke-width:0.1;stroke-linecap:round;stroke-linejoin:round;stroke-miterlimit:0;stroke-dasharray:none"
         d="m 26.437966,56.984347 10.68744,1.999512"
         id="path38"
         sodipodi:nodetypes="cc" />
      <path
         style="opacity:1;fill:none;fill-opacity:1;stroke:#cccccc;stroke-width:0.1;stroke-linecap:round;stroke-linejoin:round;stroke-miterlimit:0;stroke-dasharray:none"
         d="m 35.792399,53.897385 -8.208515,9.050413"
         id="path39"
         sodipodi:nodetypes="cc" />
      <path
         style="opacity:1;fill:none;fill-opacity:1;stroke:#cccccc;stroke-width:0.1;stroke-linecap:round;stroke-linejoin:round;stroke-miterlimit:0;stroke-dasharray:none"
         d="m 30.941792,52.811108 2.278137,10.814887"
         id="path40"
         sodipodi:nodetypes="cc" />
      <path
         style="opacity:1;fill:none;fill-opacity:1;stroke:#cccccc;stroke-width:0.1;stroke-linecap:round;stroke-linejoin:round;stroke-miterlimit:0;stroke-dasharray:none"
         d="m 32.240762,57.540999 -0.314193,-0.05788 -0.297656,0.14056 -0.19017,0.314193 -0.0083,0.297656 0.124024,0.388607 0.214974,0.190169 0.454752,0.04134 0.438217,-0.181901 0.239778,-0.479557 0.14056,-0.463021 -0.264583,-0.51263 -0.396875,-0.173633 -0.578776,-0.01654 -0.553972,0.140559 -0.355533,0.653191 -0.02479,0.611848 0.181901,0.669727 0.496094,0.37207 0.768945,-0.06615 0.768945,-0.297656 0.289388,-0.851627 0.148829,-0.735873 -0.347266,-0.74414 -0.628385,-0.297657 -0.84336,0.01654 -0.901237,0.272851 -0.51263,0.959115 -0.03307,0.876432 0.330729,1.066602 0.744141,0.504362 1.149284,0.07441 1.050065,-0.578776 0.520898,-1.289844 0.115755,-0.992187 -0.545703,-1.091407 -0.79375,-0.553971 -1.265039,-0.01654 -1.240234,0.471289 -1.000456,1.347721 0.05788,1.339453 0.587044,1.430404 1.078026,0.687631 1.613639,0.04677 1.590254,-0.619731 0.841899,-1.859193 0.105238,-1.531789 -0.912059,-1.555173 -1.15761,-0.549574 -1.765649,-0.05846 -1.789036,0.549574 -1.192689,1.92935 0.04677,1.859195 0.724969,2.034587 1.449937,1.005602 2.326916,-0.01169 2.139825,-0.99391 1.192692,-2.455537 0.01169,-2.057977 -1.27454,-2.011201 -1.555176,-0.771742 -2.291837,-0.03508 -2.280142,0.771739 -1.520094,2.478926 0.04677,2.338607 1.087453,2.432153 1.695493,1.485017 3.028496,0.198782 c -0.558971,3.254259 -1.543962,6.082496 -1.676912,9.762776 -0.01429,5.03007 1.810878,7.797349 -0.06042,15.148675"
         id="path41"
         sodipodi:nodetypes="cccccccccccccccccccccccccccccccccccccccccccccccccccccccccccccccccccccc" />
    </g>
    <g
       id="g201">
      <path
         style="opacity:1;fill:none;fill-opacity:1;stroke:#6c5353;stroke-width:0.1;stroke-linecap:round;stroke-linejoin:round;stroke-miterlimit:0;stroke-dasharray:none"
         d="m 30.904708,88.78942 -0.491109,-0.865286 1.262849,-0.327403"
         id="path82"
         sodipodi:nodetypes="ccc" />
      <path
         style="opacity:1;fill:none;fill-opacity:1;stroke:#6c5353;stroke-width:0.1;stroke-linecap:round;stroke-linejoin:round;stroke-miterlimit:0;stroke-dasharray:none"
         d="m 31.980467,88.742649 0.561266,-0.374179 -0.818512,-0.912055 v 0"
         id="path83" />
      <path
         style="opacity:1;fill:none;fill-opacity:1;stroke:#6c5353;stroke-width:0.1;stroke-linecap:round;stroke-linejoin:round;stroke-miterlimit:0;stroke-dasharray:none"
         d="m 30.530529,89.023282 -0.561266,-0.444336 -0.912055,0.397563"
         id="path84" />
      <path
         style="opacity:1;fill:none;fill-opacity:1;stroke:#6c5353;stroke-width:0.1;stroke-linecap:round;stroke-linejoin:round;stroke-miterlimit:0;stroke-dasharray:none"
         d="m 30.296669,89.584548 h -0.888671 l -0.818513,0.841899"
         id="path85" />
      <path
         style="opacity:1;fill:none;fill-opacity:1;stroke:#6c5353;stroke-width:0.1;stroke-linecap:round;stroke-linejoin:round;stroke-miterlimit:0;stroke-dasharray:none"
         d="m 30.296669,90.332901 -0.724968,0.397566 -0.42095,0.912055 v 0"
         id="path86" />
      <path
         style="opacity:1;fill:none;fill-opacity:1;stroke:#6c5353;stroke-width:0.1;stroke-linecap:round;stroke-linejoin:round;stroke-miterlimit:0;stroke-dasharray:none"
         d="m 32.214908,89.235555 0.664866,-0.265344 0.760342,0.641701"
         id="path87" />
      <path
         style="opacity:1;fill:none;fill-opacity:1;stroke:#6c5353;stroke-width:0.1;stroke-linecap:round;stroke-linejoin:round;stroke-miterlimit:0;stroke-dasharray:none"
         d="m 32.278559,89.840252 0.851585,0.254044 0.543682,1.040754"
         id="path88" />
      <path
         style="opacity:1;fill:none;fill-opacity:1;stroke:#6c5353;stroke-width:0.1;stroke-linecap:round;stroke-linejoin:round;stroke-miterlimit:0;stroke-dasharray:none"
         d="m 32.064627,90.557375 0.581062,0.588222 0.142654,0.99433 v 0"
         id="path89" />
      <ellipse
         style="opacity:1;fill:#483737;fill-opacity:1;stroke:none;stroke-width:0.1;stroke-linecap:round;stroke-linejoin:round;stroke-miterlimit:0;stroke-dasharray:none"
         id="path81"
         cx="50.044739"
         cy="80.930443"
         rx="1.0406806"
         ry="1.3446997"
         transform="rotate(12.517833)" />
      <g
         id="g1613"
         transform="translate(-12.315849,139.80253)">
        <path
           id="path1607"
           style="color:#000000;font-style:normal;font-variant:normal;font-weight:normal;font-stretch:normal;font-size:medium;line-height:normal;font-family:sans-serif;font-variant-ligatures:normal;font-variant-position:normal;font-variant-caps:normal;font-variant-numeric:normal;font-variant-alternates:normal;font-variant-east-asian:normal;font-feature-settings:normal;font-variation-settings:normal;text-indent:0;text-align:start;text-decoration:none;text-decoration-line:none;text-decoration-style:solid;text-decoration-color:#000000;letter-spacing:normal;word-spacing:normal;text-transform:none;writing-mode:lr-tb;direction:ltr;text-orientation:mixed;dominant-baseline:auto;baseline-shift:baseline;text-anchor:start;white-space:normal;shape-padding:0;shape-margin:0;inline-size:0;clip-rule:nonzero;display:inline;overflow:visible;visibility:visible;isolation:auto;mix-blend-mode:normal;color-interpolation:sRGB;color-interpolation-filters:linearRGB;solid-color:#000000;solid-opacity:1;vector-effect:none;fill:#ff55dd;fill-opacity:1;fill-rule:nonzero;stroke:none;stroke-width:1.85208;stroke-linecap:butt;stroke-linejoin:miter;stroke-miterlimit:4;stroke-dasharray:none;stroke-dashoffset:0;stroke-opacity:1;color-rendering:auto;image-rendering:auto;shape-rendering:auto;text-rendering:auto;enable-background:accumulate;stop-color:#000000"
           d="m 102.39588,-77.658908 -17.248028,19.701121 -7.896674,-3.488158 -25.660795,32.989694 2.234647,0.0024 c 0,0 15.978831,-20.428082 24.000278,-30.714711 l 7.818634,3.455085 16.482188,-18.826239 c 9.12684,15.528388 18.96625,30.475004 27.92916,46.099147 l 2.22718,-0.01328 z"
           sodipodi:nodetypes="ccccccccccc" />
        <path
           id="path1609"
           style="color:#000000;font-style:normal;font-variant:normal;font-weight:normal;font-stretch:normal;font-size:medium;line-height:normal;font-family:sans-serif;font-variant-ligatures:normal;font-variant-position:normal;font-variant-caps:normal;font-variant-numeric:normal;font-variant-alternates:normal;font-variant-east-asian:normal;font-feature-settings:normal;font-variation-settings:normal;text-indent:0;text-align:start;text-decoration:none;text-decoration-line:none;text-decoration-style:solid;text-decoration-color:#000000;letter-spacing:normal;word-spacing:normal;text-transform:none;writing-mode:lr-tb;direction:ltr;text-orientation:mixed;dominant-baseline:auto;baseline-shift:baseline;text-anchor:start;white-space:normal;shape-padding:0;shape-margin:0;inline-size:0;clip-rule:nonzero;display:inline;overflow:visible;visibility:visible;isolation:auto;mix-blend-mode:normal;color-interpolation:sRGB;color-interpolation-filters:linearRGB;solid-color:#000000;solid-opacity:1;vector-effect:none;fill:#ff55dd;fill-opacity:1;fill-rule:nonzero;stroke:none;stroke-width:1.85208;stroke-linecap:butt;stroke-linejoin:miter;stroke-miterlimit:4;stroke-dasharray:none;stroke-dashoffset:0;stroke-opacity:1;color-rendering:auto;image-rendering:auto;shape-rendering:auto;text-rendering:auto;enable-background:accumulate;stop-color:#000000"
           d="m 102.08686,-71.768312 -16.019168,18.367354 -7.826384,-3.24993 -22.134558,28.177606 2.445387,0.01543 20.277241,-25.943047 7.759734,3.220477 15.220758,-17.4532 23.9383,40.241267 2.37016,-0.04577 z"
           sodipodi:nodetypes="ccccccccccc" />
        <path
           style="fill:#ff55dd;fill-opacity:1;stroke:#ff00ff;stroke-width:0;stroke-linecap:butt;stroke-linejoin:miter;stroke-miterlimit:4;stroke-dasharray:none;stroke-opacity:1"
           d="m 60.940237,-28.48946 18.484348,-23.562098 7.918257,3.21897 14.376178,-16.516461 21.58906,36.885389 z"
           id="path1611"
           sodipodi:nodetypes="cccccc" />
      </g>
      <path
         id="path18"
         style="fill:#ff1fcf;stroke-width:2.16416;stroke-linecap:round;stroke-linejoin:round;stroke-miterlimit:0"
         d="m 90.440084,91.915417 a 4.118998,3.6327198 28.574956 0 1 0.0037,5.273561 4.118998,3.6327198 28.574956 0 1 -5.675162,-0.554591 4.118998,3.6327198 28.574956 0 1 -0.0037,-5.273568 4.118998,3.6327198 28.574956 0 1 5.67517,0.554598 z" />
      <ellipse
         style="fill:#ff1fcf;fill-opacity:1;stroke:none;stroke-width:2.65047;stroke-linecap:round;stroke-linejoin:round;stroke-miterlimit:0"
         id="path17"
         cx="98.431419"
         cy="69.262169"
         rx="3.3159602"
         ry="3.7477868"
         transform="matrix(0.95026648,0.31143797,-0.31776589,0.9481692,0,0)" />
      <ellipse
         style="fill:#ff9955;fill-opacity:1;stroke:none;stroke-width:2.44773;stroke-linecap:round;stroke-linejoin:round;stroke-miterlimit:0"
         id="ellipse18"
         cx="98.658852"
         cy="68.707657"
         rx="3.0486269"
         ry="3.476625"
         transform="rotate(18.336035)" />
      <ellipse
         style="fill:#ff9955;fill-opacity:1;stroke:none;stroke-width:2.08593;stroke-linecap:round;stroke-linejoin:round;stroke-miterlimit:0"
         id="ellipse19"
         cx="2.6833889"
         cy="128.76106"
         rx="3.5026402"
         ry="3.9316981"
         transform="rotate(-42.000032)" />
      <path
         style="fill:#ff1fcf;fill-opacity:1;stroke:none;stroke-width:2.45532;stroke-linecap:round;stroke-linejoin:round;stroke-miterlimit:0"
         d="m 65.725281,101.92823 c -0.750836,0.85852 10.690414,13.89127 28.707749,0.95024 -0.02653,-0.0331 1.589513,-1.20893 1.569386,-1.22209 -0.382429,0.10716 -0.763779,0.20912 -1.144081,0.30622 -0.08078,0.0206 -0.457604,0.79149 -0.53829,0.81168 -0.440393,0.11007 -0.583312,0.14793 -1.020958,0.24514 -0.118867,0.0264 -0.237633,-0.63242 -0.356301,-0.60694 -0.37898,0.0814 -0.756952,0.15796 -1.133947,0.22998 -0.166524,0.0318 -0.332859,1.14214 -0.499004,1.17217 -0.400417,0.0723 -0.789873,-0.10157 -1.188145,-0.0392 -0.151609,0.0236 -0.312936,-0.79149 -0.464243,-0.76911 -0.467823,0.069 -0.934208,0.13116 -1.399215,0.18691 -0.102794,0.0129 -0.205398,1.3937 -0.307998,1.40539 -0.68847,0.0784 -1.216029,0.27438 -1.898702,0.32566 -0.129414,0.0105 -0.416639,-1.48199 -0.545851,-1.4732 -0.940095,0.0639 -1.87494,0.10331 -2.805061,0.12059 -0.07228,0.001 -0.282705,2.58784 -0.354928,2.58891 -0.613746,0.009 -1.130571,0.40397 -1.697088,0.15309 -0.07585,-0.0337 -0.09246,-2.74024 -0.138682,-2.74103 -0.752691,-0.013 -1.546447,-0.36081 -2.249762,-0.0778 -0.140348,0.0564 -0.164845,1.98443 -0.257918,2.04036 -0.190915,0.11473 -0.953198,-0.23403 -1.438121,-0.27065 -0.111785,-0.009 -0.25967,-1.83931 -0.354921,-1.90468 -0.600412,-0.41207 -1.584638,-0.20298 -1.631694,-0.14731 -0.08092,0.0958 0.06227,2.28408 -0.0803,2.34086 -0.553837,0.22059 -1.170394,-0.12667 -1.75377,-0.19834 -0.06843,-0.009 -0.25534,-2.37753 -0.323699,-2.38652 -0.602312,-0.0793 -1.139863,-0.34061 -1.807396,-0.24293 -0.03722,0.005 -0.07454,0.9996 -0.111798,0.99422 -0.272534,-0.0394 -0.7263,0.0133 -0.998411,-0.0279 -0.02848,-0.004 0.124492,-1.11198 0.09603,-1.11631 -0.355944,-0.0542 -0.711541,-0.11007 -1.066825,-0.16732 -0.06578,-0.0105 0.008,0.83399 -0.05772,0.8233 -0.298945,-0.0487 -0.737248,-0.26877 -1.035776,-0.31934 -0.04022,-0.007 -0.08044,-0.69833 -0.120665,-0.70517 -0.531212,-0.0903 -1.061803,-0.1835 -1.591885,-0.27893 z"
         id="path19"
         sodipodi:nodetypes="cccsssssssssssssssssssssssssssssssscc" />
      <path
         style="fill:#ff9955;fill-opacity:1;stroke:none;stroke-width:2.45532;stroke-linecap:round;stroke-linejoin:round;stroke-miterlimit:0"
         d="m 66.676127,102.11014 c -0.446764,1.13626 13.001873,13.22698 29.319257,-0.44901 -0.476053,0.13622 -0.481309,0.13744 -0.954062,0.25813 -0.08078,0.0206 -0.457603,0.7915 -0.53829,0.81169 -0.440392,0.11007 -0.766297,0.19127 -1.203943,0.28848 -0.118866,0.0264 -0.237635,-0.63243 -0.356301,-0.60694 -0.321067,0.069 -0.56583,0.11916 -0.88364,0.18963 -0.05733,0.0127 -0.3446,0.98751 -0.357907,1.04811 -0.0061,0.0273 -0.118765,0.1613 -0.391404,0.16445 -0.406875,0.005 -0.789872,-0.10157 -1.188145,-0.0393 -0.151609,0.0237 -0.312935,-0.79149 -0.464243,-0.7691 -0.467823,0.069 -0.598643,0.0769 -1.06365,0.13262 -0.102793,0.0129 -0.106695,1.2062 -0.209301,1.21788 -0.04583,0.005 -0.353274,0.21837 -0.399209,0.22484 -0.643977,0.0907 -1.296535,0.29475 -1.933755,0.34261 -0.129473,0.009 -0.416639,-1.48198 -0.545851,-1.4732 -0.940095,0.0639 -1.411069,0.0885 -2.341191,0.10577 -0.07227,0.001 -0.322183,2.22264 -0.394406,2.22374 -0.09195,0.001 -0.311847,0.3287 -0.411426,0.34638 -0.565099,0.10029 -1.22841,0.39997 -1.710054,0.18669 -0.07587,-0.0337 -0.09246,-2.74025 -0.138682,-2.74104 -0.752691,-0.0131 -1.225904,-0.38655 -1.881065,-0.17097 -0.14367,0.0473 -0.112473,1.87665 -0.205538,1.93259 -0.04242,0.0255 -0.346025,0.22544 -0.450775,0.21396 -0.36661,-0.0402 -1.031265,-0.2552 -1.408422,-0.28368 -0.111856,-0.008 -0.259671,-1.83931 -0.354921,-1.90467 -0.600413,-0.41208 -0.961529,-0.25859 -1.038193,-0.25228 -0.124909,0.0105 -0.0069,2.11355 -0.149491,2.17034 -0.0344,0.0137 -0.470457,0.25152 -0.506205,0.26142 -0.539879,0.14918 -1.224731,-0.11707 -1.771873,-0.18427 -0.06855,-0.008 -0.25534,-2.37752 -0.323699,-2.38652 -0.602312,-0.0793 -0.805297,-0.30725 -1.241692,-0.27699 -0.03741,0.002 -0.04663,0.88446 -0.08389,0.87907 -0.03525,-0.005 -0.543615,0.13709 -0.587798,0.13488 -0.297449,-0.0156 -0.76731,0.0224 -1.004233,-0.0135 -0.02836,-0.005 0.124492,-1.11198 0.09603,-1.11631 -0.355944,-0.0542 -0.166813,-0.0538 -0.522195,-0.11054 -0.0511,-0.008 -0.02842,0.40193 -0.04191,0.62397 -0.0038,0.0638 -0.545756,0.14491 -0.560434,0.14247 -0.298957,-0.0486 -0.737249,-0.26877 -1.035777,-0.31934 -0.04022,-0.007 -0.08044,-0.69833 -0.120665,-0.70517 -1.012544,-0.17212 0.302222,0.0868 -0.641051,-0.0969 z"
         id="path20"
         sodipodi:nodetypes="ccccsssssssssssssssssssssssssssssssssssssc" />
      <path
         id="ellipse20"
         style="fill:#ff1fcf;fill-opacity:1;stroke:none;stroke-width:1.52457;stroke-linecap:round;stroke-linejoin:round;stroke-miterlimit:0"
         d="m 72.292056,92.889497 c -0.315637,0.0013 -0.633026,0.05057 -0.942302,0.146268 -0.437012,0.38089 -0.687461,0.927197 -0.688212,1.501203 -1.93e-4,1.110229 0.915638,2.010366 2.045482,2.010432 1.130094,2.81e-4 2.046315,-0.899958 2.046122,-2.010432 -3.44e-4,-0.145787 -0.01683,-0.104015 -0.04916,-0.246298 -0.364769,-0.672167 -0.898208,-1.0761 -1.500276,-1.264536 -0.292671,-0.09149 -0.599666,-0.137505 -0.911657,-0.136637 z"
         sodipodi:nodetypes="sccccccs" />
      <ellipse
         style="fill:#ff55dd;fill-opacity:1;stroke:none;stroke-width:1.56206;stroke-linecap:round;stroke-linejoin:round;stroke-miterlimit:0"
         id="ellipse21"
         cx="72.283585"
         cy="94.394203"
         rx="2.0351243"
         ry="2.121021" />
      <path
         id="ellipse22"
         style="fill:#ff1fcf;fill-opacity:1;stroke:none;stroke-width:1.97565;stroke-linecap:round;stroke-linejoin:round;stroke-miterlimit:0"
         d="m 88.070211,90.149797 c -0.946262,-0.03416 -1.834591,0.257331 -2.502132,0.821028 -0.305502,0.261938 -0.556853,0.575604 -0.743773,0.928169 -0.002,0.02225 -0.0037,0.04452 -0.0051,0.06681 -5e-6,1.445044 1.181417,2.616506 2.638822,2.616573 1.457404,-6.9e-5 2.744062,-1.113065 2.744057,-2.558108 -5.9e-5,-0.51505 -0.06572,-0.854925 -0.353175,-1.283928 -0.55561,-0.292208 -1.241434,-0.569586 -1.778666,-0.590547 z"
         sodipodi:nodetypes="sccccccss" />
      <ellipse
         style="fill:#ff55dd;fill-opacity:1;stroke:none;stroke-width:1.91544;stroke-linecap:round;stroke-linejoin:round;stroke-miterlimit:0"
         id="ellipse23"
         cx="87.026978"
         cy="91.878647"
         rx="2.3893063"
         ry="2.7164087" />
      <path
         id="ellipse26"
         style="opacity:0.259459;fill:#ffeeaa;fill-opacity:1;stroke:none;stroke-width:1.39562;stroke-linecap:round;stroke-linejoin:round;stroke-miterlimit:0;filter:url(#filter33)"
         d="m 69.927907,117.83709 a 2.6585076,1.2960843 2.8880706 0 1 -1.186491,-0.71753 2.6585076,1.2960843 2.8880706 0 1 1.545125,-1.61261 2.6585076,1.2960843 2.8880706 0 1 3.423562,0.88645 2.6585076,1.2960843 2.8880706 0 1 -0.532784,1.31742 1.7471913,0.80316444 0 0 0 0.06925,-0.22274 1.7471913,0.80316444 0 0 0 -1.747178,-0.80323 1.7471913,0.80316444 0 0 0 -1.747181,0.80323 1.7471913,0.80316444 0 0 0 0.1757,0.34896 z"
         transform="matrix(1.1647976,0,0,2.0907067,-10.492586,-121.08254)" />
      <path
         id="ellipse27"
         style="opacity:0.259459;fill:#ffeeaa;fill-opacity:1;stroke:none;stroke-width:1.18933;stroke-linecap:round;stroke-linejoin:round;stroke-miterlimit:0;filter:url(#filter31)"
         d="m 85.808075,118.98084 a 2.0512631,1.0286192 0 0 0 0.339515,-0.56662 2.0512631,1.0286192 0 0 0 -2.051035,-1.02866 2.0512631,1.0286192 0 0 0 -2.030372,0.88345 1.406774,3.1824414 86.3647 0 1 0.761712,-1.50502 1.406774,3.1824414 86.3647 0 1 4.493264,-0.21885 1.406774,3.1824414 86.3647 0 1 -0.02377,1.99393 1.406774,3.1824414 86.3647 0 1 -1.489317,0.44172 z"
         transform="matrix(1.1647976,0,0,2.0907067,-10.492586,-121.08254)" />
      <path
         style="opacity:0.259459;fill:#ffeeaa;fill-opacity:1;stroke:none;stroke-width:1.39996;stroke-linecap:round;stroke-linejoin:round;stroke-miterlimit:0;filter:url(#filter32)"
         d="m 65.808605,114.60871 c -0.383555,-0.43028 11.978664,-5.07755 25.987435,0.10113 -0.4087,-0.0516 -0.413212,-0.0521 -0.819079,-0.0978 -0.06935,-0.008 -0.392861,-0.29973 -0.462132,-0.30738 -0.378085,-0.0417 -0.65788,-0.0724 -1.033607,-0.10916 -0.102049,-0.0104 -0.204014,0.23958 -0.305891,0.22973 -0.275642,-0.0262 -0.485775,-0.0451 -0.758621,-0.0718 -0.04922,-0.005 -0.295845,-0.37394 -0.30727,-0.39689 -0.0052,-0.0104 -0.101962,-0.0611 -0.336027,-0.0622 -0.34931,-0.002 -0.67812,0.0384 -1.020044,0.0156 -0.130159,-0.008 -0.268661,0.29972 -0.398561,0.29124 -0.401635,-0.0262 -0.513946,-0.029 -0.913163,-0.0503 -0.08825,-0.005 -0.0916,-0.45676 -0.179689,-0.46117 -0.03935,-0.002 -0.303292,-0.0827 -0.342728,-0.0851 -0.552866,-0.0342 -1.113099,-0.1115 -1.660164,-0.12965 -0.111155,-0.003 -0.357692,0.56118 -0.468623,0.55786 -0.807089,-0.0233 -1.211429,-0.0335 -2.009955,-0.0401 -0.06205,-4.4e-4 -0.2766,-0.84164 -0.338605,-0.84205 -0.07894,-4.4e-4 -0.267726,-0.12447 -0.353217,-0.13121 -0.485148,-0.0379 -1.054612,-0.15143 -1.468112,-0.0708 -0.06514,0.013 -0.07938,1.03764 -0.119061,1.03795 -0.646199,0.005 -1.052461,0.14625 -1.614929,0.0648 -0.123343,-0.0181 -0.09656,-0.71064 -0.176458,-0.73183 -0.03642,-0.0104 -0.297069,-0.0853 -0.386999,-0.0809 -0.314741,0.0156 -0.885359,0.0967 -1.209156,0.10735 -0.09603,0.003 -0.222932,0.6965 -0.304706,0.72125 -0.515465,0.15609 -0.82549,0.098 -0.891307,0.0954 -0.107237,-0.005 -0.0059,-0.80033 -0.128341,-0.82183 -0.02953,-0.005 -0.403896,-0.0952 -0.434586,-0.0991 -0.463496,-0.0565 -1.051454,0.0443 -1.521186,0.0698 -0.05885,0.003 -0.219214,0.90029 -0.277901,0.90372 -0.517096,0.03 -0.691362,0.11642 -1.066015,0.10476 -0.03212,-8.4e-4 -0.04003,-0.33494 -0.07202,-0.33289 -0.03026,0.002 -0.466703,-0.0519 -0.504635,-0.0511 -0.255365,0.005 -0.65875,-0.008 -0.862152,0.005 -0.02435,0.002 0.106878,0.42105 0.08244,0.42271 -0.305585,0.0207 -0.143212,0.0207 -0.448314,0.0417 -0.04387,0.003 -0.0244,-0.15221 -0.03598,-0.23623 -0.0033,-0.0233 -0.468541,-0.055 -0.481143,-0.054 -0.25666,0.0182 -0.632941,0.10164 -0.889233,0.12083 -0.03453,0.003 -0.06906,0.26443 -0.103593,0.26702 -0.456055,0.0342 -0.911577,0.0695 -1.366662,0.10554 z"
         id="path31"
         sodipodi:nodetypes="ccccssssssssssssssssssssssssssssssssssssscc"
         transform="matrix(1.1647976,0,0,2.0907067,-10.492586,-121.08254)" />
      <ellipse
         style="opacity:1;fill:#483737;fill-opacity:1;stroke:none;stroke-width:0.1;stroke-linecap:round;stroke-linejoin:round;stroke-miterlimit:0;stroke-dasharray:none"
         id="path80"
         cx="31.103491"
         cy="91.256653"
         rx="0.61973119"
         ry="0.549573" />
      <ellipse
         style="opacity:1;fill:#aa4400;fill-opacity:1;stroke:#552200;stroke-width:0.1;stroke-linecap:round;stroke-linejoin:round;stroke-miterlimit:0;stroke-dasharray:none"
         id="ellipse92"
         cx="31.693989"
         cy="91.136803"
         rx="0.22216779"
         ry="0.20755149" />
      <ellipse
         style="opacity:1;fill:#aa4400;fill-opacity:1;stroke:#552200;stroke-width:0.1;stroke-linecap:round;stroke-linejoin:round;stroke-miterlimit:0;stroke-dasharray:none"
         id="path90"
         cx="30.542223"
         cy="91.084183"
         rx="0.22216779"
         ry="0.20755149" />
      <ellipse
         style="opacity:1;fill:#aa4400;fill-opacity:1;stroke:#552200;stroke-width:0.1;stroke-linecap:round;stroke-linejoin:round;stroke-miterlimit:0;stroke-dasharray:none"
         id="ellipse90"
         cx="30.875475"
         cy="91.253731"
         rx="0.22216779"
         ry="0.20755149" />
      <ellipse
         style="opacity:1;fill:#aa4400;fill-opacity:1;stroke:#552200;stroke-width:0.1;stroke-linecap:round;stroke-linejoin:round;stroke-miterlimit:0;stroke-dasharray:none"
         id="ellipse91"
         cx="31.319811"
         cy="91.259575"
         rx="0.22216779"
         ry="0.20755149" />
    </g>
    <path
       style="opacity:1;fill:none;fill-opacity:1;stroke:#552200;stroke-width:0.1;stroke-linecap:round;stroke-linejoin:round;stroke-miterlimit:0;stroke-dasharray:none"
       d="m 30.869697,91.688622 -0.103058,0.118856 0.125408,0.061"
       id="path92"
       sodipodi:nodetypes="ccc" />
    <path
       style="opacity:1;fill:none;fill-opacity:1;stroke:#552200;stroke-width:0.1;stroke-linecap:round;stroke-linejoin:round;stroke-miterlimit:0;stroke-dasharray:none"
       d="m 31.059403,91.8978 0.15438,-0.03024 -0.06129,-0.125264"
       id="path93"
       sodipodi:nodetypes="ccc" />
    <g
       id="g56"
       transform="matrix(0.8317675,-0.30890647,0.15922595,1.6136714,4.4719334,-11.80929)">
      <path
         id="path2"
         style="fill:#ff1fcf;stroke-width:0.1;stroke-linecap:round;stroke-linejoin:round;stroke-miterlimit:0"
         d="m 66.967325,36.804281 c -0.710994,0.144489 -0.102678,0.538387 -0.198438,0.79375 -0.170011,0.453365 -0.365999,0.837811 -0.463021,1.322916 -0.10564,0.528198 -0.111008,1.062938 -0.198437,1.5875 -0.03342,0.200512 -0.103543,0.394076 -0.132292,0.595313 -0.08227,0.575878 0,1.645784 0,2.248958 0,0.935537 -0.07164,1.912955 0,2.844271 0.007,0.09064 0.05917,0.173942 0.06615,0.264583 0.01521,0.197852 -0.01238,0.397262 0,0.595313 0.05772,0.923472 0.114696,1.856953 0.198437,2.778125 0.01479,0.162679 -0.02344,0.365038 0,0.529167 0.06194,0.433545 0.06295,0.850307 0.198438,1.25677 0.01984,0.05953 -0.01984,0.138907 0,0.198438 0.04697,0.14091 0.264583,0.686589 0.264583,0.79375 l 0.120406,-2.825667 c 2.8e-5,-1.08e-4 -2.8e-5,-4.09e-4 0,-5.17e-4 0.0069,-0.02676 0.0152,-0.06398 0.02584,-0.122473 0.02638,-0.145074 0.0078,-0.300101 -0.001,-0.452686 l 0.01189,-0.279053 c 0.0052,-0.02095 0.01045,-0.04213 0.0124,-0.06356 0.004,-0.04418 -0.0022,-0.08883 -0.0041,-0.133325 l 0.0026,-0.06098 c 7.63e-4,-0.0053 3.83e-4,-0.01076 0.0016,-0.01602 0.01069,-0.04813 0.03793,-0.09158 0.04702,-0.140043 0.01449,-0.077 0.0088,-0.157094 0.02326,-0.234094 0.0091,-0.04846 0.03892,-0.09193 0.04703,-0.14056 0.0077,-0.04614 -0.0042,-0.09346 0,-0.140043 0.01565,-0.172061 0.07075,-0.343958 0.09353,-0.514697 0.01736,-0.130242 -0.0163,-0.266982 0,-0.397392 0.02544,-0.203525 0.04996,-0.405101 0.07028,-0.608232 0.01447,-0.144598 0,-0.298678 0,-0.4439 0,-0.136303 0.01405,-0.25958 0.02325,-0.397909 0.0078,-0.116285 -0.0097,-0.234757 0,-0.350883 0.02209,-0.265012 0.04819,-0.529515 0.07028,-0.794783 0.01807,-0.216683 -0.01548,-0.437888 0,-0.654741 0.0023,-0.03205 0.02115,-0.06146 0.02325,-0.09353 0.01143,-0.171294 0.01545,-0.3432 0.02325,-0.514697 0.01733,-0.381166 -0.01815,-0.765062 0,-1.146184 0.0045,-0.09376 0.01545,-0.187063 0.02325,-0.280603 0.0078,-0.04678 0.02097,-0.09271 0.02377,-0.140043 0.01559,-0.264308 0.01125,-0.530767 0.02325,-0.7953 0.0089,-0.195305 0.05707,-0.387608 0.04651,-0.584461 0.01225,-0.294305 0,-0.594255 0,-0.888834 v -3.376538 c 0.01933,-0.20755 -0.364082,0.626679 -0.442867,0.782898 z"
         sodipodi:nodetypes="csssssccsscssccsscccccscssccssscccscssccscscc" />
      <path
         id="path21"
         style="fill:#ff1fcf;fill-opacity:1;stroke-width:0.054038;stroke-linecap:round;stroke-linejoin:round;stroke-miterlimit:0"
         d="m 65.946135,36.716526 a 0.08935977,0.08935977 0 0 1 -0.08936,0.08936 0.08935977,0.08935977 0 0 1 -0.08936,-0.08936 0.08935977,0.08935977 0 0 1 0.08936,-0.08936 0.08935977,0.08935977 0 0 1 0.08936,0.08936 z" />
      <path
         id="path22"
         style="fill:#ff1fcf;fill-opacity:1;stroke-width:0.054038;stroke-linecap:round;stroke-linejoin:round;stroke-miterlimit:0"
         d="m 68.436753,38.57572 a 0.08935977,0.08935977 0 0 1 -0.08936,0.08936 0.08935977,0.08935977 0 0 1 -0.08936,-0.08936 0.08935977,0.08935977 0 0 1 0.08936,-0.08936 0.08935977,0.08935977 0 0 1 0.08936,0.08936 z" />
      <path
         id="path23"
         style="fill:#ff1fcf;fill-opacity:1;stroke-width:0.054038;stroke-linecap:round;stroke-linejoin:round;stroke-miterlimit:0"
         d="m 65.969521,38.236622 a 0.08935977,0.08935977 0 0 1 -0.08936,0.08936 0.08935977,0.08935977 0 0 1 -0.08936,-0.08936 0.08935977,0.08935977 0 0 1 0.08936,-0.08936 0.08935977,0.08935977 0 0 1 0.08936,0.08936 z" />
      <path
         id="path24"
         style="fill:#ff1fcf;fill-opacity:1;stroke-width:0.054038;stroke-linecap:round;stroke-linejoin:round;stroke-miterlimit:0"
         d="m 68.167813,39.242224 a 0.08935977,0.08935977 0 0 1 -0.08936,0.08936 0.08935977,0.08935977 0 0 1 -0.08936,-0.08936 0.08935977,0.08935977 0 0 1 0.08936,-0.08936 0.08935977,0.08935977 0 0 1 0.08936,0.08936 z" />
      <path
         id="path25"
         style="fill:#ff1fcf;fill-opacity:1;stroke-width:0.054038;stroke-linecap:round;stroke-linejoin:round;stroke-miterlimit:0"
         d="m 65.607037,39.335768 a 0.08935977,0.08935977 0 0 1 -0.08936,0.08936 0.08935977,0.08935977 0 0 1 -0.08936,-0.08936 0.08935977,0.08935977 0 0 1 0.08936,-0.08936 0.08935977,0.08935977 0 0 1 0.08936,0.08936 z" />
      <path
         id="path26"
         style="fill:#ff1fcf;fill-opacity:1;stroke-width:0.054038;stroke-linecap:round;stroke-linejoin:round;stroke-miterlimit:0"
         d="m 67.723478,40.832477 a 0.08935977,0.08935977 0 0 1 -0.08936,0.08936 0.08935977,0.08935977 0 0 1 -0.08936,-0.08936 0.08935977,0.08935977 0 0 1 0.08936,-0.08936 0.08935977,0.08935977 0 0 1 0.08936,0.08936 z" />
      <path
         id="path27"
         style="fill:#ff1fcf;fill-opacity:1;stroke-width:0.054038;stroke-linecap:round;stroke-linejoin:round;stroke-miterlimit:0"
         d="m 65.408256,40.657081 a 0.08935977,0.08935977 0 0 1 -0.08936,0.08936 0.08935977,0.08935977 0 0 1 -0.08936,-0.08936 0.08935977,0.08935977 0 0 1 0.08936,-0.08936 0.08935977,0.08935977 0 0 1 0.08936,0.08936 z" />
      <path
         id="path28"
         style="fill:#ff1fcf;fill-opacity:1;stroke-width:0.054038;stroke-linecap:round;stroke-linejoin:round;stroke-miterlimit:0"
         d="m 68.074269,42.177176 a 0.08935977,0.08935977 0 0 1 -0.08936,0.08936 0.08935977,0.08935977 0 0 1 -0.08936,-0.08936 0.08935977,0.08935977 0 0 1 0.08936,-0.08936 0.08935977,0.08935977 0 0 1 0.08936,0.08936 z" />
      <path
         id="path29"
         style="fill:#ff1fcf;fill-opacity:1;stroke-width:0.054038;stroke-linecap:round;stroke-linejoin:round;stroke-miterlimit:0"
         d="m 68.004111,42.995689 a 0.08935977,0.08935977 0 0 1 -0.08936,0.08936 0.08935977,0.08935977 0 0 1 -0.08936,-0.08936 0.08935977,0.08935977 0 0 1 0.08936,-0.08936 0.08935977,0.08935977 0 0 1 0.08936,0.08936 z" />
      <path
         id="path30"
         style="fill:#ff1fcf;fill-opacity:1;stroke-width:0.054038;stroke-linecap:round;stroke-linejoin:round;stroke-miterlimit:0"
         d="m 65.373177,42.247334 a 0.08935977,0.08935977 0 0 1 -0.08936,0.08936 0.08935977,0.08935977 0 0 1 -0.08936,-0.08936 0.08935977,0.08935977 0 0 1 0.08936,-0.08936 0.08935977,0.08935977 0 0 1 0.08936,0.08936 z" />
      <path
         id="path32"
         style="fill:#ff1fcf;fill-opacity:1;stroke-width:0.054038;stroke-linecap:round;stroke-linejoin:round;stroke-miterlimit:0"
         d="m 65.548573,43.428331 a 0.08935977,0.08935977 0 0 1 -0.08936,0.08936 0.08935977,0.08935977 0 0 1 -0.08936,-0.08936 0.08935977,0.08935977 0 0 1 0.08936,-0.08936 0.08935977,0.08935977 0 0 1 0.08936,0.08936 z" />
      <path
         id="path42"
         style="fill:#ff1fcf;fill-opacity:1;stroke-width:0.054038;stroke-linecap:round;stroke-linejoin:round;stroke-miterlimit:0"
         d="m 67.758558,44.00129 a 0.08935977,0.08935977 0 0 1 -0.08936,0.08936 0.08935977,0.08935977 0 0 1 -0.08936,-0.08936 0.08935977,0.08935977 0 0 1 0.08936,-0.08936 0.08935977,0.08935977 0 0 1 0.08936,0.08936 z" />
      <path
         id="path43"
         style="fill:#ff1fcf;fill-opacity:1;stroke-width:0.054038;stroke-linecap:round;stroke-linejoin:round;stroke-miterlimit:0"
         d="m 67.781944,45.427841 a 0.08935977,0.08935977 0 0 1 -0.08936,0.08936 0.08935977,0.08935977 0 0 1 -0.08936,-0.08936 0.08935977,0.08935977 0 0 1 0.08936,-0.08936 0.08935977,0.08935977 0 0 1 0.08936,0.08936 z" />
      <path
         id="path44"
         style="fill:#ff1fcf;fill-opacity:1;stroke-width:0.054038;stroke-linecap:round;stroke-linejoin:round;stroke-miterlimit:0"
         d="m 67.641628,46.597145 a 0.08935977,0.08935977 0 0 1 -0.08936,0.08936 0.08935977,0.08935977 0 0 1 -0.08936,-0.08936 0.08935977,0.08935977 0 0 1 0.08936,-0.08936 0.08935977,0.08935977 0 0 1 0.08936,0.08936 z" />
      <path
         id="path45"
         style="fill:#ff1fcf;fill-opacity:1;stroke-width:0.054038;stroke-linecap:round;stroke-linejoin:round;stroke-miterlimit:0"
         d="m 65.455029,44.246844 a 0.08935977,0.08935977 0 0 1 -0.08936,0.08936 0.08935977,0.08935977 0 0 1 -0.08936,-0.08936 0.08935977,0.08935977 0 0 1 0.08936,-0.08936 0.08935977,0.08935977 0 0 1 0.08936,0.08936 z" />
      <path
         id="path46"
         style="fill:#ff1fcf;fill-opacity:1;stroke-width:0.054038;stroke-linecap:round;stroke-linejoin:round;stroke-miterlimit:0"
         d="m 65.583652,45.474613 a 0.08935977,0.08935977 0 0 1 -0.08936,0.08936 0.08935977,0.08935977 0 0 1 -0.08936,-0.08936 0.08935977,0.08935977 0 0 1 0.08936,-0.08936 0.08935977,0.08935977 0 0 1 0.08936,0.08936 z" />
      <path
         id="path47"
         style="fill:#ff1fcf;fill-opacity:1;stroke-width:0.054038;stroke-linecap:round;stroke-linejoin:round;stroke-miterlimit:0"
         d="m 65.65381,46.80762 a 0.08935977,0.08935977 0 0 1 -0.08936,0.08936 0.08935977,0.08935977 0 0 1 -0.08936,-0.08936 0.08935977,0.08935977 0 0 1 0.08936,-0.08936 0.08935977,0.08935977 0 0 1 0.08936,0.08936 z" />
      <path
         id="path48"
         style="fill:#ff1fcf;fill-opacity:1;stroke-width:0.054038;stroke-linecap:round;stroke-linejoin:round;stroke-miterlimit:0"
         d="m 67.360994,47.544282 a 0.08935977,0.08935977 0 0 1 -0.08936,0.08936 0.08935977,0.08935977 0 0 1 -0.08936,-0.08936 0.08935977,0.08935977 0 0 1 0.08936,-0.08936 0.08935977,0.08935977 0 0 1 0.08936,0.08936 z" />
      <path
         id="path49"
         style="fill:#ff1fcf;fill-opacity:1;stroke-width:0.054038;stroke-linecap:round;stroke-linejoin:round;stroke-miterlimit:0"
         d="m 67.26745,48.503111 a 0.08935977,0.08935977 0 0 1 -0.08936,0.08936 0.08935977,0.08935977 0 0 1 -0.08936,-0.08936 0.08935977,0.08935977 0 0 1 0.08936,-0.08936 0.08935977,0.08935977 0 0 1 0.08936,0.08936 z" />
      <path
         id="path50"
         style="fill:#ff1fcf;fill-opacity:1;stroke-width:0.054038;stroke-linecap:round;stroke-linejoin:round;stroke-miterlimit:0"
         d="m 65.759048,47.953538 a 0.08935977,0.08935977 0 0 1 -0.08936,0.08936 0.08935977,0.08935977 0 0 1 -0.08936,-0.08936 0.08935977,0.08935977 0 0 1 0.08936,-0.08936 0.08935977,0.08935977 0 0 1 0.08936,0.08936 z" />
      <path
         id="path51"
         style="fill:#ff1fcf;fill-opacity:1;stroke-width:0.054038;stroke-linecap:round;stroke-linejoin:round;stroke-miterlimit:0"
         d="m 65.583652,48.42126 a 0.08935977,0.08935977 0 0 1 -0.08936,0.08936 0.08935977,0.08935977 0 0 1 -0.08936,-0.08936 0.08935977,0.08935977 0 0 1 0.08936,-0.08936 0.08935977,0.08935977 0 0 1 0.08936,0.08936 z" />
      <path
         id="path52"
         style="fill:#ff1fcf;fill-opacity:1;stroke-width:0.054038;stroke-linecap:round;stroke-linejoin:round;stroke-miterlimit:0"
         d="m 67.41946,49.590564 a 0.08935977,0.08935977 0 0 1 -0.08936,0.08936 0.08935977,0.08935977 0 0 1 -0.08936,-0.08936 0.08935977,0.08935977 0 0 1 0.08936,-0.08936 0.08935977,0.08935977 0 0 1 0.08936,0.08936 z" />
      <path
         id="path53"
         style="fill:#ff1fcf;fill-opacity:1;stroke-width:0.054038;stroke-linecap:round;stroke-linejoin:round;stroke-miterlimit:0"
         d="m 67.360995,50.724789 a 0.08935977,0.08935977 0 0 1 -0.08936,0.08936 0.08935977,0.08935977 0 0 1 -0.08936,-0.08936 0.08935977,0.08935977 0 0 1 0.08936,-0.08936 0.08935977,0.08935977 0 0 1 0.08936,0.08936 z" />
      <path
         id="path54"
         style="fill:#ff1fcf;fill-opacity:1;stroke-width:0.054038;stroke-linecap:round;stroke-linejoin:round;stroke-miterlimit:0"
         d="m 66.027988,49.906276 a 0.08935977,0.08935977 0 0 1 -0.08936,0.08936 0.08935977,0.08935977 0 0 1 -0.08936,-0.08936 0.08935977,0.08935977 0 0 1 0.08936,-0.08936 0.08935977,0.08935977 0 0 1 0.08936,0.08936 z" />
      <path
         id="path55"
         style="fill:#ff1fcf;fill-opacity:1;stroke-width:0.054038;stroke-linecap:round;stroke-linejoin:round;stroke-miterlimit:0"
         d="m 66.133225,51.180818 a 0.08935977,0.08935977 0 0 1 -0.08936,0.08936 0.08935977,0.08935977 0 0 1 -0.08936,-0.08936 0.08935977,0.08935977 0 0 1 0.08936,-0.08936 0.08935977,0.08935977 0 0 1 0.08936,0.08936 z" />
      <path
         id="path56"
         style="fill:#ff1fcf;fill-opacity:1;stroke-width:0.054038;stroke-linecap:round;stroke-linejoin:round;stroke-miterlimit:0"
         d="m 67.279143,51.777163 a 0.08935977,0.08935977 0 0 1 -0.08936,0.08936 0.08935977,0.08935977 0 0 1 -0.08936,-0.08936 0.08935977,0.08935977 0 0 1 0.08936,-0.08936 0.08935977,0.08935977 0 0 1 0.08936,0.08936 z" />
      <path
         style="fill:#ff6600;stroke:#cccccc;stroke-width:0.1;stroke-linecap:round;stroke-linejoin:round;stroke-miterlimit:0"
         d="m 65.908988,36.738134 2.414323,1.819011"
         id="path4" />
      <path
         style="fill:#ff6600;stroke:#cccccc;stroke-width:0.1;stroke-linecap:round;stroke-linejoin:round;stroke-miterlimit:0"
         d="m 65.975134,38.259489 2.083593,0.992187"
         id="path5" />
      <path
         style="fill:#ff6600;stroke:#cccccc;stroke-width:0.1;stroke-linecap:round;stroke-linejoin:round;stroke-miterlimit:0"
         d="m 65.512113,39.350895 2.116666,1.488281"
         id="path6" />
      <path
         style="fill:#ff6600;stroke:#cccccc;stroke-width:0.1;stroke-linecap:round;stroke-linejoin:round;stroke-miterlimit:0"
         d="m 65.346748,40.640739 2.645833,1.521354"
         id="path7" />
      <path
         style="fill:#ff6600;stroke:#cccccc;stroke-width:0.1;stroke-linecap:round;stroke-linejoin:round;stroke-miterlimit:0"
         d="m 65.313675,42.228238 2.579688,0.760678"
         id="path8" />
      <path
         style="fill:#ff6600;stroke:#cccccc;stroke-width:0.1;stroke-linecap:round;stroke-linejoin:round;stroke-miterlimit:0"
         d="m 65.47904,43.418863 2.149739,0.56224"
         id="path9" />
      <path
         style="fill:#ff6600;stroke:#cccccc;stroke-width:0.1;stroke-linecap:round;stroke-linejoin:round;stroke-miterlimit:0"
         d="m 65.412894,44.245686 2.282031,1.190625"
         id="path10" />
      <path
         style="fill:#ff6600;stroke:#cccccc;stroke-width:0.1;stroke-linecap:round;stroke-linejoin:round;stroke-miterlimit:0"
         d="m 65.47904,45.469384 2.017448,1.091407"
         id="path11" />
      <path
         style="fill:#ff6600;stroke:#cccccc;stroke-width:0.1;stroke-linecap:round;stroke-linejoin:round;stroke-miterlimit:0"
         d="m 65.611331,46.792301 1.653646,0.760677"
         id="path12" />
      <path
         style="fill:#ff6600;stroke:#cccccc;stroke-width:0.1;stroke-linecap:round;stroke-linejoin:round;stroke-miterlimit:0"
         d="m 65.677477,47.949853 1.521354,0.529167"
         id="path13" />
      <path
         style="fill:#ff6600;stroke:#cccccc;stroke-width:0.1;stroke-linecap:round;stroke-linejoin:round;stroke-miterlimit:0"
         d="m 65.512113,48.445947 1.81901,1.124479"
         id="path14" />
      <path
         style="fill:#ff6600;stroke:#cccccc;stroke-width:0.1;stroke-linecap:round;stroke-linejoin:round;stroke-miterlimit:0"
         d="m 65.975134,49.901155 1.25677,0.79375"
         id="path15" />
      <path
         style="fill:#ff6600;stroke:#cccccc;stroke-width:0.1;stroke-linecap:round;stroke-linejoin:round;stroke-miterlimit:0"
         d="m 66.041279,51.190999 1.12448,0.595312"
         id="path16" />
    </g>
  </g>
</svg>
