<svg viewBox="0 0 506.9 131.5" xmlns="http://www.w3.org/2000/svg"><path d="M109.7 58.2l-18.3-10-15.3 9.3-.2 9.6-7.5-5-10.2 6.3-.4-10.5-10.5-7 10-5.2L56 11.4 32.2 0 0 10l7.2 34.6L18 53l-8.2 3.9L15 83l7.6 7-5.4 3.4 4.2 20.2 17 17.9 21.7-17.3-.6-13.7 8.6 7.2c.1 0 1.9-1.3 17.6-13.8l.6-10.2 6.5 4.5L107 77z" fill="#231f20"/><path d="M94.5 69l15.2-10.8-18.3-10-15.3 9.3z"/><path d="M92.9 88.2L94.5 69 76.1 57.5l-.4 18.8zM68.2 107.7V87.8L49.6 73.7 51 93.2z" fill="#004b16"/><path d="M68.2 87.8L87 74.4 68.4 62.2 49.6 73.7z"/><path d="M38.4 131.5l-3-20.3-18.1-17.8 4.2 20.1z" fill="#004b16"/><path d="M35.5 111.2L59.4 94l-18.6-15-23.5 14.3z"/><path d="M33.9 100.6l-4-26.9L9.8 57l5.4 26z" fill="#004b16"/><path d="M30 73.7L57.8 58 37 43.9 9.7 57z"/><path d="M28 60.9L22.8 24 0 10l7.2 34.5z" fill="#004b16"/><path d="M22.7 24l33.1-12.6L32.2 0 0 10z"/><g fill="#1cb35c"><path d="M107.1 76.9L93 88.2 94.5 69l15.1-10.8zM85.8 93.8l-17.6 14c-.2-20.9 0-20 0-20L87 74.4zM60.2 114.2l-21.8 17.3c-3-21-3-20.3-3-20.3l24-17.1zM55.8 11.4l1.5 34.3L28 61 22.7 24zM57.8 57.9L59 83.8l-25 16.8c-4-27.6-4-26.9-4-26.9z"/></g><path d="M151.6 14.2l16.6-4v80q0 13 7.8 15.6-3.8 7.3-13.1 7.3-11.3 0-11.3-15.7zM186.7 111.7V54.3h-9.1V40.7h25.8v71zm8.5-98.5a9.6 9.6 0 11-9.6 9.6 9.6 9.6 0 019.6-9.6zM263 111.7v-41c0-6-1.2-10.5-3.5-13.3s-6.2-4.2-11.4-4.2a17.7 17.7 0 00-7.8 2.1 18 18 0 00-6.5 5.1v51.3h-16.6v-71h12l3 6.7q6.7-8 20-8 12.6 0 20 7.6t7.3 21.2v43.5zM288.4 76q0-16.2 9.4-26.4t24.8-10.2q16.2 0 25.1 9.8t9 26.9q0 17-9.1 27t-25 10q-16.2 0-25.2-10.2t-9-26.8zm17.3 0q0 23.5 16.9 23.5a14.5 14.5 0 0012.3-6q4.5-6.2 4.5-17.4 0-23.2-16.8-23.2a14.6 14.6 0 00-12.4 6.1q-4.5 6.1-4.5 17zM412.4 111.7v-4.3a17 17 0 01-7 4 31.3 31.3 0 01-10.2 1.7q-14.8 0-23.4-9.5t-8.5-26.2q0-16.9 9.8-27.4a32 32 0 0124.5-10.6 32.4 32.4 0 0114.7 3.3V14.2l16.6-4v101.5zm0-54a17.6 17.6 0 00-11.1-4.3q-10 0-15.3 6.1T380.6 77q0 22.2 21.4 22.2a16.1 16.1 0 005.8-1.5c2.4-1 3.9-1.9 4.6-2.8zM505.6 81.3h-50.8q.5 8.5 5.8 13.2t14.5 4.7q11.3 0 17.2-5.9l6.5 12.7q-8.8 7-26.2 7.1-16.2 0-25.7-9.5T437.6 77q0-16.8 10.4-27.2a34 34 0 0124.9-10.4q15.4 0 24.8 9.2t9.3 23.5a46.3 46.3 0 01-1.3 9.2zm-50.2-12.5h34.9q-1.7-15.5-17.2-15.6-14.3 0-17.7 15.6z"/></svg>