<svg width="1501" height="690" viewBox="0 0 1501 690" fill="none" xmlns="http://www.w3.org/2000/svg">
<g clip-path="url(#clip0)">
<path d="M1417.7 313.381C1434.17 322.893 1435.95 338.664 1435.95 345C1435.95 351.336 1434.17 367.107 1417.7 376.619L996.16 619.967C990.42 623.281 984.309 624.961 978.008 624.961C960.396 624.961 941.386 610.962 941.386 588.347V301.161L1082.4 382.567L1223.37 300.945V463.631L1288.41 426.089L1288.36 263.911L1222.85 226.087L1082.35 307.44L941.637 226.207L876.337 263.911V588.351C876.337 644.403 921.946 690.004 978.004 690.004C995.62 690.004 1013.15 685.263 1028.68 676.294L1450.22 432.947C1482.01 414.592 1501 381.713 1501 345C1501 308.287 1482.01 275.411 1450.22 257.053L1028.68 13.7095C1013.15 4.74397 995.623 0 978.004 0C921.946 0 876.337 45.6007 876.337 101.653V238.854L941.383 201.311V101.653C941.383 79.0379 960.389 65.0389 978.004 65.0389C984.309 65.0389 990.416 66.7191 996.156 70.0335L1417.7 313.381Z" fill="#EF4056"/>
<path d="M144.58 192.067H176.609V355.36H141.615V254.815L98.3388 320.299L78.3759 320.221L34.9942 254.018V355.36H0V192.067H32.4278L88.6274 277.289L144.58 192.067Z" fill="#EF4056"/>
<path d="M199.752 192.067H314.771V222.861H234.746V257.621H307.767V288.178H234.746V324.57H316.165V355.363H199.752V192.067Z" fill="#EF4056"/>
<path d="M333.481 192.067H394.601C422.599 192.067 443.868 199.494 458.412 214.347C472.952 229.2 480.225 248.988 480.225 273.717C480.225 298.439 472.949 318.234 458.412 333.08C443.868 347.933 422.599 355.36 394.601 355.36H333.481V192.067ZM431.819 311.739C440.295 303.19 444.531 290.512 444.531 273.717C444.531 256.919 440.295 244.244 431.819 235.691C423.34 227.142 410.939 222.861 394.605 222.861H368.478V324.57H394.605C410.935 324.57 423.337 320.292 431.819 311.739Z" fill="#EF4056"/>
<path d="M494.853 192.067H529.848V355.36H494.853V192.067V192.067Z" fill="#EF4056"/>
<path d="M571.577 355.36H535.535L599.875 192.067H640.055L704.395 355.36H670.385L658.496 324.803H583.445L571.577 355.36ZM617.426 237.325L594.682 295.877H647.249L624.504 237.385C622.979 233.009 621.839 228.709 621.08 224.491C620.162 229.313 618.941 233.591 617.426 237.325Z" fill="#EF4056"/>
<path d="M342.482 386.266H377.477V549.559H342.482V483.775H269.229V549.559H234.235V386.266H269.229V452.05H342.482V386.266Z" fill="#EF4056"/>
<path d="M507.89 386.266H542.655V488.212C542.655 497.541 541.331 505.938 538.691 513.404C536.039 520.869 532.463 527.014 527.959 531.833C523.444 536.654 518.078 540.692 511.862 543.961C505.638 547.226 499.146 549.524 492.379 550.844C485.615 552.164 478.498 552.827 471.036 552.827C463.569 552.827 456.453 552.164 449.685 550.844C442.922 549.524 436.426 547.229 430.206 543.961C423.986 540.692 418.617 536.654 414.109 531.833C409.597 527.011 406.021 520.866 403.377 513.404C400.733 505.938 399.413 497.541 399.413 488.212V386.266H434.407V486.341C434.407 509.669 446.618 521.332 471.036 521.332C495.609 521.332 507.894 509.669 507.894 486.341V386.266H507.89Z" fill="#EF4056"/>
<path d="M564.704 386.266H636.094C653.977 386.266 667.861 389.729 677.735 396.647C687.612 403.565 692.551 413.872 692.551 427.554C692.551 445.749 684.305 457.648 667.819 463.246C676.839 465.89 684.305 470.521 690.218 477.125C696.124 483.74 699.085 492.638 699.085 503.838C699.085 512.705 697.14 520.283 693.25 526.58C689.363 532.877 684.111 537.582 677.502 540.692C670.894 543.805 664.127 546.057 657.204 547.459C650.285 548.86 642.858 549.559 634.925 549.559H564.701V386.266H564.704ZM664.084 500.104C664.084 486.105 654.828 479.109 636.32 479.109H599.462V521.099H634.456C643.634 521.099 650.864 519.62 656.156 516.665C661.44 513.714 664.084 508.197 664.084 500.104ZM657.786 433.625C657.786 421.182 649.54 414.959 633.061 414.959H599.698V452.283H634.925C641.763 452.283 647.288 450.691 651.489 447.5C655.686 444.316 657.786 439.689 657.786 433.625Z" fill="#EF4056"/>
</g>
<defs>
<clipPath id="clip0">
<rect width="1501" height="690" fill="white"/>
</clipPath>
</defs>
</svg>
