<svg width="1501" height="690" fill="none" xmlns="http://www.w3.org/2000/svg"><g clip-path="url(#clip0)" fill="#EF4056"><path d="M1417.7 313.4A35.9 35.9 0 011436 345c0 6.3-1.8 22.1-18.3 31.6L996.2 620a36 36 0 01-18.2 5c-17.6 0-36.6-14-36.6-36.7V301.2l141 81.4 141-81.7v162.7l65-37.5V263.9l-65.6-37.8-140.5 81.3-140.7-81.2-65.3 37.7v324.5a101.8 101.8 0 00152.4 87.9l421.5-243.4A100.5 100.5 0 001501 345c0-36.7-19-69.6-50.8-88L1028.7 13.8a101.6 101.6 0 00-152.4 88v137.2l65-37.6v-99.6c0-22.7 19-36.7 36.7-36.7a36 36 0 0118.2 5l421.5 243.4zM144.6 192h32v163.4h-35V254.8l-43.3 65.5h-20L35 254v101.4H0V192h32.4l56.2 85.2 56-85.2zM199.8 192h115V223h-80v34.7h73v30.6h-73v36.4h81.4v30.8H199.8V192zM333.5 192h61.1c28 0 49.3 7.5 63.8 22.3 14.6 14.9 21.8 34.7 21.8 59.4 0 24.7-7.3 44.5-21.8 59.4-14.5 14.8-35.8 22.3-63.8 22.3h-61.1V192zm98.3 119.7c8.5-8.5 12.7-21.2 12.7-38s-4.2-29.5-12.7-38c-8.5-8.6-20.9-12.8-37.2-12.8h-26.1v101.7h26.1c16.3 0 28.7-4.3 37.2-12.9zM494.9 192h35v163.4h-35V192zM571.6 355.4h-36L599.8 192H640l64.3 163.3h-34l-11.9-30.6h-75l-12 30.6zm45.8-118l-22.7 58.5h52.5l-22.7-58.5a84.9 84.9 0 01-3.4-13 68 68 0 01-3.7 13zM342.5 386.3h35v163.3h-35v-65.8h-73.3v65.8h-35V386.3h35V452h73.3v-65.8zM507.9 386.3h34.8v102c0 9.2-1.4 17.6-4 25.1a52.1 52.1 0 01-26.8 30.6 71 71 0 01-19.5 6.8 111.3 111.3 0 01-42.7 0 70.9 70.9 0 01-19.5-6.8 52 52 0 01-26.8-30.6c-2.7-7.5-4-15.9-4-25.2v-102h35v100.1c0 23.4 12.2 35 36.6 35 24.6 0 36.9-11.6 36.9-35v-100zM564.7 386.3h71.4c17.9 0 31.8 3.4 41.6 10.3 10 7 14.9 17.3 14.9 31 0 18.1-8.3 30-24.8 35.6 9 2.7 16.5 7.3 22.4 14 6 6.5 8.9 15.4 8.9 26.6 0 9-2 16.5-5.9 22.8-3.8 6.3-9 11-15.7 14a88.9 88.9 0 01-20.3 6.9c-7 1.4-14.3 2-22.3 2h-70.2V386.4zM664.1 500c0-14-9.3-21-27.8-21h-36.8v42h35c9.1 0 16.4-1.5 21.7-4.4 5.2-3 7.9-8.5 7.9-16.6zm-6.3-66.5c0-12.4-8.3-18.6-24.7-18.6h-33.4v37.3h35.2c6.9 0 12.4-1.6 16.6-4.8 4.2-3.2 6.3-7.8 6.3-13.9z"/></g><defs><clipPath id="clip0"><path fill="#fff" d="M0 0h1501v690H0z"/></clipPath></defs></svg>