<svg width="244" height="245" viewBox="0 0 244 245" fill="none" xmlns="http://www.w3.org/2000/svg">
<path fill-rule="evenodd" clip-rule="evenodd" d="M121.218 244.168C121.659 244.611 122.369 244.611 122.81 244.168L242.622 123.919C242.838 123.704 242.964 123.411 242.964 123.104C242.964 122.799 242.838 122.505 242.622 122.29L147.442 26.7602C147.226 26.5477 146.947 26.4282 146.641 26.4282H97.3868C97.09 26.4282 96.8021 26.5477 96.5862 26.7602L1.4061 122.29C1.19019 122.505 1.07324 122.799 1.07324 123.104C1.07324 123.411 1.19018 123.704 1.4061 123.919L121.218 244.168ZM122.873 0.852896C122.657 0.62766 122.36 0.5 122.055 0.5C121.74 0.5 121.443 0.62766 121.236 0.852896L103.594 19.4387C103.279 19.7715 103.189 20.2631 103.369 20.6889C103.549 21.1138 103.963 21.3901 104.422 21.3901H139.687C140.146 21.3901 140.551 21.1138 140.731 20.6889C140.911 20.2631 140.821 19.7715 140.506 19.4387L122.873 0.852896Z" fill="#011548"/>
<path d="M97.5069 46.3368C97.5069 43.8881 97.8663 41.6021 98.5852 39.4778C99.304 37.3545 100.309 35.5224 101.602 33.9814C104.364 30.723 107.862 29.0938 112.094 29.0938C116.15 29.0938 119.396 30.6259 121.836 33.6903C124.21 36.6733 125.398 40.6208 125.398 45.5339C125.398 51.0794 123.96 55.3994 121.085 58.4971C118.516 61.2693 115.221 62.6554 111.198 62.6554C107.304 62.6554 104.058 61.1477 101.457 58.1314C98.8235 55.0671 97.5069 51.1362 97.5069 46.3368ZM79.1953 49.7129L85.374 43.5106V62.6554H79.1953V49.7129ZM135.145 30.3093H141.325V62.6554H135.145V30.3093ZM153.456 38.1711L159.636 44.3674V62.0476H153.456V38.1711ZM119.079 43.5106L105.622 53.5134C105.739 53.6869 105.861 53.8565 105.988 54.0221C106.699 54.9455 107.547 55.6631 108.532 56.1738C109.518 56.6846 110.524 56.9404 111.549 56.9404C112.575 56.9404 113.532 56.713 114.421 56.2591C115.31 55.8052 116.109 55.124 116.82 54.2162C118.419 52.141 119.218 49.4256 119.218 46.0692C119.218 45.1693 119.172 44.3164 119.079 43.5106ZM117.264 37.9486C117.238 37.9074 117.21 37.8653 117.183 37.8241C115.81 35.7979 113.952 34.7842 111.61 34.7842C109.251 34.7842 107.345 35.838 105.891 37.9456C104.421 40.0699 103.686 42.8186 103.686 46.1907C103.686 46.8093 103.714 47.4053 103.771 47.9787L117.264 37.9486Z" fill="url(#paint0_linear_3120_1810)"/>
<path fill-rule="evenodd" clip-rule="evenodd" d="M134.757 156.341C135.463 158.306 135.451 160.238 135.155 161.953C134.903 163.409 134.424 164.672 133.993 165.592L133.961 165.642C132.766 167.029 130.707 169.408 128.697 171.682C127.081 173.51 125.498 175.27 124.427 176.371C123.595 177.225 122.185 177.55 120.786 177.655C119.159 177.777 117.51 177.559 116.552 177.147C115.2 176.567 113.936 175.541 112.993 174.423C112.382 173.699 111.904 172.938 111.657 172.229C111.585 172.021 111.516 171.826 111.494 171.647C111.475 171.498 111.485 171.361 111.534 171.233C112.706 168.213 113.798 166.094 114.828 163.561C115.259 162.501 115.68 161.369 116.092 160.078C116.631 158.382 117.373 156.297 118.232 154.462C118.823 153.2 119.459 152.057 120.135 151.292C120.955 150.364 122.215 149.565 123.591 148.852C125.78 147.719 128.269 146.831 130.075 146.163C134.185 144.637 136.485 143.37 138.481 142.672C139.127 142.447 139.736 142.286 140.377 142.213H140.38C140.38 142.213 162.916 139.941 162.913 139.941C164.849 139.717 169.958 138.294 175.534 136.547C179.26 135.38 183.202 134.082 186.527 132.926C189.807 131.786 192.486 130.781 193.796 130.248C195.324 129.612 198.557 128.06 202.46 126.15C209.724 122.792 219.84 118.055 227.443 114.627C229.231 113.82 230.385 113.415 231.824 112.789C231.903 112.754 231.995 112.772 232.057 112.833L241.433 122.046C241.456 122.069 241.473 122.097 241.484 122.128C241.495 122.159 241.499 122.192 241.496 122.224L241.316 123.95C241.311 124 241.289 124.045 241.254 124.081L188.455 177.276C188.39 177.538 188.124 178.592 187.968 178.966C184.647 186.903 180.575 190.779 179.351 191.801C179.996 193.855 179.828 196.328 179.383 198.047C178.625 200.973 177.038 203.138 175.219 204.883C173.613 206.423 171.854 207.077 170.276 207.289C170.307 208.434 170.242 209.577 169.976 210.387C169.546 211.697 168.326 213.46 166.935 214.93C165.552 216.391 164.025 217.548 163.244 217.912C161.9 218.537 160.101 218.749 158.414 218.673C158.231 218.665 158.049 218.654 157.867 218.64C157.646 219.548 157.361 220.443 157.013 221.049C155.948 222.905 152.139 226.584 147.636 226.712C146.853 226.735 145.583 226.505 144.418 226.241C143.049 228.197 140.128 230.763 134.44 230.956C133.82 230.977 133.082 230.921 132.247 230.796C130.245 232.572 127.216 234.205 122.677 234.278C122.049 234.288 117.707 234.374 115.317 231.06C113.734 231.286 110.977 231.516 109.003 230.819C107.656 230.344 106.255 229.796 103.967 227.112C103.302 226.332 102.336 225.296 101.809 224.711L99.4901 225.49C99.0331 225.67 97.2797 225.771 95.3977 224.98C93.9376 224.365 91.9197 223.432 89.8758 221.019C88.011 218.818 85.6291 216.554 84.4497 214.649C84.1345 214.14 83.3709 212.916 83.1274 212.343C81.889 212.131 80.1902 211.838 78.2308 210.779C75.9878 209.568 73.6279 207.515 72.6672 205.002C71.366 201.598 70.4362 198.585 69.791 196.653C69.6102 196.112 67.4013 190.619 67.0686 189.797C67.043 189.733 67.0486 189.661 67.0838 189.603C67.1189 189.543 67.1795 189.505 67.247 189.5L70.2066 189.227C70.2609 189.221 70.3149 189.238 70.3578 189.272C70.3682 189.28 70.3785 189.289 70.3888 189.297C70.892 189.717 71.4803 190.25 72.1275 190.846C72.1383 190.856 72.1482 190.867 72.1569 190.879C72.4686 191.316 72.7855 191.765 73.1199 192.219C73.6637 192.958 74.2162 193.671 74.8468 194.35C75.501 195.054 76.2134 195.684 77.0108 196.199C77.5645 196.557 78.1749 196.815 78.7974 197.043C80.1122 197.509 81.3985 197.847 82.6677 198.304C83.1667 198.484 83.6632 198.682 84.1562 198.922C85.3898 199.516 87.1413 200.349 88.6892 201.241C89.7148 201.832 90.6513 202.439 91.2297 203.025C91.6804 203.481 92.0466 204.186 92.3066 204.886C92.4748 205.338 92.6223 205.786 92.6808 206.149C92.6817 206.154 92.6826 206.159 92.6826 206.165C92.6934 206.283 92.7753 206.829 92.6709 207.564C92.6574 207.654 92.6421 207.743 92.6232 207.832C92.3399 209.15 91.7344 210.138 90.8888 210.876C90.7061 211.035 90.519 211.186 90.3274 211.324C90.9589 211.121 91.5833 210.845 92.1752 210.443C92.8553 209.98 93.4446 209.384 93.9313 208.61C93.9709 208.546 94.0402 208.508 94.1139 208.509C94.167 208.51 94.221 208.508 94.2767 208.506C95.0162 208.461 96.8632 207.857 97.8168 207.528C99.1302 207.075 101.29 205.776 103.269 204.989C104.001 204.697 104.696 204.472 105.29 204.458C107.663 204.403 109.597 205.109 111.111 206.055C112.997 207.234 114.237 208.777 114.861 209.692C114.866 209.699 114.871 209.707 114.875 209.715C114.967 209.893 115.052 210.088 115.126 210.293C115.134 210.314 115.377 211.252 115.381 211.272C115.473 211.775 115.502 212.28 115.398 212.731C114.895 214.906 113.266 217.363 110.88 219.557C109.607 220.728 108.136 221.819 106.512 222.754C108.879 221.783 111.003 220.483 112.748 219.044C114.938 217.237 116.479 215.189 117.196 213.276C117.291 213.025 117.36 212.758 117.409 212.48C117.425 212.383 117.505 212.309 117.602 212.302C117.76 212.289 117.928 212.267 118.106 212.233C121.158 211.656 123.423 212.174 125.087 213.154C127.083 214.328 128.211 216.136 128.784 217.365C128.794 217.385 128.849 217.638 128.899 217.738L128.901 217.742C128.901 217.742 129.545 219.059 128.046 221.089C127.376 221.995 126.352 223.013 124.775 224.099C122.981 225.335 121.246 226.393 119.521 227.295C118.791 227.677 118.065 228.031 117.342 228.358C118.101 228.116 118.866 227.846 119.639 227.548C121.477 226.842 123.343 225.979 125.289 224.945C127.693 223.667 129.063 222.376 129.872 221.266C130.227 220.778 130.479 220.313 130.655 219.879C130.691 219.789 130.783 219.735 130.878 219.746C131.403 219.811 131.884 219.942 132.32 220.128C132.71 220.293 133.075 220.472 133.394 220.713C134.28 221.38 134.942 222.267 135.226 223.363C135.567 224.687 135.49 226.172 134.895 227.659C134.889 227.671 134.883 227.684 134.875 227.696L134.853 227.729C134.852 227.753 134.846 227.776 134.837 227.798C134.66 228.217 134.441 228.635 134.179 229.049C134.7 228.561 135.137 228.041 135.494 227.5C135.511 227.474 135.533 227.453 135.559 227.436C135.585 227.42 135.614 227.409 135.644 227.405C138.866 226.994 140.667 225.542 141.554 224.336C140.582 223.021 138.956 220.834 137.607 219.078C136.584 217.748 135.764 216.684 135.53 216.503C135.331 216.375 135.267 216.112 135.387 215.906C135.506 215.7 135.767 215.628 135.973 215.741C136.268 215.881 137.397 216.779 138.785 217.93C140.82 219.619 143.373 221.814 144.431 222.728C145.487 223 146.788 223.287 147.538 223.266C150.663 223.177 153.302 220.614 154.041 219.327C154.332 218.821 154.546 218.038 154.702 217.279L138.911 201.313C138.678 201.097 138.661 200.732 138.875 200.495C139.086 200.26 139.447 200.24 139.683 200.448L157.321 215.043C157.323 215.046 157.326 215.047 157.329 215.05C157.359 215.077 157.388 215.105 157.415 215.135C158.801 215.296 160.585 215.349 161.801 214.783C162.37 214.518 163.44 213.619 164.449 212.554C165.457 211.488 166.406 210.256 166.718 209.306C166.962 208.564 166.947 207.442 166.859 206.41C164.744 204.588 159.229 199.834 154.915 196.071C152.338 193.824 150.199 191.938 149.462 191.237C149.235 191.034 149.21 190.684 149.409 190.452C149.607 190.222 149.953 190.194 150.184 190.389C150.978 191.011 153.271 192.669 156.03 194.644C160.852 198.094 167.062 202.482 169.134 203.945C170.26 203.912 171.626 203.562 172.85 202.389C174.242 201.054 175.622 199.315 176.229 197.083C176.823 194.895 176.564 192.949 176.22 191.814C176.08 191.355 175.933 191.034 175.822 190.898C173.102 187.574 162.537 176.955 157.863 172.753C157.807 172.703 157.781 172.626 157.796 172.551C157.809 172.477 157.86 172.416 157.93 172.388C157.93 172.388 160.235 171.511 161.109 171.222C162.788 170.667 164.623 169.842 166.298 168.591C168.952 166.61 171.956 165.193 174.849 164.837C176.999 164.573 179.08 164.884 180.894 165.984L180.9 165.988C181.001 166.053 181.136 166.024 181.202 165.923C181.266 165.823 181.237 165.691 181.137 165.626L181.132 165.622C179.272 164.335 177.077 163.875 174.772 164.017C174.626 164.026 174.478 164.038 174.33 164.052C174.237 164.061 174.149 164.008 174.113 163.921C174.077 163.833 174.101 163.732 174.172 163.671C174.219 163.632 174.265 163.592 174.31 163.552C174.941 163.001 175.497 162.424 175.967 161.824C176.858 160.686 177.466 159.491 177.812 158.298C178.134 157.191 178.228 156.091 178.101 155.031C178.08 156.745 177.461 158.479 176.286 160.129C175.791 160.825 175.193 161.499 174.501 162.162C173.92 162.716 173.277 163.264 172.555 163.785C172.126 164.094 171.67 164.397 171.188 164.689L171.141 164.71C169.211 165.309 167.287 166.256 165.489 167.436C163.893 168.485 162.172 169.133 160.611 169.547C158.843 170.015 156.638 170.872 155.691 170.918C155.64 170.921 155.589 170.905 155.549 170.872C154.614 170.125 149.899 166.103 146.727 163.824C146.698 163.803 146.674 163.775 146.658 163.743C146.643 163.711 146.635 163.675 146.637 163.639C146.638 163.603 146.648 163.568 146.666 163.537C146.684 163.506 146.71 163.48 146.74 163.461C148.066 162.659 149.466 161.644 150.798 160.436C153.337 158.137 155.608 155.145 156.426 151.351C156.427 151.346 156.429 151.341 156.431 151.336C156.435 151.32 156.425 151.305 156.41 151.3C156.394 151.296 156.376 151.304 156.371 151.32L156.366 151.336C155.328 154.089 153.509 156.238 151.446 157.935C148.545 160.321 145.135 161.623 142.827 162.396C142.53 162.494 142.255 162.587 142.003 162.669C141.995 162.671 141.988 162.673 141.98 162.675L136.517 163.804C136.451 163.818 136.383 163.799 136.332 163.754C136.282 163.709 136.256 163.642 136.261 163.575C136.299 163.083 136.315 162.567 136.302 162.036C136.253 160.212 135.89 158.215 134.757 156.341ZM187.574 174.667C187.564 174.671 187.554 174.674 187.543 174.677C187.552 174.675 187.561 174.672 187.57 174.669L187.574 174.667ZM189.386 167.742C189.437 166.644 189.384 165.237 188.948 163.575C188.516 161.929 187.707 160.043 186.406 157.925C186.404 157.922 186.403 157.919 186.401 157.916C186.372 157.863 186.305 157.845 186.252 157.875C186.201 157.903 186.182 157.967 186.21 158.019L186.215 158.027C187.085 159.783 187.632 161.366 187.986 162.771C188.212 163.664 188.346 164.483 188.435 165.226C188.549 166.175 188.583 166.998 188.546 167.694C188.52 168.669 188.457 169.316 188.253 170.326C188.073 171.221 187.798 172.391 187.324 174.294C187.323 174.298 187.322 174.301 187.32 174.305C187.3 174.374 187.34 174.447 187.409 174.468C187.479 174.49 187.555 174.451 187.576 174.381L187.579 174.37C188.246 172.51 188.655 171.37 188.909 170.486C189.209 169.444 189.297 168.764 189.386 167.742ZM124.689 172.147C124.546 172.362 124.321 172.513 124.06 172.56C123.238 172.7 122.455 172.808 121.71 172.837C121.217 172.857 120.743 172.845 120.287 172.815C119.526 172.765 118.825 172.671 118.173 172.538C117.268 172.353 116.478 172.117 115.799 171.867L115.824 171.876C116.497 172.123 117.278 172.354 118.173 172.538C118.825 172.671 119.526 172.765 120.287 172.815C120.743 172.845 121.217 172.857 121.71 172.837C122.455 172.808 123.238 172.7 124.06 172.56C124.322 172.513 124.549 172.36 124.691 172.143L124.689 172.147ZM122.231 164.961C122.802 165.391 123.168 165.924 123.407 166.506C123.802 167.472 123.743 168.556 123.621 169.478C123.551 170.004 123.447 170.469 123.357 170.811C123.335 170.895 123.264 170.958 123.179 170.97C122.936 171.002 122.698 171.031 122.464 171.062C121.778 171.154 121.13 171.232 120.512 171.284C119.269 171.389 118.172 171.411 117.2 171.355C115.994 171.286 115.004 171.121 114.266 170.955C114.46 171.055 114.674 171.161 114.91 171.268C115.759 171.655 116.854 172.047 118.216 172.325C118.858 172.457 119.55 172.55 120.3 172.599C120.749 172.629 121.216 172.64 121.701 172.621C122.439 172.592 123.212 172.485 124.023 172.347C124.299 172.298 124.524 172.097 124.603 171.832C124.603 171.832 124.879 170.821 124.833 169.537C124.795 168.466 124.582 167.218 123.878 166.246C123.484 165.701 122.957 165.239 122.231 164.961ZM164.902 169.771C163.656 170.497 162.375 171.031 161.174 171.428C162.369 171.033 163.641 170.503 164.881 169.783L164.902 169.771ZM180.895 166.221C180.997 166.251 181.106 166.242 181.2 166.198L181.202 166.198C181.105 166.244 180.995 166.252 180.892 166.22L180.895 166.221ZM175.366 162.842C175.082 163.14 174.775 163.431 174.449 163.716C174.78 163.427 175.091 163.131 175.38 162.828L175.366 162.842ZM147.688 163.117C147.407 163.303 147.127 163.479 146.85 163.647C147.131 163.476 147.417 163.296 147.704 163.107L147.688 163.117ZM136.475 163.569C136.475 163.576 136.474 163.584 136.474 163.591L136.475 163.569C136.476 163.56 136.477 163.553 136.477 163.545L136.475 163.569ZM135.132 159.704V159.756V159.726V159.704ZM177.882 154.669C177.883 154.691 177.884 154.712 177.884 154.734L177.885 154.745L177.882 154.669H177.882ZM187.316 174.664C187.313 174.663 187.309 174.662 187.306 174.66L187.304 174.659C187.309 174.662 187.313 174.663 187.318 174.665L187.316 174.664ZM187.589 174.661C187.617 174.648 187.643 174.632 187.667 174.612L187.67 174.61C187.645 174.631 187.616 174.649 187.586 174.662L187.589 174.661ZM187.3 174.657C187.175 174.599 187.098 174.47 187.102 174.334C187.098 174.471 187.176 174.6 187.302 174.658L187.3 174.657ZM187.676 174.605C187.698 174.586 187.717 174.565 187.733 174.542L187.736 174.538C187.718 174.564 187.697 174.588 187.674 174.608L187.676 174.605ZM187.74 174.531C187.758 174.504 187.771 174.475 187.78 174.444C187.77 174.476 187.756 174.507 187.738 174.535L187.74 174.531ZM188.633 172.04C188.696 171.856 188.755 171.682 188.81 171.518C188.752 171.692 188.69 171.874 188.623 172.069L188.633 172.04ZM124.725 172.086C124.76 172.025 124.788 171.96 124.809 171.89C124.787 171.961 124.76 172.028 124.724 172.09L124.725 172.086ZM115.631 171.804C115.624 171.801 115.616 171.798 115.608 171.796L115.631 171.804C115.639 171.807 115.647 171.81 115.655 171.813L115.631 171.804ZM115.377 171.704C115.182 171.625 114.997 171.546 114.822 171.465C113.487 170.858 112.82 170.306 112.82 170.306C112.82 170.306 113.487 170.858 114.822 171.465C115.004 171.548 115.197 171.631 115.4 171.713L115.377 171.704ZM188.843 171.416C188.877 171.315 188.909 171.217 188.939 171.123C188.906 171.225 188.872 171.331 188.835 171.442L188.843 171.416ZM111.71 171.394C111.711 171.389 111.711 171.384 111.712 171.38C111.711 171.385 111.71 171.392 111.709 171.397L111.71 171.394ZM124.966 171.06C124.965 171.074 124.963 171.088 124.96 171.102L124.964 171.081L124.966 171.06ZM188.954 171.075C188.964 171.044 188.974 171.013 188.983 170.982L188.99 170.959C188.976 171.005 188.961 171.051 188.947 171.099L188.954 171.075ZM124.988 170.892C124.987 170.899 124.986 170.906 124.985 170.915L124.986 170.903L124.988 170.892ZM124.991 170.868C124.994 170.841 124.997 170.813 125 170.785C124.996 170.817 124.993 170.849 124.989 170.88L124.991 170.868ZM125.002 170.761C125.006 170.729 125.01 170.695 125.012 170.662C125.009 170.699 125.005 170.737 125.002 170.772L125.002 170.761ZM189.071 170.694C189.077 170.673 189.084 170.651 189.09 170.63C189.082 170.658 189.074 170.687 189.065 170.716L189.071 170.694ZM125.015 170.637C125.02 170.569 125.027 170.5 125.031 170.429C125.026 170.504 125.02 170.578 125.013 170.649L125.015 170.637ZM125.033 170.401C125.035 170.366 125.038 170.329 125.039 170.293C125.038 170.334 125.035 170.375 125.032 170.415L125.033 170.401ZM189.169 170.352C189.171 170.344 189.173 170.336 189.175 170.328C189.171 170.344 189.166 170.359 189.163 170.376L189.169 170.352ZM189.285 169.897L189.29 169.875C189.287 169.89 189.283 169.904 189.281 169.919L189.285 169.897ZM189.3 169.831C189.331 169.702 189.357 169.576 189.381 169.452C189.356 169.582 189.327 169.716 189.296 169.853L189.3 169.831ZM112.356 169.764C112.347 169.786 112.339 169.807 112.33 169.829L112.343 169.797L112.356 169.764ZM125.052 169.818V169.767V169.833V169.818ZM164.943 169.747C165.005 169.711 165.066 169.674 165.128 169.637L165.149 169.624C165.073 169.67 164.998 169.715 164.922 169.759L164.943 169.747ZM112.397 169.668C112.406 169.647 112.415 169.625 112.424 169.604L112.437 169.572C112.419 169.615 112.401 169.657 112.383 169.7L112.397 169.668ZM112.464 169.509C112.482 169.467 112.5 169.426 112.517 169.384L112.53 169.352C112.504 169.415 112.477 169.478 112.45 169.541L112.464 169.509ZM165.293 169.536C165.306 169.528 165.32 169.519 165.333 169.51L165.354 169.498C165.327 169.515 165.3 169.532 165.272 169.549L165.293 169.536ZM189.389 169.41C189.479 168.937 189.532 168.486 189.582 167.948C189.532 168.494 189.478 168.95 189.386 169.431L189.389 169.41ZM165.62 169.328C165.627 169.323 165.633 169.319 165.64 169.315L165.66 169.302C165.64 169.315 165.62 169.328 165.599 169.342L165.62 169.328ZM165.762 169.234C165.987 169.084 166.208 168.928 166.425 168.766C168.735 167.04 171.314 165.745 173.848 165.222L173.865 165.218C171.325 165.74 168.74 167.036 166.425 168.766C166.2 168.934 165.971 169.095 165.742 169.248L165.762 169.234ZM112.65 169.073C112.685 168.99 112.721 168.909 112.756 168.827L112.782 168.766C112.733 168.879 112.684 168.991 112.636 169.104L112.65 169.073ZM113.018 168.226C113.226 167.752 113.433 167.293 113.637 166.839L113.738 166.612C113.494 167.159 113.244 167.711 112.992 168.286L113.018 168.226ZM123.498 168.138C123.498 168.145 123.499 168.153 123.499 168.161L123.498 168.15V168.138ZM123.497 168.07V168.092V168.081V168.07ZM123.496 168.035C123.496 168.02 123.495 168.005 123.494 167.989L123.497 168.047L123.496 168.035ZM123.493 167.955C123.491 167.917 123.488 167.879 123.486 167.841C123.488 167.883 123.491 167.925 123.493 167.967V167.955ZM189.586 167.901C189.59 167.853 189.594 167.806 189.599 167.757C189.61 167.53 189.616 167.289 189.615 167.036C189.616 167.289 189.61 167.53 189.599 167.757C189.594 167.814 189.589 167.87 189.584 167.925L189.586 167.901ZM123.484 167.818C123.482 167.787 123.479 167.757 123.477 167.726C123.479 167.76 123.482 167.795 123.485 167.829L123.484 167.818ZM123.474 167.703C123.467 167.626 123.458 167.551 123.446 167.474C123.458 167.554 123.468 167.635 123.475 167.715L123.474 167.703ZM123.439 167.429C123.434 167.398 123.429 167.368 123.424 167.337C123.43 167.372 123.435 167.406 123.441 167.44L123.439 167.429ZM123.417 167.304C123.419 167.311 123.42 167.318 123.422 167.326L123.42 167.315L123.417 167.304ZM123.411 167.269C123.365 167.038 123.299 166.81 123.21 166.589C122.833 165.672 122.12 164.887 120.736 164.463C122.12 164.887 122.833 165.672 123.21 166.589C123.301 166.814 123.368 167.046 123.413 167.281L123.411 167.269ZM188.341 166.75C188.34 166.706 188.338 166.663 188.336 166.619C188.339 166.669 188.34 166.719 188.341 166.768V166.75ZM188.335 166.581C188.32 166.234 188.291 165.863 188.248 165.47C188.292 165.87 188.321 166.247 188.336 166.601L188.335 166.581ZM113.84 166.386C114.244 165.484 114.639 164.594 115.025 163.644C115.272 163.036 115.516 162.405 115.756 161.735L115.766 161.707C115.522 162.388 115.276 163.028 115.025 163.644C114.623 164.633 114.211 165.558 113.79 166.499L113.84 166.386ZM180.885 166.218C180.884 166.218 180.883 166.218 180.883 166.217L180.88 166.216L180.888 166.218L180.885 166.218ZM180.873 166.213C180.842 166.202 180.813 166.188 180.785 166.17C180.63 166.076 180.472 165.987 180.311 165.904L180.3 165.898C180.465 165.984 180.627 166.074 180.785 166.17C180.814 166.188 180.844 166.203 180.875 166.214L180.873 166.213ZM181.212 166.193C181.21 166.194 181.208 166.195 181.207 166.196L181.209 166.194L181.212 166.193ZM181.216 166.191C181.269 166.163 181.318 166.125 181.357 166.074L181.358 166.073C181.319 166.122 181.27 166.163 181.214 166.192L181.216 166.191ZM181.361 166.068C181.368 166.06 181.375 166.051 181.381 166.041C181.429 165.966 181.451 165.882 181.449 165.799C181.451 165.882 181.429 165.966 181.381 166.041C181.374 166.051 181.367 166.061 181.36 166.071L181.361 166.068ZM180.28 165.887L180.258 165.877L180.247 165.871C180.262 165.878 180.276 165.886 180.29 165.893L180.28 165.887ZM180.226 165.861C180.026 165.761 179.824 165.67 179.619 165.587L179.608 165.582C179.82 165.668 180.03 165.762 180.237 165.866L180.226 165.861ZM179.574 165.569C179.457 165.523 179.339 165.479 179.219 165.438L179.208 165.434C179.335 165.477 179.46 165.524 179.585 165.573L179.574 165.569ZM188.241 165.405C188.235 165.355 188.229 165.304 188.223 165.253C188.23 165.311 188.237 165.37 188.243 165.427L188.241 165.405ZM178.938 165.348C178.728 165.284 178.515 165.228 178.3 165.181L178.289 165.178C178.512 165.226 178.732 165.284 178.95 165.35L178.938 165.348ZM178.254 165.171C178.146 165.147 178.038 165.126 177.929 165.107L177.917 165.105C178.034 165.125 178.15 165.148 178.266 165.173L178.254 165.171ZM177.848 165.093C177.832 165.091 177.817 165.088 177.801 165.086L177.79 165.083C177.813 165.088 177.836 165.091 177.86 165.095L177.848 165.093ZM177.719 165.073C177.715 165.072 177.711 165.071 177.708 165.071L177.696 165.07C177.708 165.071 177.719 165.073 177.731 165.074L177.719 165.073ZM177.508 165.043C177.261 165.011 177.011 164.99 176.76 164.977H176.747C177.007 164.989 177.264 165.012 177.52 165.045L177.508 165.043ZM188.024 163.942C188.015 163.89 188.005 163.839 187.995 163.787C188.006 163.846 188.017 163.903 188.027 163.961L188.024 163.942ZM187.987 163.748C187.928 163.45 187.859 163.142 187.779 162.824C187.861 163.148 187.931 163.464 187.99 163.768L187.987 163.748ZM136.481 163.497C136.493 163.339 136.502 163.18 136.508 163.021C136.501 163.19 136.492 163.357 136.479 163.521L136.481 163.497ZM147.752 163.075L147.944 162.947L147.928 162.958C147.864 163.001 147.8 163.043 147.736 163.085L147.752 163.075ZM136.51 162.972C136.51 162.956 136.51 162.939 136.511 162.924L136.509 162.996L136.51 162.972ZM147.976 162.925C148.008 162.903 148.04 162.882 148.072 162.859L148.056 162.87C148.024 162.892 147.992 162.914 147.96 162.936L147.976 162.925ZM136.513 162.875C136.518 162.718 136.52 162.558 136.52 162.398C136.52 162.566 136.518 162.734 136.512 162.899L136.513 162.875ZM175.598 162.593C175.628 162.561 175.657 162.528 175.686 162.495L175.674 162.51C175.644 162.542 175.615 162.575 175.586 162.607L175.598 162.593ZM148.457 162.591C148.495 162.565 148.533 162.537 148.571 162.511L148.555 162.522C148.517 162.549 148.479 162.576 148.441 162.602L148.457 162.591ZM175.711 162.468C175.752 162.421 175.792 162.374 175.832 162.328L175.82 162.341C175.78 162.388 175.739 162.435 175.698 162.482L175.711 162.468ZM148.764 162.37C148.962 162.225 149.162 162.076 149.36 161.922L149.344 161.935C149.146 162.088 148.947 162.237 148.748 162.382L148.764 162.37ZM175.998 162.13C176.001 162.125 176.006 162.121 176.009 162.115L175.998 162.13C175.994 162.134 175.989 162.139 175.986 162.144L175.998 162.13ZM149.408 161.884C149.473 161.834 149.537 161.784 149.602 161.733L149.586 161.746C149.521 161.797 149.457 161.847 149.392 161.897L149.408 161.884ZM176.27 161.781C176.308 161.731 176.346 161.681 176.383 161.63L176.372 161.645C176.336 161.695 176.298 161.745 176.26 161.795L176.27 161.781ZM149.65 161.695C150.084 161.349 150.516 160.983 150.941 160.599C151.187 160.375 151.431 160.146 151.67 159.91L151.656 159.925C151.42 160.155 151.181 160.38 150.941 160.599C150.517 160.982 150.081 161.352 149.634 161.707L149.65 161.695ZM115.786 161.652C115.789 161.643 115.792 161.634 115.796 161.624L115.806 161.596C115.796 161.624 115.786 161.652 115.776 161.679L115.786 161.652ZM176.442 161.548L176.472 161.507L176.462 161.521L176.432 161.562L176.442 161.548ZM115.855 161.457C116.003 161.037 116.149 160.6 116.295 160.145C116.464 159.612 116.64 159.082 116.824 158.555L116.839 158.511C116.64 159.08 116.459 159.63 116.295 160.145C116.146 160.61 115.996 161.056 115.845 161.485L115.855 161.457ZM176.85 160.938C176.877 160.896 176.903 160.854 176.928 160.812L176.92 160.827C176.894 160.869 176.869 160.91 176.842 160.952L176.85 160.938ZM176.954 160.77C177.004 160.687 177.053 160.602 177.101 160.517L177.092 160.532C177.044 160.617 176.995 160.701 176.945 160.785L176.954 160.77ZM151.729 159.853C151.792 159.79 151.855 159.727 151.918 159.663L151.904 159.678C151.841 159.741 151.778 159.804 151.714 159.867L151.729 159.853ZM135.131 159.659C135.121 158.923 135.038 158.163 134.851 157.393C135.04 158.17 135.123 158.937 135.131 159.682V159.659ZM152.049 159.53C152.059 159.52 152.069 159.51 152.078 159.5L152.063 159.514C152.054 159.524 152.044 159.534 152.034 159.545L152.049 159.53ZM152.106 159.47C152.217 159.356 152.327 159.24 152.435 159.122L152.42 159.138C152.312 159.255 152.203 159.37 152.092 159.485L152.106 159.47ZM152.463 159.091C152.491 159.061 152.519 159.03 152.547 158.999L152.534 159.015C152.506 159.046 152.477 159.077 152.449 159.107L152.463 159.091ZM152.576 158.968C152.804 158.716 153.028 158.457 153.247 158.19L153.234 158.206C153.016 158.471 152.792 158.73 152.562 158.984L152.576 158.968ZM116.932 158.248C116.921 158.278 116.911 158.307 116.9 158.336L116.917 158.292L116.932 158.248ZM153.327 158.092L153.419 157.977L153.406 157.993C153.376 158.032 153.344 158.07 153.314 158.108L153.327 158.092ZM178.108 158.024C178.112 158.008 178.116 157.992 178.12 157.976C178.114 157.997 178.11 158.019 178.105 158.04L178.108 158.024ZM185.986 158.01C185.984 157.997 185.983 157.984 185.983 157.971C185.983 157.985 185.985 158 185.987 158.014L185.986 158.01ZM153.446 157.943C153.673 157.657 153.894 157.362 154.105 157.06L154.094 157.078C153.881 157.38 153.66 157.673 153.432 157.961L153.446 157.943ZM178.131 157.929C178.14 157.891 178.149 157.854 178.158 157.816C178.148 157.859 178.138 157.901 178.128 157.944L178.131 157.929ZM178.185 157.689C178.202 157.61 178.218 157.53 178.232 157.451C178.217 157.536 178.2 157.62 178.182 157.705L178.185 157.689ZM178.24 157.403C178.239 157.413 178.237 157.424 178.235 157.434L178.238 157.419L178.24 157.403ZM178.247 157.372C178.249 157.355 178.252 157.34 178.255 157.323C178.251 157.344 178.248 157.366 178.243 157.387L178.247 157.372ZM134.844 157.37C134.825 157.289 134.804 157.208 134.781 157.127L134.779 157.115C134.803 157.205 134.826 157.293 134.848 157.382L134.844 157.37ZM178.262 157.276C178.26 157.287 178.258 157.297 178.257 157.308L178.259 157.291L178.262 157.276ZM178.27 157.228C178.268 157.239 178.266 157.25 178.265 157.26L178.267 157.244L178.27 157.228ZM178.275 157.196C178.276 157.186 178.277 157.175 178.279 157.165C178.277 157.181 178.275 157.196 178.272 157.212L178.275 157.196ZM178.286 157.117C178.292 157.081 178.296 157.043 178.302 157.007C178.296 157.049 178.29 157.091 178.284 157.134L178.286 157.117ZM134.749 157.011C134.752 157.02 134.753 157.027 134.756 157.035L134.753 157.023L134.749 157.011ZM134.739 156.977C134.711 156.88 134.682 156.783 134.649 156.687L134.646 156.675C134.68 156.78 134.712 156.884 134.743 156.989L134.739 156.977ZM154.191 156.937C154.199 156.926 154.207 156.914 154.215 156.903L154.203 156.92C154.195 156.932 154.187 156.944 154.179 156.955L154.191 156.937ZM117.464 156.816C117.519 156.673 117.576 156.531 117.633 156.388L117.642 156.366C117.576 156.531 117.51 156.696 117.447 156.861L117.464 156.816ZM154.251 156.85C154.331 156.732 154.41 156.613 154.488 156.493L154.476 156.512C154.399 156.631 154.319 156.75 154.239 156.867L154.251 156.85ZM154.511 156.457C154.515 156.451 154.518 156.445 154.523 156.44L154.511 156.457C154.507 156.463 154.503 156.469 154.499 156.475L154.511 156.457ZM178.356 156.408C178.367 156.218 178.371 156.029 178.368 155.841C178.371 156.035 178.367 156.228 178.355 156.423L178.356 156.408ZM117.669 156.298C117.688 156.253 117.706 156.208 117.724 156.163L117.733 156.14C117.708 156.201 117.684 156.261 117.66 156.32L117.669 156.298ZM154.614 156.295C154.649 156.24 154.682 156.185 154.716 156.13L154.704 156.149C154.671 156.203 154.637 156.258 154.603 156.313L154.614 156.295ZM134.469 156.128C134.469 156.13 134.468 156.132 134.468 156.135V156.132C134.469 156.13 134.469 156.13 134.469 156.128ZM154.739 156.093C154.794 156.001 154.849 155.909 154.903 155.816L154.892 155.834C154.838 155.927 154.783 156.02 154.727 156.111L154.739 156.093ZM154.925 155.778C154.936 155.759 154.946 155.741 154.957 155.722L154.946 155.741C154.936 155.76 154.925 155.778 154.914 155.797L154.925 155.778ZM154.979 155.685C154.982 155.678 154.986 155.673 154.99 155.666L154.979 155.685ZM155.043 155.572C155.211 155.271 155.371 154.961 155.521 154.646C155.368 154.969 155.205 155.283 155.032 155.591L155.043 155.572ZM177.881 154.647C177.881 154.64 177.881 154.632 177.881 154.625C177.881 154.636 177.881 154.647 177.882 154.658L177.881 154.647ZM177.88 154.603C177.877 154.559 177.875 154.515 177.872 154.471C177.875 154.518 177.878 154.566 177.88 154.614V154.603ZM155.568 154.547C155.794 154.066 155.996 153.568 156.173 153.055C155.995 153.57 155.791 154.075 155.559 154.567L155.568 154.547ZM177.868 154.353C177.865 154.37 177.864 154.387 177.867 154.405C177.868 154.412 177.868 154.42 177.869 154.427L177.868 154.416C177.868 154.412 177.867 154.409 177.867 154.405C177.864 154.387 177.865 154.37 177.868 154.353ZM118.784 153.815C118.775 153.833 118.765 153.852 118.756 153.871L118.77 153.843L118.784 153.815ZM118.869 153.649C119.221 152.966 119.589 152.344 119.97 151.836L119.978 151.825C119.589 152.343 119.214 152.978 118.854 153.677L118.869 153.649ZM156.201 152.97C156.197 152.984 156.192 152.998 156.187 153.012L156.194 152.991L156.201 152.97ZM156.216 152.928C156.232 152.878 156.249 152.829 156.264 152.778C156.246 152.836 156.227 152.892 156.209 152.949L156.216 152.928ZM156.279 152.736C156.416 152.301 156.536 151.855 156.635 151.397C156.643 151.371 156.646 151.345 156.645 151.319C156.646 151.345 156.643 151.371 156.635 151.397C156.534 151.863 156.413 152.316 156.272 152.757L156.279 152.736ZM120.1 151.667C120.152 151.603 120.203 151.541 120.255 151.481L120.263 151.472C120.206 151.537 120.149 151.606 120.092 151.677L120.1 151.667ZM120.342 151.383C120.351 151.372 120.361 151.362 120.37 151.351L120.38 151.34C120.364 151.359 120.348 151.376 120.332 151.394L120.342 151.383ZM120.41 151.309C120.416 151.302 120.423 151.295 120.43 151.288L120.44 151.277C120.426 151.291 120.413 151.306 120.4 151.319L120.41 151.309ZM120.46 151.256C120.474 151.243 120.487 151.229 120.501 151.215L120.511 151.205C120.49 151.225 120.47 151.246 120.449 151.267L120.46 151.256ZM120.531 151.184C120.638 151.076 120.751 150.97 120.87 150.867L120.881 150.857C120.757 150.965 120.637 151.077 120.521 151.194L120.531 151.184ZM120.939 150.807C121.063 150.7 121.193 150.595 121.328 150.492L121.34 150.483C121.196 150.593 121.059 150.703 120.927 150.817L120.939 150.807ZM121.365 150.464C122.044 149.951 122.844 149.482 123.688 149.045C125.869 147.916 128.349 147.033 130.148 146.366C134.257 144.841 136.555 143.574 138.55 142.877C139.181 142.657 139.774 142.5 140.4 142.429L162.938 140.156C164.454 139.98 167.914 139.072 172.022 137.847L172.084 137.829C167.949 139.063 164.462 139.979 162.938 140.156L140.4 142.429C139.774 142.5 139.181 142.657 138.55 142.877C136.555 143.574 134.257 144.841 130.148 146.366C128.349 147.033 125.869 147.916 123.688 149.045C122.839 149.485 122.034 149.957 121.353 150.473L121.365 150.464ZM172.207 137.793C172.776 137.623 173.343 137.451 173.91 137.277L173.974 137.257C173.354 137.447 172.744 137.632 172.145 137.811L172.207 137.793ZM174.103 137.217C174.168 137.198 174.232 137.178 174.296 137.158L174.361 137.138C174.253 137.172 174.146 137.205 174.039 137.237L174.103 137.217ZM174.684 137.039C174.879 136.978 175.075 136.917 175.27 136.856L175.335 136.835C175.095 136.911 174.857 136.985 174.619 137.059L174.684 137.039ZM175.773 136.699L175.597 136.754L175.685 136.727L175.773 136.699ZM176.035 136.616C176.064 136.607 176.094 136.598 176.123 136.589L176.211 136.561C176.123 136.589 176.035 136.616 175.947 136.644L176.035 136.616ZM176.386 136.505C176.416 136.496 176.446 136.487 176.474 136.478L176.563 136.449C176.474 136.478 176.386 136.506 176.299 136.533L176.386 136.505ZM176.739 136.394C180.121 135.323 183.607 134.17 186.596 133.131C189.188 132.23 191.405 131.413 192.87 130.847L192.913 130.83C191.449 131.398 189.214 132.221 186.596 133.131C183.581 134.179 180.058 135.343 176.651 136.422L176.739 136.394ZM192.999 130.797C193.336 130.665 193.631 130.549 193.878 130.448C195.133 129.926 197.536 128.786 200.515 127.339L200.6 127.298C197.582 128.765 195.144 129.921 193.878 130.448C193.62 130.553 193.312 130.676 192.956 130.813L192.999 130.797ZM200.771 127.214C201.344 126.936 201.938 126.646 202.548 126.347C205.726 124.878 209.449 123.145 213.27 121.373L213.679 121.183C209.715 123.021 205.839 124.826 202.548 126.347C201.908 126.661 201.285 126.964 200.686 127.256L200.771 127.214ZM214.501 120.803C214.843 120.644 215.186 120.484 215.529 120.327L215.735 120.231C215.186 120.484 214.638 120.739 214.089 120.993L214.501 120.803ZM216.146 120.04C216.214 120.008 216.283 119.977 216.352 119.946L216.557 119.85C216.352 119.946 216.146 120.04 215.94 120.136L216.146 120.04ZM218.404 118.997C218.541 118.934 218.677 118.871 218.812 118.808L219.017 118.714C218.744 118.84 218.471 118.965 218.199 119.091L218.404 118.997ZM219.627 118.433C219.964 118.277 220.301 118.122 220.638 117.968L220.839 117.875C220.37 118.091 219.897 118.308 219.423 118.527L219.627 118.433ZM221.64 117.507C223.699 116.562 225.688 115.654 227.53 114.824C228.13 114.554 228.659 114.328 229.151 114.124L229.185 114.11C228.684 114.317 228.144 114.547 227.53 114.824C225.629 115.682 223.571 116.62 221.44 117.599L221.64 117.507ZM229.253 114.082C229.276 114.073 229.298 114.063 229.321 114.054L229.355 114.04C229.31 114.058 229.265 114.078 229.219 114.096L229.253 114.082ZM230.235 113.683C230.787 113.459 231.324 113.242 231.908 112.988C231.279 113.261 230.705 113.493 230.107 113.735L230.235 113.683Z" fill="#011548"/>
<path fill-rule="evenodd" clip-rule="evenodd" d="M132.347 225.463C131.901 224.963 131.431 224.33 131.303 224.055C131.081 223.58 131.09 223.524 131.475 222.945C131.697 222.61 131.88 222.21 131.88 222.057C131.88 221.618 132.269 221.728 132.767 222.309C133.599 223.278 134.063 226.195 133.406 226.323C133.263 226.351 132.815 225.986 132.347 225.463ZM125.675 222.062C125.999 221.731 125.887 221.071 125.436 220.653C125.202 220.437 124.456 219.842 123.777 219.331C122.279 218.205 120.736 216.721 120.132 215.827C119.627 215.079 119.233 214.887 118.747 215.153C118.36 215.366 118.15 215.153 118.146 214.546C118.146 214.101 118.821 213.773 120.023 213.638C121.787 213.44 124.823 214.682 126.085 216.119C127.582 217.822 127.841 219.305 126.974 221.202C126.527 222.18 126.46 222.251 125.992 222.251C125.602 222.251 125.531 222.209 125.675 222.062ZM112.086 215.607C111.897 215.495 111.815 215.246 111.814 214.783C111.81 213.728 111.7 213.547 110.396 212.462C109.246 211.504 106.995 209.044 106.127 207.797C105.797 207.322 105.663 207.251 105.097 207.251C104.32 207.251 104.06 206.991 104.128 206.278C104.197 205.54 104.681 205.316 105.947 205.436C107.603 205.592 108.847 206.309 110.859 208.264C113.426 210.758 114.265 212.707 113.567 214.55C113.13 215.703 112.729 215.99 112.086 215.607ZM89.3894 209.652C88.9781 209.187 87.89 206.678 87.7016 205.759C87.4508 204.536 87.6667 204.093 88.5162 204.093C89.4159 204.093 89.9915 204.45 90.2311 205.156C90.4914 205.924 90.4921 208.577 90.2311 209.344C90.01 209.995 89.7696 210.083 89.3886 209.652H89.3894ZM128.27 154.875C126.44 152.635 125.236 151.91 123.391 151.937C122.284 151.955 121.53 152.153 119.957 152.844C119.519 153.037 119.379 153.05 119.379 152.899C119.379 152.547 120.519 151.147 121.311 150.523C122.441 149.633 126.01 147.893 129.179 146.689C130.706 146.108 133.172 145.101 134.658 144.45C139.318 142.409 138.069 142.646 151.094 141.323C157.46 140.676 163.051 140.071 163.518 139.978C168.092 139.065 180.334 135.239 189.523 131.85C192.951 130.586 194.694 129.832 198.629 127.911C201.951 126.29 204.566 125.052 212.982 121.12C217.189 119.155 217.866 118.926 220.668 118.519C222.009 118.324 223.14 118.197 223.179 118.238C223.281 118.342 205.98 127.223 200.944 129.652C193.334 133.322 189.249 135.104 182.964 137.492C178.645 139.134 176.706 140.078 175.724 141.017C174.603 142.091 174.492 142.6 174.868 144.963C175.005 145.826 174.575 146.373 173.503 146.701C172.233 147.09 168.829 147.296 165.215 147.204C161.499 147.109 160.779 146.979 158.637 146.015C156.595 145.096 155.895 144.987 153.373 145.199C150.417 145.447 145.601 146.081 143.719 146.469C141.02 147.026 137.242 148.478 135.097 149.782C134.356 150.232 133.472 151.051 131.933 152.713C130.061 154.734 129.245 155.463 128.856 155.463C128.797 155.463 128.534 155.198 128.27 154.875Z" fill="#4E62A8"/>
<path fill-rule="evenodd" clip-rule="evenodd" d="M128.878 226.762C128.338 227.009 127.423 227.447 126.641 227.896C126.211 228.147 125.826 228.384 125.561 228.617C125.803 228.23 126.244 227.757 126.74 227.3C127.71 226.423 128.823 225.652 128.823 225.652C129.065 225.518 129.363 225.594 129.517 225.826C129.814 226.243 130.09 226.497 130.354 226.711C130.85 227.111 131.346 227.337 132.051 227.802C132.194 227.896 132.294 228.056 132.305 228.23C132.316 228.405 132.239 228.575 132.106 228.688C132.106 228.688 130.718 229.729 129.307 230.494C128.525 230.919 127.754 231.251 127.214 231.31C127.159 231.321 127.115 231.287 127.104 231.233C127.093 231.18 127.126 231.128 127.17 231.116C127.666 230.965 128.305 230.501 128.966 229.98C129.671 229.429 130.365 228.81 130.828 228.381C130.354 228.131 129.958 227.943 129.594 227.624C129.341 227.408 129.109 227.133 128.878 226.762ZM136.404 140.014C136.547 139.956 136.69 139.902 136.833 139.85C138.023 139.406 138.949 139.135 139.247 139.112C140.106 139.048 141.032 138.979 142.001 138.905L162.585 136.967C164.072 136.81 167.543 135.89 171.642 134.715C175.741 133.539 180.457 132.086 184.49 130.826C188.303 129.636 191.498 128.626 192.975 128.093C194.628 127.517 198.231 126.004 202.539 124.193C209.79 121.014 219.552 116.678 226.957 113.518L227.53 114.824C219.927 118.252 209.812 122.989 202.539 126.347C198.638 128.257 195.399 129.812 193.867 130.448C192.556 130.983 189.878 131.988 186.595 133.131C183.267 134.286 179.322 135.586 175.598 136.754C170 138.505 164.877 139.931 162.937 140.155L140.393 142.428C139.764 142.499 139.18 142.656 138.541 142.877C136.547 143.574 134.255 144.841 130.145 146.366C128.349 147.032 125.87 147.917 123.688 149.045C122.333 149.744 121.098 150.525 120.294 151.436C119.622 152.189 119.005 153.313 118.421 154.554C117.561 156.381 116.823 158.457 116.294 160.145C115.875 161.442 115.457 162.578 115.016 163.644C113.991 166.175 112.9 168.293 111.732 171.312C111.633 171.547 111.743 171.836 111.854 172.157C112.096 172.844 112.559 173.58 113.154 174.281C114.068 175.375 115.313 176.38 116.636 176.948C117.561 177.35 119.181 177.559 120.768 177.44C122.112 177.338 123.467 177.04 124.272 176.219C125.341 175.119 126.916 173.362 128.536 171.536C130.542 169.265 132.602 166.886 133.792 165.499C134.222 164.594 134.696 163.349 134.938 161.915C135.236 160.182 135.247 158.221 134.486 156.232C134.431 156.137 134.475 156.019 134.575 155.972C134.663 155.923 134.784 155.962 134.828 156.058C136.062 158.017 136.459 160.117 136.514 162.029C136.525 162.57 136.503 163.093 136.47 163.592L141.935 162.462C142.189 162.381 142.464 162.289 142.751 162.189C145.042 161.423 148.425 160.133 151.312 157.766C153.34 156.093 155.136 153.974 156.161 151.258C156.205 151.128 156.337 151.054 156.469 151.093C156.59 151.13 156.667 151.267 156.634 151.397C155.797 155.238 153.505 158.27 150.938 160.598C149.593 161.814 148.183 162.838 146.85 163.647C150.023 165.927 154.739 169.954 155.676 170.701C156.612 170.656 158.805 169.801 160.557 169.337C162.089 168.929 163.797 168.289 165.372 167.254C167.179 166.062 169.13 165.108 171.069 164.503C171.554 164.213 172.006 163.915 172.424 163.608C173.141 163.093 173.78 162.551 174.353 162.004C175.036 161.351 175.62 160.688 176.105 160.002C177.394 158.193 178 156.278 177.868 154.405C177.846 154.311 177.912 154.224 178.011 154.21C178.099 154.197 178.187 154.263 178.198 154.357C178.463 155.642 178.408 156.995 178.011 158.36C177.658 159.576 177.041 160.797 176.127 161.958C175.653 162.569 175.091 163.155 174.441 163.715C174.397 163.756 174.353 163.796 174.309 163.836C174.452 163.822 174.606 163.811 174.749 163.801C177.108 163.656 179.344 164.129 181.251 165.443C181.449 165.572 181.504 165.84 181.372 166.041C181.251 166.241 180.975 166.299 180.777 166.169C179.003 165.095 176.975 164.794 174.871 165.052C172.017 165.403 169.042 166.806 166.419 168.766C164.722 170.031 162.871 170.866 161.174 171.428C160.304 171.716 158.001 172.591 158.001 172.591C162.684 176.798 173.284 187.462 176.006 190.791C176.402 191.281 177.295 193.943 176.435 197.14C175.818 199.414 174.408 201.186 172.986 202.546C171.697 203.788 170.243 204.142 169.064 204.163C167.047 202.742 160.766 198.304 155.907 194.821C153.141 192.842 150.838 191.179 150.045 190.558C149.902 190.435 149.692 190.451 149.571 190.594C149.439 190.737 149.461 190.953 149.604 191.077C150.332 191.774 152.469 193.66 155.048 195.907C159.411 199.709 164.998 204.525 167.058 206.303C167.157 207.39 167.179 208.588 166.915 209.375C166.276 211.32 163.047 214.436 161.89 214.979C160.612 215.571 158.739 215.514 157.307 215.341C157.273 215.296 157.229 215.253 157.185 215.211L139.544 200.615C139.39 200.479 139.158 200.491 139.026 200.64C138.894 200.791 138.905 201.022 139.048 201.157L154.926 217.208C154.772 218.027 154.541 218.888 154.221 219.435C153.461 220.759 150.75 223.39 147.544 223.483C146.761 223.505 145.406 223.206 144.326 222.925C143.29 222.033 140.701 219.806 138.641 218.097C137.263 216.952 136.15 216.058 135.875 215.935C135.765 215.872 135.632 215.908 135.566 216.016C135.5 216.123 135.544 216.261 135.643 216.324C135.875 216.497 136.723 217.581 137.77 218.945C139.169 220.76 140.855 223.035 141.814 224.333C140.943 225.594 139.081 227.183 135.665 227.62C135.026 228.589 134.145 229.494 132.977 230.266C133.726 229.44 134.266 228.578 134.641 227.713C134.641 227.713 135.081 226.768 135.181 225.586C135.247 224.766 135.148 223.915 135.015 223.417C134.74 222.37 134.112 221.523 133.263 220.886C132.955 220.656 132.602 220.486 132.239 220.328C131.809 220.15 131.357 220.023 130.85 219.962C130.663 220.408 130.409 220.889 130.035 221.395C129.219 222.523 127.831 223.838 125.385 225.136C123.434 226.176 121.55 227.04 119.71 227.75C117.694 228.528 115.732 229.115 113.771 229.536C115.655 228.898 117.517 228.098 119.424 227.102C121.131 226.204 122.861 225.152 124.646 223.92C126.2 222.85 127.214 221.85 127.875 220.959C129.274 219.059 128.701 217.835 128.701 217.835C128.679 217.78 128.602 217.529 128.591 217.458C128.029 216.257 126.927 214.488 124.977 213.34C123.346 212.383 121.131 211.881 118.145 212.446C117.958 212.481 117.782 212.504 117.616 212.518C117.561 212.809 117.495 213.089 117.396 213.353C116.658 215.295 115.104 217.377 112.878 219.213C110.388 221.265 107.137 223.036 103.501 223.989C106.278 222.848 108.746 221.221 110.73 219.396C113.077 217.237 114.685 214.822 115.181 212.681C115.28 212.258 115.214 211.698 115.17 211.312C115.126 210.988 114.917 210.371 114.917 210.367C114.851 210.171 114.774 209.985 114.685 209.815C114.068 208.916 112.845 207.397 110.994 206.238C109.507 205.312 107.611 204.62 105.286 204.675C104.713 204.688 104.052 204.909 103.347 205.19C101.364 205.979 99.1928 207.279 97.8816 207.732C96.9119 208.068 95.0387 208.676 94.2894 208.721C94.2233 208.726 94.1682 208.727 94.1021 208.726C93.6062 209.527 92.9892 210.143 92.295 210.622C91.2041 211.362 90.003 211.688 88.8571 211.909L88.835 211.915C89.5072 211.645 90.1463 211.23 90.7413 210.712C91.5567 210.003 92.1407 209.053 92.4052 207.786C92.4272 207.702 92.4382 207.617 92.4492 207.532C92.5594 206.825 92.4713 206.298 92.4603 206.183C92.4052 205.831 92.2619 205.399 92.0966 204.962C91.8542 204.292 91.5016 203.615 91.0719 203.178C90.5099 202.602 89.5843 202.008 88.5816 201.429C87.0389 200.54 85.2869 199.709 84.0638 199.118C83.568 198.881 83.0832 198.685 82.5873 198.508C81.3201 198.05 80.0419 197.713 78.7197 197.247C78.0806 197.014 77.4635 196.748 76.8905 196.382C76.0751 195.856 75.3479 195.216 74.6867 194.498C74.0476 193.814 73.4967 193.095 72.9458 192.348C72.6042 191.893 72.2956 191.444 71.9761 191.006C71.337 190.413 70.753 189.882 70.2461 189.464C70.2351 189.456 70.2351 189.45 70.2241 189.442L24.165 142.659L31.7681 132.455C53.7178 139.135 88.2841 147.034 92.2178 147.334C96.7246 147.678 107.666 137.558 118.817 133.538C120.966 132.762 124.977 134.174 127.787 135.372C129.616 136.155 133.219 138.167 136.404 140.014ZM117.903 217.107C117.506 217.284 116.977 217.552 116.481 217.918C116.063 218.219 115.666 218.565 115.369 219.002C114.906 219.675 114.696 220.502 115.027 221.529C115.049 221.586 115.027 221.654 114.972 221.68C114.917 221.706 114.84 221.679 114.818 221.62C114.201 220.512 114.289 219.5 114.663 218.618C115.512 216.634 118.002 215.412 118.002 215.412C118.366 215.264 118.784 215.416 118.972 215.766C119.512 216.658 120.14 217.336 120.922 218.047C121.44 218.513 122.035 218.977 122.74 219.511C123.302 219.946 123.93 220.445 124.658 220.979C124.856 221.113 124.999 221.324 125.043 221.563C125.087 221.803 125.021 222.048 124.878 222.243C124.878 222.243 123.611 223.776 121.385 224.387C120.283 224.687 118.983 224.774 117.506 224.33C117.451 224.321 117.418 224.272 117.429 224.221C117.44 224.171 117.484 224.136 117.539 224.145C118.95 224.22 120.074 223.864 120.988 223.382C121.429 223.15 121.804 222.879 122.134 222.617C122.421 222.388 122.663 222.158 122.861 221.952C122.388 221.668 121.947 221.399 121.561 221.125C120.757 220.56 120.118 220.009 119.578 219.451C118.873 218.716 118.344 217.966 117.903 217.107ZM104.46 209.779C104.129 209.964 103.711 210.21 103.292 210.503C102.697 210.908 102.069 211.381 101.595 211.936C100.912 212.716 100.504 213.603 100.923 214.567C100.956 214.624 100.934 214.697 100.879 214.73C100.824 214.763 100.746 214.742 100.713 214.684C99.9862 213.652 100.24 212.496 100.857 211.415C101.97 209.471 104.383 207.881 104.383 207.881C104.779 207.657 105.286 207.786 105.529 208.173C105.958 208.769 106.344 209.248 106.686 209.676C107.104 210.211 107.49 210.633 107.887 211.031C108.383 211.538 108.889 212 109.518 212.563C109.87 212.875 110.245 213.225 110.686 213.626C111.016 213.883 111.082 214.356 110.84 214.694C110.84 214.694 110.013 215.699 108.316 216.522C107.545 216.896 106.62 217.227 105.496 217.417C105.441 217.432 105.385 217.404 105.374 217.35C105.352 217.299 105.385 217.243 105.441 217.228C106.421 216.784 107.182 216.249 107.81 215.734C108.394 215.258 108.823 214.798 109.11 214.444C108.856 214.285 108.636 214.135 108.416 213.986C107.644 213.458 107.038 213.003 106.476 212.462C106.002 212.012 105.573 211.5 105.121 210.842C104.901 210.528 104.691 210.176 104.46 209.779ZM84.8352 209.187C84.8352 209.187 84.2071 208.093 83.8655 206.891C83.7223 206.37 83.601 205.84 83.6451 205.378C83.7774 204.152 83.2705 203.63 82.5432 203.498C81.6948 203.343 80.4496 203.853 79.9868 204.302C79.6893 204.582 79.5241 204.907 79.469 205.256C79.3698 205.789 79.491 206.347 79.6342 206.733C79.6563 206.788 79.7114 206.819 79.7665 206.802C79.8216 206.786 79.8546 206.728 79.8326 206.673C79.7775 206.37 79.7444 205.964 79.8326 205.573C79.8987 205.263 80.064 204.974 80.3615 204.77C80.6921 204.542 81.4303 204.342 82.0143 204.399C82.1906 204.415 82.3339 204.471 82.433 204.57C82.5432 204.68 82.4771 204.865 82.4 205.141C82.2347 205.742 82.2567 206.471 82.3339 207.193C82.4881 208.638 82.995 210.016 82.995 210.016C83.2264 210.525 83.8214 210.753 84.3283 210.524C84.8352 210.295 85.0555 209.695 84.8352 209.187ZM95.3803 207.394L95.3582 207.488C95.3692 207.456 95.3692 207.425 95.3803 207.394ZM187.774 174.444C188.446 172.577 188.854 171.432 189.107 170.545C189.416 169.487 189.504 168.796 189.592 167.756C189.647 166.641 189.592 165.21 189.151 163.52C188.71 161.856 187.895 159.95 186.584 157.81C186.496 157.654 186.297 157.598 186.143 157.685C185.989 157.771 185.934 157.968 186.022 158.124C186.881 159.864 187.421 161.433 187.774 162.824C187.994 163.708 188.126 164.518 188.215 165.253C188.336 166.187 188.369 166.999 188.325 167.685C188.303 168.648 188.237 169.286 188.038 170.283C187.862 171.176 187.587 172.343 187.113 174.241C187.058 174.425 187.157 174.62 187.344 174.675C187.531 174.731 187.719 174.627 187.774 174.444ZM123.148 170.755C123.236 170.419 123.335 169.964 123.401 169.45C123.523 168.562 123.589 167.519 123.203 166.589C122.828 165.672 122.112 164.887 120.735 164.463C122.377 164.511 123.39 165.206 124.04 166.117C124.779 167.126 124.999 168.419 125.043 169.529C125.087 170.85 124.801 171.89 124.801 171.89C124.702 172.238 124.415 172.496 124.051 172.559C123.236 172.7 122.454 172.807 121.704 172.837C121.209 172.857 120.735 172.846 120.283 172.815C119.523 172.764 118.817 172.671 118.167 172.537C116.79 172.255 115.677 171.857 114.818 171.466C113.484 170.857 112.812 170.306 112.812 170.306C112.812 170.306 114.421 170.979 117.209 171.138C118.167 171.195 119.258 171.171 120.492 171.067C121.109 171.017 121.749 170.938 122.432 170.847C122.663 170.816 122.906 170.788 123.148 170.755Z" fill="url(#paint1_linear_3120_1810)"/>
<path fill-rule="evenodd" clip-rule="evenodd" d="M26.4336 145.558L26.654 145.266C26.654 145.266 64.9447 181.719 75.3135 188.268C79.093 190.656 92.3928 195.857 97.4065 197.318C100.657 198.266 107.974 196.688 110.728 197.666C114.365 198.956 116.612 202.185 120.491 204.026C122.805 205.129 126.695 204.716 129.571 206.348C131.389 207.382 134.937 211.373 137.328 213.338C140.402 215.867 145.096 220.22 146.066 220.684C147.796 221.509 149.03 221.994 150.088 221.441C151.851 220.514 153.041 219.404 152.721 217.894C152.424 216.45 138.65 203.463 138.937 200.894C138.937 200.989 138.981 201.083 139.047 201.153L154.925 217.204C154.771 218.024 154.54 218.884 154.22 219.431C153.46 220.755 150.749 223.386 147.543 223.479C146.76 223.501 145.405 223.202 144.325 222.922C143.289 222.029 140.7 219.802 138.639 218.093C137.262 216.949 136.149 216.054 135.874 215.931C135.763 215.868 135.631 215.905 135.565 216.012C135.499 216.119 135.543 216.257 135.642 216.32C135.874 216.493 136.722 217.577 137.769 218.941C139.168 220.756 140.854 223.031 141.813 224.329C141.691 224.513 141.537 224.703 141.372 224.897C141.218 225.06 141.041 225.251 140.81 225.452C139.763 226.399 138.121 227.299 135.686 227.614L135.664 227.616C135.664 227.616 137.35 224.815 137.03 222.917C136.182 217.975 131.863 217.418 131.863 217.418C131.863 217.418 131.422 215.855 130.695 214.854C129.626 213.367 127.62 210.887 124.877 209.995C122.673 209.278 117.769 209.772 117.769 209.772C117.769 209.772 115.874 206.278 114.365 205.069C112.712 203.742 110.166 202.078 107.819 201.81C105.472 201.542 100.271 203.466 100.271 203.466L94.6738 206.413C94.6738 206.413 94.7399 201.363 90.8061 199.848C87.3131 198.506 78.0572 196.983 78.0572 196.982C77.8038 196.874 77.5504 196.758 77.319 196.629C77.1757 196.553 77.0215 196.464 76.8672 196.36C76.6138 196.2 76.3713 196.027 76.1399 195.846C75.4347 195.274 74.8507 194.67 74.7185 194.527C74.7075 194.516 74.6965 194.506 74.6854 194.495C74.0463 193.81 69.9473 189.692 69.9473 189.692L26.4336 145.558ZM149.614 191.09C150.363 191.801 152.49 193.674 155.046 195.903C159.41 199.706 164.997 204.522 167.057 206.299C167.156 207.386 167.178 208.585 166.914 209.371C166.275 211.316 163.046 214.433 161.889 214.976C160.611 215.567 158.738 215.51 157.305 215.337C157.272 215.292 157.228 215.249 157.184 215.207L139.543 200.611C139.455 200.535 139.344 200.506 139.245 200.521C140.336 200.236 144.248 202.205 148.909 204.27C152.677 205.941 156.292 208.639 157.482 209.208C159.212 210.033 160.446 210.518 161.492 209.965C163.267 209.037 164.446 207.928 164.137 206.418C163.851 204.994 149.757 193.697 149.614 191.09ZM150.022 190.534C151.928 189.714 159.553 192.615 161.515 193.203C163.773 193.882 168.192 197.349 171.52 199.211C172.412 199.709 174.495 200.063 176.478 196.95C176.467 197.013 176.445 197.075 176.434 197.137C175.817 199.41 174.407 201.182 172.985 202.542C171.696 203.784 170.242 204.138 169.062 204.159C167.046 202.738 160.765 198.3 155.906 194.817C153.14 192.838 150.837 191.176 150.044 190.554C150.033 190.548 150.033 190.541 150.022 190.534V190.534ZM157.73 175.959C158.274 176.393 157.696 177.148 156.542 176.409C151.492 173.167 144.653 169.864 142.063 170.729C138.688 171.858 134.639 175.492 131.626 179.479C127.943 184.357 123.497 185.434 117.053 184.134C111.763 183.068 107.063 177.256 109.351 171.138C109.351 171.138 109.812 173.117 110.478 174.272C111.817 176.599 113.739 178.819 116.989 179.57C119.491 180.149 123.863 180.329 125.514 178.698C131.466 172.819 136.542 166.075 136.542 166.075C141.349 165.343 144.162 164.537 144.162 164.537C148.203 167.872 153.593 172.649 157.73 175.959Z" fill="#AF050F"/>
<path fill-rule="evenodd" clip-rule="evenodd" d="M243.541 48.3311C243.539 47.672 243.254 47.0463 242.76 46.6129L239.972 44.1614C239.47 43.7203 238.801 43.5212 238.141 43.6161L2.14628 77.5424C1.00968 77.706 0.169454 78.6899 0.181857 79.8423L0.880377 144.752C0.887589 145.422 1.18545 146.054 1.69603 146.485L4.45827 148.815C4.95639 149.236 5.60927 149.423 6.25358 149.331L241.842 115.629C242.974 115.467 243.813 114.492 243.809 113.346L243.541 48.3311Z" fill="#AF050F"/>
<path fill-rule="evenodd" clip-rule="evenodd" d="M238.997 46.3705L3.0272 80.2862L3.69479 145.208L239.304 111.513L238.997 46.3705ZM5.83318 82.7017L6.44404 141.992L236.506 109.089L236.23 49.5962L5.83318 82.7017Z" fill="url(#paint2_linear_3120_1810)"/>
<path fill-rule="evenodd" clip-rule="evenodd" d="M168.413 65.766L177.755 64.4255L186.273 94.55L193.626 62.1459L201.63 60.9969L209.727 90.6625L216.448 58.8692L225.785 57.5267L215.452 105.991L205.239 107.446L197.996 78.3808L191.025 109.443L181.547 110.804L168.413 65.766ZM158.452 114.291L140.992 69.8596L131.808 71.022L116.448 120.168L126.032 118.805L129.38 107.725L144.469 105.554L148.176 115.612L158.452 114.291ZM131.766 99.0516L141.718 97.6283L136.383 82.267L131.766 99.0516ZM82.9599 86.3783L71.7186 88.0172L71.5881 79.6686L103.609 75.0712L103.739 83.3478L92.4538 84.9929L93.0466 123.528L83.5686 124.888L82.9599 86.3783ZM27.3832 86.016L27.8381 115.11C27.9175 118.796 29.4205 124.583 36.7438 123.496C42.9648 122.573 44.4834 116.368 44.4958 112.712L44.0409 83.6235L53.3747 82.2843L53.8297 111.378C54.008 118.131 50.1573 129.656 36.8954 131.589C20.7152 133.948 18.5046 122.095 18.3687 116.459L17.9136 87.3519L27.3832 86.016Z" fill="url(#paint3_linear_3120_1810)"/>
<defs>
<linearGradient id="paint0_linear_3120_1810" x1="113.211" y1="29.1493" x2="112.559" y2="62.2628" gradientUnits="userSpaceOnUse">
<stop stop-color="#ECEDF1"/>
<stop offset="0.25" stop-color="#E0E1EA"/>
<stop offset="0.5" stop-color="#D4D6E3"/>
<stop offset="0.75" stop-color="#C6C9DA"/>
<stop offset="1" stop-color="#BBBFDF"/>
</linearGradient>
<linearGradient id="paint1_linear_3120_1810" x1="118.375" y1="132.906" x2="119.511" y2="231.337" gradientUnits="userSpaceOnUse">
<stop stop-color="#FCF285"/>
<stop offset="1" stop-color="#FBEE59"/>
</linearGradient>
<linearGradient id="paint2_linear_3120_1810" x1="3.02725" y1="80.2862" x2="4.07006" y2="145.202" gradientUnits="userSpaceOnUse">
<stop stop-color="#FCF0D1"/>
<stop offset="0.15" stop-color="#FCF0D1"/>
<stop offset="0.3" stop-color="#FBE9C6"/>
<stop offset="0.45" stop-color="#FBE0BA"/>
<stop offset="0.6" stop-color="#F9DCB4"/>
<stop offset="0.75" stop-color="#F9DBB3"/>
<stop offset="0.9" stop-color="#F8DCB6"/>
<stop offset="1" stop-color="#F8DCB6"/>
</linearGradient>
<linearGradient id="paint3_linear_3120_1810" x1="81.3223" y1="79.3172" x2="83.5921" y2="124.887" gradientUnits="userSpaceOnUse">
<stop stop-color="#FFF2D4"/>
<stop offset="0.35" stop-color="#FFF2D4"/>
<stop offset="1" stop-color="#FDD3A3"/>
</linearGradient>
</defs>
</svg>